M48
;Layer_Color=9474304
;FILE_FORMAT=2:4
INCH,TZ
;TYPE=PLATED
T1F00S00C0.0098
T2F00S00C0.0394
T3F00S00C0.1063
;TYPE=NON_PLATED
T4F00S00C0.0787
%
T01
X14144Y4862
X19409Y5236
X20049Y4862
X13494Y5246
X8238Y4862
X7589Y5236
X6309Y9567
X6595Y10511
X5906Y10787
X11811
X12520Y10493
X12224Y9606
X12556Y14174
X13268Y13624
X12811Y19252
X12063
X11315
X11299Y18947
X10551Y20030
X11801Y20758
X13598Y19252
X15364Y19587
X15036Y14527
X14328
X13620Y14528
X13976Y13624
X14682Y13622
X17717Y10738
X18426Y10511
X18129Y9606
X20364Y21703
X18967Y23002
T02
X7311Y21626
X8311
X9311
X10311
X11311
X12311
X13311
X14311
X15311
X16311
Y22626
X15311
X14311
X13311
X12311
X11311
X10311
X9311
X8311
X7311
T03
X22697Y925
X925
X22697Y22697
X925
T04
X8811Y20472
X14811
M30
