%FSLAX43Y43*%
%MOMM*%
G71*
G01*
G75*
G04 Layer_Physical_Order=2*
G04 Layer_Color=16711680*
%ADD10R,1.500X1.350*%
%ADD11R,0.650X0.800*%
%ADD12R,0.762X0.762*%
%ADD13R,0.600X0.900*%
%ADD14R,1.200X1.200*%
%ADD15R,1.400X0.600*%
%ADD16R,0.400X0.400*%
%ADD17R,0.900X0.600*%
%ADD18R,2.250X1.000*%
%ADD19R,0.800X0.650*%
%ADD20C,0.200*%
%ADD21C,0.250*%
%ADD22C,1.800*%
%ADD23R,1.800X1.800*%
%ADD24C,2.000*%
%ADD25C,3.600*%
%ADD26C,0.550*%
%ADD27R,2.200X0.350*%
%ADD28C,0.800*%
G36*
X31147Y59700D02*
X31147Y59700D01*
X31147D01*
X31158Y59622D01*
X31188Y59549D01*
X31236Y59486D01*
X31299Y59438D01*
X31372Y59408D01*
X31450Y59397D01*
X56362D01*
X56402Y59277D01*
X56348Y59237D01*
X56199Y59101D01*
X56063Y58952D01*
X55943Y58790D01*
X55840Y58618D01*
X55754Y58435D01*
X55686Y58246D01*
X55637Y58050D01*
X55607Y57851D01*
X55598Y57650D01*
X55607Y57449D01*
X55637Y57250D01*
X55686Y57054D01*
X55754Y56865D01*
X55840Y56682D01*
X55943Y56510D01*
X56063Y56348D01*
X56199Y56199D01*
X56348Y56063D01*
X56510Y55943D01*
X56682Y55840D01*
X56865Y55754D01*
X57054Y55686D01*
X57250Y55637D01*
X57449Y55607D01*
X57650Y55598D01*
X57851Y55607D01*
X58050Y55637D01*
X58246Y55686D01*
X58435Y55754D01*
X58618Y55840D01*
X58790Y55943D01*
X58952Y56063D01*
X59101Y56199D01*
X59237Y56348D01*
X59277Y56402D01*
X59397Y56362D01*
Y3638D01*
X59277Y3598D01*
X59237Y3652D01*
X59101Y3801D01*
X58952Y3937D01*
X58790Y4057D01*
X58618Y4160D01*
X58435Y4246D01*
X58246Y4314D01*
X58050Y4363D01*
X57851Y4393D01*
X57650Y4402D01*
X57449Y4393D01*
X57250Y4363D01*
X57054Y4314D01*
X56865Y4246D01*
X56682Y4160D01*
X56510Y4057D01*
X56348Y3937D01*
X56199Y3801D01*
X56063Y3652D01*
X55943Y3490D01*
X55840Y3318D01*
X55754Y3135D01*
X55686Y2946D01*
X55637Y2750D01*
X55607Y2551D01*
X55598Y2350D01*
X55607Y2149D01*
X55637Y1950D01*
X55686Y1754D01*
X55754Y1565D01*
X55840Y1382D01*
X55943Y1210D01*
X56063Y1048D01*
X56199Y899D01*
X56348Y763D01*
X56402Y723D01*
X56362Y603D01*
X3638D01*
X3598Y723D01*
X3652Y763D01*
X3801Y899D01*
X3937Y1048D01*
X4057Y1210D01*
X4160Y1382D01*
X4246Y1565D01*
X4314Y1754D01*
X4363Y1950D01*
X4393Y2149D01*
X4402Y2350D01*
X4393Y2551D01*
X4363Y2750D01*
X4314Y2946D01*
X4246Y3135D01*
X4160Y3318D01*
X4057Y3490D01*
X3937Y3652D01*
X3801Y3801D01*
X3652Y3937D01*
X3490Y4057D01*
X3318Y4160D01*
X3135Y4246D01*
X2946Y4314D01*
X2750Y4363D01*
X2551Y4393D01*
X2350Y4402D01*
X2149Y4393D01*
X1950Y4363D01*
X1754Y4314D01*
X1565Y4246D01*
X1382Y4160D01*
X1210Y4057D01*
X1048Y3937D01*
X899Y3801D01*
X763Y3652D01*
X723Y3598D01*
X603Y3638D01*
Y56362D01*
X723Y56402D01*
X763Y56348D01*
X899Y56199D01*
X1048Y56063D01*
X1210Y55943D01*
X1382Y55840D01*
X1565Y55754D01*
X1754Y55686D01*
X1950Y55637D01*
X2149Y55607D01*
X2350Y55598D01*
X2551Y55607D01*
X2750Y55637D01*
X2946Y55686D01*
X3135Y55754D01*
X3318Y55840D01*
X3490Y55943D01*
X3652Y56063D01*
X3801Y56199D01*
X3937Y56348D01*
X4057Y56510D01*
X4160Y56682D01*
X4246Y56865D01*
X4314Y57054D01*
X4363Y57250D01*
X4393Y57449D01*
X4402Y57650D01*
X4393Y57851D01*
X4363Y58050D01*
X4314Y58246D01*
X4246Y58435D01*
X4160Y58618D01*
X4057Y58790D01*
X3937Y58952D01*
X3801Y59101D01*
X3652Y59237D01*
X3598Y59277D01*
X3638Y59397D01*
X28550D01*
X28628Y59408D01*
X28701Y59438D01*
X28764Y59486D01*
X28812Y59549D01*
X28842Y59622D01*
X28853Y59700D01*
Y65897D01*
X31147D01*
Y59700D01*
D02*
G37*
%LPC*%
G36*
X31048Y25052D02*
X30946Y25044D01*
X30846Y25020D01*
X30752Y24981D01*
X30665Y24927D01*
X30587Y24861D01*
X30520Y24783D01*
X30467Y24696D01*
X30428Y24601D01*
X30404Y24502D01*
X30396Y24400D01*
X30404Y24298D01*
X30428Y24199D01*
X30467Y24104D01*
X30520Y24017D01*
X30587Y23939D01*
X30665Y23873D01*
X30752Y23819D01*
X30846Y23780D01*
X30946Y23756D01*
X31048Y23748D01*
X31150Y23756D01*
X31249Y23780D01*
X31344Y23819D01*
X31431Y23873D01*
X31509Y23939D01*
X31575Y24017D01*
X31629Y24104D01*
X31668Y24199D01*
X31692Y24298D01*
X31700Y24400D01*
X31692Y24502D01*
X31668Y24601D01*
X31629Y24696D01*
X31575Y24783D01*
X31509Y24861D01*
X31431Y24927D01*
X31344Y24981D01*
X31249Y25020D01*
X31150Y25044D01*
X31048Y25052D01*
D02*
G37*
G36*
X46048D02*
X45946Y25044D01*
X45846Y25020D01*
X45752Y24981D01*
X45665Y24927D01*
X45587Y24861D01*
X45520Y24783D01*
X45467Y24696D01*
X45428Y24601D01*
X45404Y24502D01*
X45396Y24400D01*
X45404Y24298D01*
X45428Y24199D01*
X45467Y24104D01*
X45520Y24017D01*
X45587Y23939D01*
X45665Y23873D01*
X45752Y23819D01*
X45846Y23780D01*
X45946Y23756D01*
X46048Y23748D01*
X46150Y23756D01*
X46249Y23780D01*
X46344Y23819D01*
X46431Y23873D01*
X46509Y23939D01*
X46575Y24017D01*
X46629Y24104D01*
X46668Y24199D01*
X46692Y24298D01*
X46700Y24400D01*
X46692Y24502D01*
X46668Y24601D01*
X46629Y24696D01*
X46575Y24783D01*
X46509Y24861D01*
X46431Y24927D01*
X46344Y24981D01*
X46249Y25020D01*
X46150Y25044D01*
X46048Y25052D01*
D02*
G37*
G36*
X22380Y53253D02*
X22216Y53242D01*
X22056Y53210D01*
X21901Y53157D01*
X21754Y53085D01*
X21617Y52994D01*
X21494Y52886D01*
X21386Y52763D01*
X21295Y52626D01*
X21223Y52479D01*
X21170Y52324D01*
X21138Y52164D01*
X21127Y52000D01*
X21138Y51836D01*
X21170Y51676D01*
X21223Y51521D01*
X21295Y51374D01*
X21386Y51237D01*
X21494Y51114D01*
X21617Y51006D01*
X21754Y50915D01*
X21901Y50843D01*
X22056Y50790D01*
X22216Y50758D01*
X22380Y50747D01*
X22544Y50758D01*
X22704Y50790D01*
X22859Y50843D01*
X23006Y50915D01*
X23143Y51006D01*
X23266Y51114D01*
X23374Y51237D01*
X23465Y51374D01*
X23537Y51521D01*
X23590Y51676D01*
X23622Y51836D01*
X23633Y52000D01*
X23622Y52164D01*
X23590Y52324D01*
X23537Y52479D01*
X23465Y52626D01*
X23374Y52763D01*
X23266Y52886D01*
X23143Y52994D01*
X23006Y53085D01*
X22859Y53157D01*
X22704Y53210D01*
X22544Y53242D01*
X22380Y53253D01*
D02*
G37*
G36*
X49300Y13952D02*
X49198Y13944D01*
X49099Y13920D01*
X49004Y13881D01*
X48917Y13827D01*
X48839Y13761D01*
X48773Y13683D01*
X48719Y13596D01*
X48680Y13501D01*
X48656Y13402D01*
X48648Y13300D01*
X48656Y13198D01*
X48680Y13099D01*
X48719Y13004D01*
X48773Y12917D01*
X48839Y12839D01*
X48917Y12773D01*
X49004Y12719D01*
X49099Y12680D01*
X49198Y12656D01*
X49300Y12648D01*
X49402Y12656D01*
X49501Y12680D01*
X49596Y12719D01*
X49683Y12773D01*
X49761Y12839D01*
X49827Y12917D01*
X49881Y13004D01*
X49920Y13099D01*
X49944Y13198D01*
X49952Y13300D01*
X49944Y13402D01*
X49920Y13501D01*
X49881Y13596D01*
X49827Y13683D01*
X49761Y13761D01*
X49683Y13827D01*
X49596Y13881D01*
X49501Y13920D01*
X49402Y13944D01*
X49300Y13952D01*
D02*
G37*
G36*
X19275D02*
X19173Y13944D01*
X19074Y13920D01*
X18979Y13881D01*
X18892Y13827D01*
X18814Y13761D01*
X18748Y13683D01*
X18694Y13596D01*
X18655Y13501D01*
X18631Y13402D01*
X18623Y13300D01*
X18631Y13198D01*
X18655Y13099D01*
X18694Y13004D01*
X18748Y12917D01*
X18814Y12839D01*
X18892Y12773D01*
X18979Y12719D01*
X19074Y12680D01*
X19173Y12656D01*
X19275Y12648D01*
X19377Y12656D01*
X19476Y12680D01*
X19571Y12719D01*
X19658Y12773D01*
X19736Y12839D01*
X19802Y12917D01*
X19856Y13004D01*
X19895Y13099D01*
X19919Y13198D01*
X19927Y13300D01*
X19919Y13402D01*
X19895Y13501D01*
X19856Y13596D01*
X19802Y13683D01*
X19736Y13761D01*
X19658Y13827D01*
X19571Y13881D01*
X19476Y13920D01*
X19377Y13944D01*
X19275Y13952D01*
D02*
G37*
G36*
X16025Y24952D02*
X15923Y24944D01*
X15824Y24920D01*
X15729Y24881D01*
X15642Y24827D01*
X15564Y24761D01*
X15498Y24683D01*
X15444Y24596D01*
X15405Y24501D01*
X15381Y24402D01*
X15373Y24300D01*
X15381Y24198D01*
X15405Y24099D01*
X15444Y24004D01*
X15498Y23917D01*
X15564Y23839D01*
X15642Y23773D01*
X15729Y23719D01*
X15824Y23680D01*
X15923Y23656D01*
X16025Y23648D01*
X16127Y23656D01*
X16226Y23680D01*
X16321Y23719D01*
X16408Y23773D01*
X16486Y23839D01*
X16552Y23917D01*
X16606Y24004D01*
X16645Y24099D01*
X16669Y24198D01*
X16677Y24300D01*
X16669Y24402D01*
X16645Y24501D01*
X16606Y24596D01*
X16552Y24683D01*
X16486Y24761D01*
X16408Y24827D01*
X16321Y24881D01*
X16226Y24920D01*
X16127Y24944D01*
X16025Y24952D01*
D02*
G37*
G36*
X34275Y13977D02*
X34173Y13969D01*
X34074Y13945D01*
X33979Y13906D01*
X33892Y13852D01*
X33814Y13786D01*
X33748Y13708D01*
X33694Y13621D01*
X33655Y13526D01*
X33631Y13427D01*
X33623Y13325D01*
X33631Y13223D01*
X33655Y13124D01*
X33694Y13029D01*
X33748Y12942D01*
X33814Y12864D01*
X33892Y12798D01*
X33979Y12744D01*
X34074Y12705D01*
X34173Y12681D01*
X34275Y12673D01*
X34377Y12681D01*
X34476Y12705D01*
X34571Y12744D01*
X34658Y12798D01*
X34736Y12864D01*
X34802Y12942D01*
X34856Y13029D01*
X34895Y13124D01*
X34919Y13223D01*
X34927Y13325D01*
X34919Y13427D01*
X34895Y13526D01*
X34856Y13621D01*
X34802Y13708D01*
X34736Y13786D01*
X34658Y13852D01*
X34571Y13906D01*
X34476Y13945D01*
X34377Y13969D01*
X34275Y13977D01*
D02*
G37*
G36*
X18570Y56082D02*
X18420Y56073D01*
X18272Y56043D01*
X18129Y55995D01*
X17994Y55928D01*
X17868Y55844D01*
X17755Y55745D01*
X17656Y55632D01*
X17572Y55506D01*
X17505Y55371D01*
X17457Y55228D01*
X17427Y55080D01*
X17418Y54930D01*
X17427Y54780D01*
X17457Y54632D01*
X17505Y54489D01*
X17572Y54354D01*
X17656Y54228D01*
X17755Y54115D01*
X17868Y54016D01*
X17994Y53932D01*
X18129Y53865D01*
X18272Y53817D01*
X18420Y53787D01*
X18570Y53778D01*
X18720Y53787D01*
X18868Y53817D01*
X19011Y53865D01*
X19146Y53932D01*
X19272Y54016D01*
X19385Y54115D01*
X19484Y54228D01*
X19568Y54354D01*
X19635Y54489D01*
X19683Y54632D01*
X19713Y54780D01*
X19722Y54930D01*
X19713Y55080D01*
X19683Y55228D01*
X19635Y55371D01*
X19568Y55506D01*
X19484Y55632D01*
X19385Y55745D01*
X19272Y55844D01*
X19146Y55928D01*
X19011Y55995D01*
X18868Y56043D01*
X18720Y56073D01*
X18570Y56082D01*
D02*
G37*
G36*
X18697Y58618D02*
Y57597D01*
X19718D01*
X19717Y57621D01*
X19687Y57769D01*
X19638Y57913D01*
X19572Y58048D01*
X19487Y58174D01*
X19388Y58288D01*
X19274Y58387D01*
X19148Y58472D01*
X19013Y58538D01*
X18869Y58587D01*
X18721Y58617D01*
X18697Y58618D01*
D02*
G37*
G36*
X48175Y59077D02*
X48073Y59069D01*
X47974Y59045D01*
X47879Y59006D01*
X47792Y58952D01*
X47714Y58886D01*
X47648Y58808D01*
X47594Y58721D01*
X47555Y58626D01*
X47531Y58527D01*
X47523Y58425D01*
X47531Y58323D01*
X47555Y58224D01*
X47594Y58129D01*
X47648Y58042D01*
X47714Y57964D01*
X47792Y57898D01*
X47879Y57844D01*
X47974Y57805D01*
X48073Y57781D01*
X48175Y57773D01*
X48277Y57781D01*
X48376Y57805D01*
X48471Y57844D01*
X48558Y57898D01*
X48636Y57964D01*
X48702Y58042D01*
X48756Y58129D01*
X48795Y58224D01*
X48819Y58323D01*
X48827Y58425D01*
X48819Y58527D01*
X48795Y58626D01*
X48756Y58721D01*
X48702Y58808D01*
X48636Y58886D01*
X48558Y58952D01*
X48471Y59006D01*
X48376Y59045D01*
X48277Y59069D01*
X48175Y59077D01*
D02*
G37*
G36*
X34375Y59202D02*
X33225D01*
X33151Y59195D01*
X33081Y59173D01*
X33016Y59138D01*
X32959Y59091D01*
X32259Y58391D01*
X32212Y58334D01*
X32201Y58315D01*
X32076Y58292D01*
X31972Y58384D01*
X31846Y58468D01*
X31711Y58535D01*
X31568Y58583D01*
X31420Y58613D01*
X31270Y58622D01*
X31120Y58613D01*
X30972Y58583D01*
X30829Y58535D01*
X30694Y58468D01*
X30568Y58384D01*
X30467Y58296D01*
X30417Y58319D01*
X30352Y58376D01*
Y58569D01*
X30352D01*
X30352Y58569D01*
X30345Y58638D01*
X30338Y58660D01*
X30338Y58660D01*
X30325Y58704D01*
Y58704D01*
X30325Y58704D01*
X30292Y58764D01*
X30273Y58788D01*
X30249Y58818D01*
X30018Y59049D01*
X29964Y59092D01*
X29904Y59125D01*
X29838Y59145D01*
X29769Y59152D01*
X24980D01*
X24911Y59145D01*
X24845Y59125D01*
X24785Y59092D01*
X24731Y59049D01*
X24176Y58493D01*
X24091Y58535D01*
X23948Y58583D01*
X23800Y58613D01*
X23650Y58622D01*
X23500Y58613D01*
X23352Y58583D01*
X23209Y58535D01*
X23074Y58468D01*
X22948Y58384D01*
X22835Y58285D01*
X22736Y58172D01*
X22652Y58046D01*
X22585Y57911D01*
X22537Y57768D01*
X22507Y57620D01*
X22498Y57470D01*
X22507Y57320D01*
X22537Y57172D01*
X22585Y57029D01*
X22652Y56894D01*
X22736Y56768D01*
X22824Y56667D01*
X22801Y56617D01*
X22744Y56552D01*
X22526D01*
X22133Y56944D01*
X22175Y57029D01*
X22223Y57172D01*
X22253Y57320D01*
X22262Y57470D01*
X22253Y57620D01*
X22223Y57768D01*
X22175Y57911D01*
X22108Y58046D01*
X22024Y58172D01*
X21925Y58285D01*
X21812Y58384D01*
X21686Y58468D01*
X21551Y58535D01*
X21408Y58583D01*
X21260Y58613D01*
X21110Y58622D01*
X20960Y58613D01*
X20812Y58583D01*
X20669Y58535D01*
X20534Y58468D01*
X20408Y58384D01*
X20295Y58285D01*
X20196Y58172D01*
X20112Y58046D01*
X20045Y57911D01*
X19997Y57768D01*
X19967Y57620D01*
X19958Y57470D01*
X19967Y57320D01*
X19997Y57172D01*
X20045Y57029D01*
X20112Y56894D01*
X20196Y56768D01*
X20295Y56655D01*
X20408Y56556D01*
X20534Y56472D01*
X20669Y56405D01*
X20812Y56357D01*
X20960Y56327D01*
X21110Y56318D01*
X21260Y56327D01*
X21408Y56357D01*
X21551Y56405D01*
X21636Y56447D01*
X22131Y55951D01*
X22185Y55908D01*
X22245Y55875D01*
X22311Y55855D01*
X22380Y55848D01*
X22744D01*
X22801Y55783D01*
X22824Y55733D01*
X22736Y55632D01*
X22652Y55506D01*
X22585Y55371D01*
X22537Y55228D01*
X22507Y55080D01*
X22498Y54930D01*
X22507Y54780D01*
X22537Y54632D01*
X22585Y54489D01*
X22652Y54354D01*
X22736Y54228D01*
X22835Y54115D01*
X22948Y54016D01*
X23074Y53932D01*
X23209Y53865D01*
X23352Y53817D01*
X23500Y53787D01*
X23650Y53778D01*
X23800Y53787D01*
X23948Y53817D01*
X24091Y53865D01*
X24176Y53907D01*
X28388Y49694D01*
Y49291D01*
X28367Y49273D01*
X28301Y49193D01*
X28253Y49102D01*
X28223Y49003D01*
X28212Y48900D01*
X28223Y48797D01*
X28253Y48698D01*
X28301Y48607D01*
X28367Y48527D01*
X28447Y48461D01*
X28538Y48413D01*
X28637Y48383D01*
X28740Y48372D01*
X28767Y48375D01*
X34391Y42751D01*
X34445Y42708D01*
D01*
D01*
Y42708D01*
X34445Y42708D01*
D01*
D01*
X34445D01*
X34445Y42708D01*
D01*
X34445D01*
Y42708D01*
X34505Y42675D01*
X34571Y42655D01*
X34640Y42648D01*
X37646D01*
Y42477D01*
X39000D01*
Y42223D01*
X37646D01*
Y42015D01*
X37605Y41992D01*
X37551Y41949D01*
X33444Y37842D01*
X33401Y37789D01*
X33368Y37728D01*
X33348Y37662D01*
X33341Y37593D01*
Y34990D01*
X33327Y34978D01*
X33261Y34898D01*
X33213Y34807D01*
X33183Y34708D01*
X33172Y34605D01*
X33183Y34502D01*
X33213Y34403D01*
X33261Y34312D01*
X33327Y34232D01*
X33407Y34166D01*
X33498Y34118D01*
X33597Y34088D01*
X33700Y34077D01*
X33803Y34088D01*
X33902Y34118D01*
X33993Y34166D01*
X34073Y34232D01*
X34139Y34312D01*
X34187Y34403D01*
X34217Y34502D01*
X34228Y34605D01*
X34217Y34708D01*
X34187Y34807D01*
X34139Y34898D01*
X34073Y34978D01*
X34045Y35001D01*
Y37447D01*
X37529Y40931D01*
X37646Y40883D01*
Y40621D01*
X37650D01*
Y40526D01*
X35250Y38125D01*
X35206Y38072D01*
X35173Y38011D01*
X35153Y37945D01*
X35147Y37877D01*
Y35152D01*
X35115Y35132D01*
X35037Y35066D01*
X34971Y34988D01*
X34917Y34901D01*
X34878Y34806D01*
X34854Y34707D01*
X34846Y34605D01*
X34854Y34503D01*
X34878Y34403D01*
X34917Y34309D01*
X34971Y34222D01*
X35037Y34144D01*
X35115Y34077D01*
X35202Y34024D01*
X35297Y33985D01*
X35396Y33961D01*
X35498Y33953D01*
X35600Y33961D01*
X35700Y33985D01*
X35794Y34024D01*
X35882Y34077D01*
X35959Y34144D01*
X36026Y34222D01*
X36079Y34309D01*
X36118Y34403D01*
X36142Y34503D01*
X36150Y34605D01*
X36142Y34707D01*
X36118Y34806D01*
X36079Y34901D01*
X36026Y34988D01*
X35959Y35066D01*
X35882Y35132D01*
X35850Y35152D01*
Y36357D01*
X35965Y36410D01*
X36010Y36372D01*
X36097Y36319D01*
X36192Y36280D01*
X36291Y36256D01*
X36393Y36248D01*
X36495Y36256D01*
X36595Y36280D01*
X36689Y36319D01*
X36776Y36372D01*
X36826Y36415D01*
X36941Y36362D01*
Y35147D01*
X36910Y35127D01*
X36832Y35061D01*
X36766Y34983D01*
X36712Y34896D01*
X36673Y34801D01*
X36649Y34702D01*
X36641Y34600D01*
X36649Y34498D01*
X36673Y34398D01*
X36712Y34304D01*
X36766Y34217D01*
X36832Y34139D01*
X36910Y34072D01*
X36997Y34019D01*
X37092Y33980D01*
X37191Y33956D01*
X37293Y33948D01*
X37297Y33948D01*
X37350Y33833D01*
X31294Y27777D01*
X30368D01*
X30293Y27839D01*
X30202Y27887D01*
X30103Y27917D01*
X30000Y27928D01*
X29897Y27917D01*
X29798Y27887D01*
X29707Y27839D01*
X29627Y27773D01*
X29561Y27693D01*
X29513Y27602D01*
X29483Y27503D01*
X29472Y27400D01*
X29483Y27297D01*
X29513Y27198D01*
X29561Y27107D01*
X29627Y27027D01*
X29707Y26961D01*
X29798Y26913D01*
X29897Y26883D01*
X30000Y26872D01*
X30103Y26883D01*
X30202Y26913D01*
X30293Y26961D01*
X30368Y27023D01*
X31450D01*
X31524Y27030D01*
X31594Y27052D01*
X31659Y27087D01*
X31716Y27134D01*
X31716Y27134D01*
X31716Y27134D01*
X41806Y37223D01*
X41923Y37174D01*
Y36356D01*
X32044Y26477D01*
X16456D01*
X15527Y27406D01*
X15517Y27503D01*
X15487Y27602D01*
X15439Y27693D01*
X15373Y27773D01*
X15293Y27839D01*
X15202Y27887D01*
X15103Y27917D01*
X15000Y27928D01*
X14897Y27917D01*
X14798Y27887D01*
X14707Y27839D01*
X14627Y27773D01*
X14561Y27693D01*
X14513Y27602D01*
X14483Y27503D01*
X14472Y27400D01*
X14483Y27297D01*
X14513Y27198D01*
X14561Y27107D01*
X14627Y27027D01*
X14707Y26961D01*
X14798Y26913D01*
X14897Y26883D01*
X14994Y26873D01*
X16034Y25834D01*
X16091Y25787D01*
X16156Y25752D01*
X16226Y25730D01*
X16226Y25730D01*
X16226Y25730D01*
D01*
X16226Y25730D01*
X16226Y25730D01*
X16300Y25723D01*
X32200D01*
X32274Y25730D01*
X32344Y25752D01*
X32409Y25787D01*
X32466Y25834D01*
X42306Y35673D01*
X42423Y35624D01*
Y34381D01*
X20919Y12877D01*
X20822Y12867D01*
X20723Y12837D01*
X20632Y12789D01*
X20552Y12723D01*
X20486Y12643D01*
X20438Y12552D01*
X20408Y12453D01*
X20397Y12350D01*
X20408Y12247D01*
X20438Y12148D01*
X20486Y12057D01*
X20552Y11977D01*
X20632Y11911D01*
X20723Y11863D01*
X20822Y11833D01*
X20925Y11822D01*
X21028Y11833D01*
X21127Y11863D01*
X21218Y11911D01*
X21298Y11977D01*
X21364Y12057D01*
X21412Y12148D01*
X21442Y12247D01*
X21452Y12344D01*
X42811Y33703D01*
X42928Y33654D01*
Y19886D01*
X35919Y12877D01*
X35822Y12867D01*
X35723Y12837D01*
X35632Y12789D01*
X35552Y12723D01*
X35486Y12643D01*
X35438Y12552D01*
X35408Y12453D01*
X35397Y12350D01*
X35408Y12247D01*
X35438Y12148D01*
X35486Y12057D01*
X35552Y11977D01*
X35632Y11911D01*
X35723Y11863D01*
X35822Y11833D01*
X35925Y11822D01*
X36028Y11833D01*
X36127Y11863D01*
X36218Y11911D01*
X36298Y11977D01*
X36364Y12057D01*
X36412Y12148D01*
X36442Y12247D01*
X36452Y12344D01*
X43571Y19464D01*
X43618Y19521D01*
X43653Y19586D01*
X43675Y19656D01*
X43682Y19730D01*
X43682Y19730D01*
X43682Y19730D01*
Y19730D01*
Y49895D01*
X43675Y49969D01*
X43653Y50039D01*
X43618Y50104D01*
X43571Y50161D01*
X40747Y52986D01*
Y53450D01*
X40740Y53524D01*
X40718Y53594D01*
X40683Y53659D01*
X40679Y53665D01*
X40733Y53780D01*
X42580D01*
Y55671D01*
X42697Y55720D01*
X44623Y53794D01*
Y27643D01*
X44561Y27568D01*
X44513Y27477D01*
X44483Y27378D01*
X44472Y27275D01*
X44483Y27172D01*
X44513Y27073D01*
X44561Y26982D01*
X44627Y26902D01*
X44707Y26836D01*
X44798Y26788D01*
X44897Y26758D01*
X45000Y26747D01*
X45103Y26758D01*
X45202Y26788D01*
X45293Y26836D01*
X45373Y26902D01*
X45439Y26982D01*
X45487Y27073D01*
X45517Y27172D01*
X45528Y27275D01*
X45517Y27378D01*
X45487Y27477D01*
X45439Y27568D01*
X45377Y27643D01*
Y37657D01*
X45400Y37670D01*
X45496Y37704D01*
X45534Y37659D01*
X50548Y32644D01*
Y12718D01*
X50486Y12643D01*
X50438Y12552D01*
X50408Y12453D01*
X50397Y12350D01*
X50408Y12247D01*
X50438Y12148D01*
X50486Y12057D01*
X50552Y11977D01*
X50632Y11911D01*
X50723Y11863D01*
X50822Y11833D01*
X50925Y11822D01*
X51028Y11833D01*
X51127Y11863D01*
X51218Y11911D01*
X51298Y11977D01*
X51364Y12057D01*
X51412Y12148D01*
X51442Y12247D01*
X51453Y12350D01*
X51442Y12453D01*
X51412Y12552D01*
X51364Y12643D01*
X51302Y12718D01*
Y32800D01*
X51295Y32874D01*
X51273Y32944D01*
X51238Y33009D01*
X51191Y33066D01*
X47734Y36524D01*
X47738Y36554D01*
X47776Y36647D01*
X50150D01*
X50228Y36658D01*
X50228D01*
X50228Y36658D01*
X50228Y36658D01*
X50301Y36688D01*
X50364Y36736D01*
X50364Y36736D01*
X50364Y36736D01*
X50412Y36799D01*
X50442Y36872D01*
X50453Y36950D01*
Y49050D01*
X50442Y49128D01*
X50412Y49201D01*
X50364Y49264D01*
X50301Y49312D01*
X50228Y49342D01*
X50150Y49353D01*
X47750D01*
X47672Y49342D01*
X47599Y49312D01*
X47536Y49264D01*
X47488Y49201D01*
X47458Y49128D01*
X47447Y49050D01*
Y36976D01*
X47354Y36938D01*
X47324Y36934D01*
X46177Y38081D01*
Y55325D01*
X46170Y55399D01*
X46148Y55469D01*
X46113Y55534D01*
X46066Y55591D01*
X42649Y59008D01*
X42592Y59055D01*
X42527Y59090D01*
X42457Y59112D01*
X42383Y59119D01*
X40162D01*
X40088Y59112D01*
X40018Y59090D01*
X39953Y59055D01*
X39896Y59008D01*
X39392Y58505D01*
X39331Y58535D01*
X39188Y58583D01*
X39040Y58613D01*
X38890Y58622D01*
X38740Y58613D01*
X38592Y58583D01*
X38449Y58535D01*
X38314Y58468D01*
X38188Y58384D01*
X38075Y58285D01*
X37976Y58172D01*
X37892Y58046D01*
X37825Y57911D01*
X37777Y57768D01*
X37747Y57620D01*
X37738Y57470D01*
X37747Y57320D01*
X37777Y57172D01*
X37825Y57029D01*
X37892Y56894D01*
X37965Y56784D01*
X37906Y56672D01*
X37681D01*
X37385Y56968D01*
X37415Y57029D01*
X37463Y57172D01*
X37493Y57320D01*
X37502Y57470D01*
X37493Y57620D01*
X37463Y57768D01*
X37415Y57911D01*
X37348Y58046D01*
X37264Y58172D01*
X37165Y58285D01*
X37052Y58384D01*
X36926Y58468D01*
X36791Y58535D01*
X36648Y58583D01*
X36500Y58613D01*
X36350Y58622D01*
X36200Y58613D01*
X36052Y58583D01*
X35909Y58535D01*
X35774Y58468D01*
X35648Y58384D01*
X35547Y58296D01*
X35421Y58306D01*
X35391Y58341D01*
X34641Y59091D01*
X34584Y59138D01*
X34519Y59173D01*
X34449Y59195D01*
X34375Y59202D01*
D02*
G37*
G36*
X18443Y58618D02*
X18419Y58617D01*
X18271Y58587D01*
X18127Y58538D01*
X17992Y58472D01*
X17866Y58387D01*
X17752Y58288D01*
X17653Y58174D01*
X17568Y58048D01*
X17502Y57913D01*
X17453Y57769D01*
X17423Y57621D01*
X17422Y57597D01*
X18443D01*
Y58618D01*
D02*
G37*
G36*
X21110Y56082D02*
X20960Y56073D01*
X20812Y56043D01*
X20669Y55995D01*
X20534Y55928D01*
X20408Y55844D01*
X20295Y55745D01*
X20196Y55632D01*
X20112Y55506D01*
X20045Y55371D01*
X19997Y55228D01*
X19967Y55080D01*
X19958Y54930D01*
X19967Y54780D01*
X19997Y54632D01*
X20045Y54489D01*
X20112Y54354D01*
X20196Y54228D01*
X20295Y54115D01*
X20408Y54016D01*
X20534Y53932D01*
X20669Y53865D01*
X20812Y53817D01*
X20960Y53787D01*
X21110Y53778D01*
X21260Y53787D01*
X21408Y53817D01*
X21551Y53865D01*
X21686Y53932D01*
X21812Y54016D01*
X21925Y54115D01*
X22024Y54228D01*
X22108Y54354D01*
X22175Y54489D01*
X22223Y54632D01*
X22253Y54780D01*
X22262Y54930D01*
X22253Y55080D01*
X22223Y55228D01*
X22175Y55371D01*
X22108Y55506D01*
X22024Y55632D01*
X21925Y55745D01*
X21812Y55844D01*
X21686Y55928D01*
X21551Y55995D01*
X21408Y56043D01*
X21260Y56073D01*
X21110Y56082D01*
D02*
G37*
G36*
X18443Y57343D02*
X17422D01*
X17423Y57319D01*
X17453Y57171D01*
X17502Y57027D01*
X17568Y56892D01*
X17653Y56766D01*
X17752Y56652D01*
X17866Y56553D01*
X17992Y56468D01*
X18127Y56402D01*
X18271Y56353D01*
X18419Y56323D01*
X18443Y56322D01*
Y57343D01*
D02*
G37*
G36*
X19718D02*
X18697D01*
Y56322D01*
X18721Y56323D01*
X18869Y56353D01*
X19013Y56402D01*
X19148Y56468D01*
X19274Y56553D01*
X19388Y56652D01*
X19487Y56766D01*
X19572Y56892D01*
X19638Y57027D01*
X19687Y57171D01*
X19717Y57319D01*
X19718Y57343D01*
D02*
G37*
%LPD*%
D20*
X27500Y54110D02*
Y55575D01*
X21110Y57470D02*
X22380Y56200D01*
X26875D01*
X27500Y55575D01*
X37650Y42350D02*
X39000D01*
X31893Y36593D02*
X37650Y42350D01*
X31893Y36002D02*
Y36593D01*
X38021Y40400D02*
X39000D01*
X35498Y34605D02*
Y37877D01*
X38021Y40400D01*
X38192Y38492D02*
X38200Y38500D01*
X38192Y36900D02*
Y38492D01*
X37293Y38407D02*
X37986Y39100D01*
X37293Y34600D02*
Y38407D01*
X37986Y39100D02*
X39000D01*
X37950Y39750D02*
X39000D01*
X36393Y38193D02*
X37950Y39750D01*
X36393Y36900D02*
Y38193D01*
X35076Y44950D02*
X39000D01*
X35231Y44300D02*
X39000D01*
X30000Y54225D02*
Y58569D01*
X27500Y54110D02*
X28075Y53535D01*
X34540Y48900D02*
X36540Y46900D01*
X39000D01*
X35190Y46250D02*
X39000D01*
X32540Y48900D02*
X35190Y46250D01*
X34921Y45600D02*
X39000D01*
X31875Y48646D02*
X34921Y45600D01*
X31875Y48646D02*
Y52350D01*
X30000Y54225D02*
X31875Y52350D01*
X31525Y48501D02*
X35076Y44950D01*
X31175Y48356D02*
X35231Y44300D01*
X31525Y48501D02*
Y52205D01*
X30195Y53535D02*
X31525Y52205D01*
X28075Y53535D02*
X30195D01*
X30640Y48396D02*
Y48900D01*
Y48396D02*
X35386Y43650D01*
X39000D01*
X28740Y48900D02*
X34640Y43000D01*
X39000D01*
X23650Y54930D02*
X28740Y49840D01*
Y48900D02*
Y49840D01*
X29975Y50940D02*
Y52725D01*
Y50940D02*
X31175Y49740D01*
Y48356D02*
Y49740D01*
X39025Y47575D02*
Y49750D01*
X39000Y47550D02*
X39025Y47575D01*
X33693Y34605D02*
Y37593D01*
X37800Y41700D01*
X39000D01*
X23650Y57470D02*
X24980Y58800D01*
X29769D01*
X30000Y58569D01*
X38021Y41050D02*
X39000D01*
X34594Y36901D02*
Y37623D01*
X38021Y41050D01*
D21*
X45800Y37925D02*
X50925Y32800D01*
X35925Y12350D02*
X43305Y19730D01*
X20925Y12350D02*
X42800Y34225D01*
X16300Y26100D02*
X32200D01*
X30000Y27400D02*
X31450D01*
X50925Y12350D02*
Y32800D01*
X15000Y27400D02*
X16300Y26100D01*
X41917Y56295D02*
X41922Y56300D01*
X37525Y56295D02*
X41917D01*
X36350Y57470D02*
X37525Y56295D01*
X38890Y57470D02*
X40162Y58742D01*
X41922Y56300D02*
X42650D01*
X45000Y53950D01*
Y27275D02*
Y53950D01*
X40162Y58742D02*
X42383D01*
X45800Y55325D01*
Y37925D02*
Y55325D01*
X32525Y54250D02*
X36150Y50625D01*
X32525Y58125D02*
X33225Y58825D01*
X34375D01*
X35125Y58075D01*
Y56725D02*
Y58075D01*
Y56725D02*
X35650Y56200D01*
X36975D01*
X37650Y55525D01*
Y54275D02*
Y55525D01*
X31270Y54930D02*
X32525Y56185D01*
Y58125D01*
Y54250D02*
Y55619D01*
X32925Y56019D01*
Y56585D01*
X33810Y57470D01*
X37650Y54275D02*
X38175Y53750D01*
X33810Y54930D02*
X35390Y53350D01*
X31450Y27400D02*
X41800Y37750D01*
X32200Y26100D02*
X42300Y36200D01*
X36150Y50625D02*
X40009D01*
X41800Y48834D01*
Y37750D02*
Y48834D01*
X35390Y53350D02*
X38073D01*
X42300Y49123D01*
Y36200D02*
Y49123D01*
X38175Y53750D02*
X38550D01*
X42800Y49500D01*
Y34225D02*
Y49500D01*
X38890Y54930D02*
X40370Y53450D01*
Y52830D02*
Y53450D01*
Y52830D02*
X43305Y49895D01*
Y19730D02*
Y49895D01*
D22*
X41430Y57470D02*
D03*
X36350Y54930D02*
D03*
Y57470D02*
D03*
X38890D02*
D03*
Y54930D02*
D03*
X18570Y57470D02*
D03*
X21110D02*
D03*
Y54930D02*
D03*
X28730Y57470D02*
D03*
X26190Y54930D02*
D03*
Y57470D02*
D03*
X23650D02*
D03*
X28730Y54930D02*
D03*
X23650D02*
D03*
X31270D02*
D03*
X33810Y57470D02*
D03*
Y54930D02*
D03*
X31270Y57470D02*
D03*
X18570Y54930D02*
D03*
D23*
X41430D02*
D03*
D24*
X22380Y52000D02*
D03*
X37620D02*
D03*
D25*
X2350Y57650D02*
D03*
X57650D02*
D03*
X2350Y2350D02*
D03*
X57650D02*
D03*
D26*
X45000Y27275D02*
D03*
X50925Y12350D02*
D03*
X46801Y26699D02*
D03*
X20925Y12350D02*
D03*
X35925D02*
D03*
X30640Y48900D02*
D03*
X31800Y26652D02*
D03*
X30000Y27400D02*
D03*
X15000D02*
D03*
X51725Y55125D02*
D03*
X34594Y36901D02*
D03*
X31893Y36002D02*
D03*
X28740Y48900D02*
D03*
X16751Y26699D02*
D03*
X29975Y52725D02*
D03*
X26800Y50875D02*
D03*
X33700Y34605D02*
D03*
X28700Y48125D02*
D03*
D27*
X39000Y47550D02*
D03*
Y46900D02*
D03*
Y46250D02*
D03*
Y45600D02*
D03*
Y44950D02*
D03*
Y44300D02*
D03*
Y43650D02*
D03*
Y43000D02*
D03*
Y42350D02*
D03*
Y41700D02*
D03*
Y41050D02*
D03*
Y40400D02*
D03*
Y39750D02*
D03*
Y39100D02*
D03*
Y38450D02*
D03*
D28*
X39025Y49750D02*
D03*
X34540Y48900D02*
D03*
X48175Y58425D02*
D03*
X38192Y36900D02*
D03*
X36393D02*
D03*
X37293Y34600D02*
D03*
X35498Y34605D02*
D03*
X32540Y48900D02*
D03*
X16025Y24300D02*
D03*
X31048Y24400D02*
D03*
X46048D02*
D03*
X49300Y13300D02*
D03*
X34275Y13325D02*
D03*
X19275Y13300D02*
D03*
M02*
