%FSLAX43Y43*%
%MOMM*%
G71*
G01*
G75*
G04 Layer_Color=8421504*
%ADD10R,1.500X1.350*%
%ADD11R,0.650X0.800*%
%ADD12R,0.762X0.762*%
%ADD13R,0.600X0.900*%
%ADD14R,1.200X1.200*%
%ADD15R,1.400X0.600*%
%ADD16R,0.400X0.400*%
%ADD17R,0.900X0.600*%
%ADD18R,2.250X1.000*%
%ADD19R,0.800X0.650*%
%ADD20C,0.200*%
%ADD21C,0.250*%
%ADD22C,1.800*%
%ADD23R,1.800X1.800*%
%ADD24C,2.000*%
%ADD25C,3.600*%
%ADD26C,0.550*%
%ADD27R,2.200X0.350*%
%ADD28C,0.800*%
%ADD29C,0.100*%
%ADD30C,0.254*%
%ADD31R,2.100X2.100*%
D10*
X34540Y50100D02*
D03*
Y51750D02*
D03*
X40700Y50100D02*
D03*
Y51750D02*
D03*
D11*
X35000Y13550D02*
D03*
Y12350D02*
D03*
X20000Y13550D02*
D03*
Y12350D02*
D03*
X50000Y13550D02*
D03*
Y12350D02*
D03*
X32540Y51100D02*
D03*
Y49900D02*
D03*
X30640Y51100D02*
D03*
Y49900D02*
D03*
X16750Y25754D02*
D03*
Y24555D02*
D03*
X50900Y56325D02*
D03*
Y55125D02*
D03*
X31800Y24555D02*
D03*
Y25754D02*
D03*
X46800Y24555D02*
D03*
Y25754D02*
D03*
X28740Y51100D02*
D03*
Y49900D02*
D03*
D12*
X38192Y34605D02*
D03*
Y36002D02*
D03*
X36393Y34605D02*
D03*
Y36002D02*
D03*
X34593Y34605D02*
D03*
Y36002D02*
D03*
X32793Y34605D02*
D03*
Y36002D02*
D03*
D13*
X42700Y51150D02*
D03*
Y50050D02*
D03*
X31093Y34864D02*
D03*
Y35964D02*
D03*
X16175Y55650D02*
D03*
Y56750D02*
D03*
D14*
X15000Y23950D02*
D03*
Y26050D02*
D03*
X30000D02*
D03*
Y23950D02*
D03*
X45000Y26050D02*
D03*
Y23950D02*
D03*
D15*
X47550Y55450D02*
D03*
Y57350D02*
D03*
X45650Y56400D02*
D03*
D16*
X49425Y56325D02*
D03*
Y54925D02*
D03*
D17*
X49350Y57725D02*
D03*
X50450D02*
D03*
D18*
X27250Y17000D02*
D03*
X32750D02*
D03*
Y13000D02*
D03*
X27250D02*
D03*
X12250Y17000D02*
D03*
X17750D02*
D03*
Y13000D02*
D03*
X12250D02*
D03*
X42250Y17000D02*
D03*
X47750D02*
D03*
Y13000D02*
D03*
X42250D02*
D03*
D19*
X50500Y59100D02*
D03*
X49300D02*
D03*
D31*
X18570Y54930D02*
D03*
X21110D02*
D03*
X18570Y57470D02*
D03*
X21110D02*
D03*
X23650D02*
D03*
Y54930D02*
D03*
X26190D02*
D03*
Y57470D02*
D03*
X28730Y54930D02*
D03*
Y57470D02*
D03*
X31270D02*
D03*
Y54930D02*
D03*
X33810D02*
D03*
Y57470D02*
D03*
X36350D02*
D03*
Y54930D02*
D03*
X38890D02*
D03*
Y57470D02*
D03*
X41430D02*
D03*
Y54930D02*
D03*
M02*
