%FSLAX43Y43*%
%MOMM*%
G71*
G01*
G75*
G04 Layer_Color=65535*
%ADD10R,1.500X1.350*%
%ADD11R,0.650X0.800*%
%ADD12R,0.762X0.762*%
%ADD13R,0.600X0.900*%
%ADD14R,1.200X1.200*%
%ADD15R,1.400X0.600*%
%ADD16R,0.400X0.400*%
%ADD17R,0.900X0.600*%
%ADD18R,2.250X1.000*%
%ADD19R,0.800X0.650*%
%ADD20C,0.200*%
%ADD21C,0.250*%
%ADD22C,1.800*%
%ADD23R,1.800X1.800*%
%ADD24C,2.000*%
%ADD25C,3.600*%
%ADD26C,0.550*%
%ADD27R,2.200X0.350*%
%ADD28C,0.800*%
%ADD29C,0.100*%
%ADD30C,0.254*%
G36*
X3388Y54941D02*
X3410Y54940D01*
X3437Y54937D01*
X3465Y54935D01*
X3493Y54930D01*
X3520Y54923D01*
X3521D01*
X3522Y54922D01*
X3526Y54921D01*
X3531Y54919D01*
X3545Y54916D01*
X3562Y54908D01*
X3582Y54899D01*
X3602Y54888D01*
X3625Y54874D01*
X3647Y54856D01*
X3648Y54855D01*
X3653Y54850D01*
X3661Y54843D01*
X3670Y54832D01*
X3681Y54819D01*
X3694Y54803D01*
X3706Y54784D01*
X3720Y54761D01*
X3734Y54735D01*
X3747Y54707D01*
X3760Y54676D01*
X3771Y54641D01*
X3780Y54603D01*
X3788Y54563D01*
X3793Y54519D01*
X3794Y54472D01*
Y54471D01*
Y54469D01*
Y54465D01*
Y54458D01*
Y54451D01*
X3793Y54442D01*
Y54422D01*
X3790Y54398D01*
X3788Y54372D01*
X3784Y54344D01*
X3779Y54318D01*
Y54316D01*
X3777Y54315D01*
Y54311D01*
X3776Y54306D01*
X3772Y54292D01*
X3767Y54276D01*
X3761Y54257D01*
X3753Y54235D01*
X3743Y54213D01*
X3733Y54192D01*
X3732Y54189D01*
X3728Y54183D01*
X3720Y54171D01*
X3711Y54159D01*
X3700Y54142D01*
X3687Y54126D01*
X3672Y54108D01*
X3654Y54091D01*
X3653Y54090D01*
X3648Y54086D01*
X3640Y54080D01*
X3630Y54072D01*
X3617Y54063D01*
X3603Y54055D01*
X3587Y54044D01*
X3570Y54037D01*
X3568Y54036D01*
X3563Y54033D01*
X3554Y54030D01*
X3541Y54025D01*
X3527Y54020D01*
X3511Y54017D01*
X3493Y54011D01*
X3474Y54008D01*
X3471D01*
X3465Y54006D01*
X3455Y54005D01*
X3441Y54004D01*
X3423Y54003D01*
X3404Y54001D01*
X3383Y54000D01*
X3101D01*
X3092Y54001D01*
X3080Y54003D01*
X3055Y54006D01*
X3042Y54010D01*
X3031Y54015D01*
X3029Y54017D01*
X3027Y54018D01*
X3022Y54022D01*
X3017Y54027D01*
X3010Y54033D01*
X3005Y54039D01*
X3000Y54048D01*
X2996Y54058D01*
Y54060D01*
X2995Y54063D01*
X2994Y54070D01*
X2993Y54079D01*
X2991Y54090D01*
X2990Y54103D01*
X2989Y54117D01*
Y54133D01*
Y54824D01*
Y54826D01*
Y54827D01*
Y54834D01*
X2990Y54846D01*
X2993Y54859D01*
X2995Y54874D01*
X3000Y54889D01*
X3007Y54903D01*
X3015Y54914D01*
X3017Y54916D01*
X3021Y54918D01*
X3028Y54923D01*
X3037Y54928D01*
X3050Y54933D01*
X3065Y54939D01*
X3083Y54941D01*
X3104Y54942D01*
X3379D01*
X3388Y54941D01*
D02*
G37*
G36*
X50643Y3107D02*
X50696Y3095D01*
X50742Y3084D01*
X50783Y3072D01*
X50812Y3060D01*
X50830Y3055D01*
X50836Y3049D01*
X50935Y2996D01*
X50982Y2967D01*
X51017Y2938D01*
X51052Y2915D01*
X51075Y2891D01*
X51087Y2880D01*
X51092Y2874D01*
X51168Y2786D01*
X51221Y2699D01*
X51244Y2664D01*
X51256Y2635D01*
X51267Y2617D01*
Y2611D01*
X51291Y2553D01*
X51308Y2500D01*
X51320Y2448D01*
X51331Y2396D01*
Y2355D01*
X51337Y2320D01*
Y2296D01*
Y2291D01*
Y1200D01*
X50935D01*
Y2291D01*
X50929Y2355D01*
X50917Y2401D01*
X50906Y2436D01*
X50900Y2442D01*
Y2448D01*
X50877Y2500D01*
X50847Y2541D01*
X50824Y2570D01*
X50812Y2582D01*
X50772Y2623D01*
X50731Y2652D01*
X50696Y2670D01*
X50690Y2675D01*
X50684D01*
X50626Y2693D01*
X50573Y2699D01*
X50550Y2705D01*
X50521D01*
X50463Y2699D01*
X50410Y2693D01*
X50375Y2681D01*
X50369Y2675D01*
X50363D01*
X50317Y2646D01*
X50276Y2617D01*
X50247Y2594D01*
X50235Y2588D01*
Y2582D01*
X50200Y2535D01*
X50171Y2495D01*
X50153Y2460D01*
X50148Y2454D01*
Y2448D01*
X50130Y2396D01*
X50124Y2343D01*
X50118Y2308D01*
Y2296D01*
Y2291D01*
Y1200D01*
X49722D01*
Y2291D01*
X49716Y2355D01*
X49704Y2401D01*
X49693Y2436D01*
X49687Y2442D01*
Y2448D01*
X49658Y2500D01*
X49629Y2541D01*
X49605Y2570D01*
X49594Y2582D01*
X49553Y2623D01*
X49512Y2652D01*
X49477Y2670D01*
X49471Y2675D01*
X49465D01*
X49413Y2693D01*
X49360Y2699D01*
X49325Y2705D01*
X49308D01*
X49244Y2699D01*
X49191Y2693D01*
X49156Y2681D01*
X49150Y2675D01*
X49145D01*
X49098Y2646D01*
X49057Y2617D01*
X49028Y2594D01*
X49016Y2588D01*
Y2582D01*
X48981Y2535D01*
X48952Y2495D01*
X48935Y2460D01*
X48929Y2454D01*
Y2448D01*
X48911Y2396D01*
X48905Y2343D01*
X48900Y2308D01*
Y2296D01*
Y2291D01*
Y1200D01*
X48503D01*
Y2291D01*
X48509Y2355D01*
X48515Y2413D01*
X48526Y2471D01*
X48538Y2518D01*
X48550Y2559D01*
X48556Y2588D01*
X48567Y2605D01*
Y2611D01*
X48620Y2716D01*
X48649Y2763D01*
X48678Y2798D01*
X48701Y2833D01*
X48719Y2856D01*
X48730Y2868D01*
X48736Y2874D01*
X48824Y2950D01*
X48905Y3002D01*
X48940Y3025D01*
X48970Y3037D01*
X48987Y3049D01*
X48993D01*
X49051Y3072D01*
X49104Y3090D01*
X49162Y3101D01*
X49209Y3113D01*
X49250D01*
X49279Y3119D01*
X49308D01*
X49384Y3113D01*
X49448Y3107D01*
X49512Y3090D01*
X49564Y3072D01*
X49611Y3055D01*
X49646Y3043D01*
X49669Y3031D01*
X49675Y3025D01*
X49774Y2961D01*
X49815Y2932D01*
X49850Y2903D01*
X49879Y2874D01*
X49903Y2850D01*
X49914Y2839D01*
X49920Y2833D01*
X49996Y2915D01*
X50078Y2973D01*
X50107Y2996D01*
X50136Y3014D01*
X50153Y3020D01*
X50159Y3025D01*
X50223Y3055D01*
X50288Y3078D01*
X50346Y3095D01*
X50404Y3107D01*
X50451Y3113D01*
X50486Y3119D01*
X50585D01*
X50643Y3107D01*
D02*
G37*
G36*
X54621Y3801D02*
X54661Y3784D01*
X54685Y3760D01*
X54696Y3754D01*
X54726Y3714D01*
X54743Y3673D01*
X54749Y3638D01*
Y3632D01*
Y3626D01*
X54743Y3579D01*
X54726Y3539D01*
X54702Y3515D01*
X54696Y3504D01*
X54656Y3474D01*
X54615Y3463D01*
X54586Y3457D01*
X54574D01*
X54527Y3463D01*
X54492Y3480D01*
X54469Y3498D01*
X54457Y3504D01*
X54428Y3544D01*
X54411Y3585D01*
X54405Y3614D01*
Y3620D01*
Y3626D01*
X54411Y3679D01*
X54434Y3719D01*
X54452Y3743D01*
X54457Y3754D01*
X54498Y3784D01*
X54533Y3801D01*
X54562Y3807D01*
X54574D01*
X54621Y3801D01*
D02*
G37*
G36*
X3388Y5941D02*
X3410Y5940D01*
X3437Y5937D01*
X3465Y5935D01*
X3493Y5930D01*
X3520Y5923D01*
X3521D01*
X3522Y5922D01*
X3526Y5921D01*
X3531Y5919D01*
X3545Y5916D01*
X3562Y5908D01*
X3582Y5899D01*
X3602Y5888D01*
X3625Y5874D01*
X3647Y5856D01*
X3648Y5855D01*
X3653Y5850D01*
X3661Y5843D01*
X3670Y5832D01*
X3681Y5819D01*
X3694Y5803D01*
X3706Y5784D01*
X3720Y5761D01*
X3734Y5735D01*
X3747Y5707D01*
X3760Y5676D01*
X3771Y5641D01*
X3780Y5603D01*
X3788Y5563D01*
X3793Y5519D01*
X3794Y5472D01*
Y5471D01*
Y5469D01*
Y5465D01*
Y5458D01*
Y5451D01*
X3793Y5442D01*
Y5422D01*
X3790Y5398D01*
X3788Y5372D01*
X3784Y5344D01*
X3779Y5318D01*
Y5316D01*
X3777Y5315D01*
Y5311D01*
X3776Y5306D01*
X3772Y5292D01*
X3767Y5276D01*
X3761Y5257D01*
X3753Y5235D01*
X3743Y5213D01*
X3733Y5192D01*
X3732Y5189D01*
X3728Y5183D01*
X3720Y5171D01*
X3711Y5159D01*
X3700Y5142D01*
X3687Y5126D01*
X3672Y5108D01*
X3654Y5091D01*
X3653Y5090D01*
X3648Y5086D01*
X3640Y5080D01*
X3630Y5072D01*
X3617Y5063D01*
X3603Y5055D01*
X3587Y5044D01*
X3570Y5037D01*
X3568Y5036D01*
X3563Y5033D01*
X3554Y5030D01*
X3541Y5025D01*
X3527Y5020D01*
X3511Y5017D01*
X3493Y5011D01*
X3474Y5008D01*
X3471D01*
X3465Y5006D01*
X3455Y5005D01*
X3441Y5004D01*
X3423Y5003D01*
X3404Y5001D01*
X3383Y5000D01*
X3101D01*
X3092Y5001D01*
X3080Y5003D01*
X3055Y5006D01*
X3042Y5010D01*
X3031Y5015D01*
X3029Y5017D01*
X3027Y5018D01*
X3022Y5022D01*
X3017Y5027D01*
X3010Y5033D01*
X3005Y5039D01*
X3000Y5048D01*
X2996Y5058D01*
Y5060D01*
X2995Y5063D01*
X2994Y5070D01*
X2993Y5079D01*
X2991Y5090D01*
X2990Y5103D01*
X2989Y5117D01*
Y5133D01*
Y5824D01*
Y5826D01*
Y5827D01*
Y5834D01*
X2990Y5846D01*
X2993Y5859D01*
X2995Y5874D01*
X3000Y5889D01*
X3007Y5903D01*
X3015Y5914D01*
X3017Y5916D01*
X3021Y5918D01*
X3028Y5923D01*
X3037Y5928D01*
X3050Y5933D01*
X3065Y5939D01*
X3083Y5941D01*
X3104Y5942D01*
X3379D01*
X3388Y5941D01*
D02*
G37*
G36*
X1420Y54958D02*
X1431D01*
X1453Y54956D01*
X1479Y54952D01*
X1507Y54949D01*
X1536Y54942D01*
X1564Y54933D01*
X1565D01*
X1568Y54932D01*
X1571Y54931D01*
X1577Y54928D01*
X1589Y54923D01*
X1607Y54916D01*
X1625Y54907D01*
X1645Y54895D01*
X1665Y54883D01*
X1683Y54869D01*
X1686Y54867D01*
X1691Y54862D01*
X1698Y54855D01*
X1709Y54845D01*
X1720Y54832D01*
X1732Y54818D01*
X1743Y54804D01*
X1752Y54787D01*
X1753Y54786D01*
X1756Y54780D01*
X1759Y54772D01*
X1765Y54762D01*
X1768Y54749D01*
X1772Y54737D01*
X1775Y54724D01*
X1776Y54711D01*
Y54710D01*
Y54705D01*
X1775Y54699D01*
X1772Y54690D01*
X1770Y54679D01*
X1765Y54669D01*
X1758Y54659D01*
X1749Y54649D01*
X1748Y54648D01*
X1744Y54645D01*
X1739Y54641D01*
X1732Y54636D01*
X1721Y54631D01*
X1711Y54627D01*
X1698Y54625D01*
X1685Y54624D01*
X1677D01*
X1672Y54625D01*
X1659Y54627D01*
X1645Y54632D01*
X1644D01*
X1643Y54635D01*
X1634Y54640D01*
X1624Y54649D01*
X1613Y54660D01*
Y54662D01*
X1612Y54663D01*
X1607Y54669D01*
X1601Y54679D01*
X1593Y54692D01*
X1583Y54705D01*
X1573Y54719D01*
X1564Y54733D01*
X1554Y54744D01*
X1552Y54745D01*
X1550Y54749D01*
X1544Y54754D01*
X1536Y54761D01*
X1527Y54768D01*
X1516Y54776D01*
X1503Y54784D01*
X1488Y54791D01*
X1486Y54792D01*
X1480Y54795D01*
X1471Y54798D01*
X1458Y54801D01*
X1443Y54805D01*
X1425Y54809D01*
X1405Y54810D01*
X1382Y54812D01*
X1371D01*
X1358Y54810D01*
X1343Y54809D01*
X1324Y54806D01*
X1305Y54801D01*
X1284Y54796D01*
X1264Y54789D01*
X1262Y54787D01*
X1255Y54785D01*
X1245Y54779D01*
X1234Y54772D01*
X1220Y54762D01*
X1204Y54751D01*
X1189Y54737D01*
X1174Y54721D01*
X1173Y54719D01*
X1168Y54714D01*
X1161Y54705D01*
X1154Y54692D01*
X1145Y54677D01*
X1135Y54658D01*
X1126Y54638D01*
X1118Y54615D01*
Y54613D01*
X1117Y54612D01*
Y54608D01*
X1116Y54603D01*
X1112Y54591D01*
X1109Y54574D01*
X1105Y54554D01*
X1102Y54530D01*
X1100Y54503D01*
X1099Y54475D01*
Y54474D01*
Y54467D01*
Y54458D01*
X1100Y54447D01*
X1102Y54434D01*
X1103Y54418D01*
X1105Y54400D01*
X1108Y54381D01*
X1117Y54339D01*
X1123Y54319D01*
X1131Y54297D01*
X1140Y54277D01*
X1150Y54257D01*
X1161Y54237D01*
X1174Y54220D01*
X1175Y54218D01*
X1178Y54216D01*
X1182Y54212D01*
X1188Y54206D01*
X1196Y54199D01*
X1206Y54192D01*
X1216Y54184D01*
X1230Y54175D01*
X1244Y54168D01*
X1259Y54159D01*
X1277Y54151D01*
X1296Y54145D01*
X1316Y54138D01*
X1339Y54135D01*
X1362Y54132D01*
X1387Y54131D01*
X1399D01*
X1411Y54132D01*
X1428Y54133D01*
X1447Y54135D01*
X1467Y54138D01*
X1489Y54142D01*
X1511Y54147D01*
X1512D01*
X1513Y54149D01*
X1521Y54151D01*
X1532Y54155D01*
X1547Y54160D01*
X1565Y54168D01*
X1585Y54175D01*
X1607Y54185D01*
X1630Y54197D01*
Y54352D01*
X1472D01*
X1464Y54353D01*
X1451Y54354D01*
X1438Y54356D01*
X1424Y54358D01*
X1411Y54362D01*
X1400Y54367D01*
X1399Y54368D01*
X1396Y54371D01*
X1391Y54375D01*
X1387Y54380D01*
X1382Y54387D01*
X1377Y54398D01*
X1375Y54409D01*
X1373Y54422D01*
Y54423D01*
Y54427D01*
X1375Y54433D01*
X1376Y54441D01*
X1378Y54448D01*
X1384Y54457D01*
X1389Y54466D01*
X1396Y54474D01*
X1398Y54475D01*
X1400Y54478D01*
X1405Y54480D01*
X1413Y54485D01*
X1422Y54489D01*
X1432Y54491D01*
X1444Y54494D01*
X1458Y54495D01*
X1690D01*
X1698Y54494D01*
X1710D01*
X1720Y54493D01*
X1743Y54488D01*
X1744D01*
X1748Y54486D01*
X1753Y54484D01*
X1759Y54481D01*
X1766Y54476D01*
X1773Y54471D01*
X1781Y54465D01*
X1787Y54456D01*
X1789Y54455D01*
X1790Y54451D01*
X1792Y54446D01*
X1796Y54438D01*
X1800Y54428D01*
X1803Y54415D01*
X1804Y54400D01*
X1805Y54382D01*
Y54202D01*
Y54201D01*
Y54196D01*
Y54189D01*
X1804Y54180D01*
X1803Y54161D01*
X1800Y54152D01*
X1798Y54144D01*
Y54142D01*
X1796Y54140D01*
X1794Y54136D01*
X1791Y54131D01*
X1784Y54118D01*
X1771Y54104D01*
X1770Y54103D01*
X1767Y54102D01*
X1763Y54098D01*
X1758Y54094D01*
X1751Y54089D01*
X1743Y54084D01*
X1723Y54071D01*
X1721D01*
X1719Y54069D01*
X1714Y54067D01*
X1709Y54063D01*
X1701Y54060D01*
X1692Y54056D01*
X1671Y54046D01*
X1645Y54034D01*
X1617Y54023D01*
X1588Y54013D01*
X1558Y54004D01*
X1556D01*
X1554Y54003D01*
X1550D01*
X1544Y54001D01*
X1536Y53999D01*
X1528Y53997D01*
X1518Y53996D01*
X1507Y53994D01*
X1481Y53990D01*
X1452Y53987D01*
X1420Y53985D01*
X1386Y53983D01*
X1368D01*
X1358Y53985D01*
X1347D01*
X1334Y53986D01*
X1320Y53987D01*
X1290Y53991D01*
X1257Y53997D01*
X1222Y54005D01*
X1188Y54017D01*
X1187D01*
X1184Y54018D01*
X1179Y54020D01*
X1173Y54023D01*
X1165Y54027D01*
X1156Y54030D01*
X1136Y54041D01*
X1112Y54055D01*
X1086Y54071D01*
X1061Y54090D01*
X1036Y54113D01*
X1034Y54114D01*
X1033Y54116D01*
X1029Y54119D01*
X1025Y54124D01*
X1020Y54131D01*
X1014Y54138D01*
X1000Y54156D01*
X985Y54179D01*
X968Y54204D01*
X953Y54234D01*
X939Y54267D01*
Y54268D01*
X938Y54271D01*
X936Y54276D01*
X934Y54283D01*
X931Y54291D01*
X929Y54302D01*
X925Y54314D01*
X923Y54326D01*
X920Y54342D01*
X916Y54357D01*
X911Y54391D01*
X907Y54431D01*
X906Y54471D01*
Y54472D01*
Y54476D01*
Y54481D01*
Y54490D01*
X907Y54499D01*
Y54511D01*
X909Y54523D01*
X910Y54537D01*
X914Y54568D01*
X920Y54602D01*
X928Y54638D01*
X938Y54672D01*
Y54673D01*
X939Y54676D01*
X942Y54681D01*
X944Y54687D01*
X948Y54695D01*
X952Y54704D01*
X962Y54725D01*
X976Y54749D01*
X992Y54776D01*
X1011Y54801D01*
X1034Y54827D01*
X1036Y54828D01*
X1037Y54829D01*
X1041Y54833D01*
X1046Y54837D01*
X1052Y54842D01*
X1060Y54848D01*
X1077Y54862D01*
X1100Y54879D01*
X1127Y54895D01*
X1156Y54911D01*
X1189Y54925D01*
X1190D01*
X1193Y54926D01*
X1198Y54928D01*
X1206Y54930D01*
X1215Y54932D01*
X1225Y54936D01*
X1236Y54939D01*
X1249Y54942D01*
X1264Y54945D01*
X1279Y54947D01*
X1315Y54954D01*
X1354Y54958D01*
X1396Y54959D01*
X1413D01*
X1420Y54958D01*
D02*
G37*
G36*
X2703D02*
X2712Y54955D01*
X2723Y54952D01*
X2734Y54947D01*
X2744Y54940D01*
X2754Y54931D01*
X2755Y54930D01*
X2758Y54926D01*
X2761Y54919D01*
X2767Y54911D01*
X2770Y54898D01*
X2774Y54884D01*
X2777Y54867D01*
X2778Y54848D01*
Y54107D01*
Y54105D01*
Y54102D01*
X2777Y54095D01*
Y54088D01*
X2775Y54079D01*
X2773Y54067D01*
X2765Y54046D01*
X2760Y54033D01*
X2753Y54023D01*
X2745Y54013D01*
X2735Y54003D01*
X2723Y53995D01*
X2709Y53989D01*
X2693Y53985D01*
X2675Y53983D01*
X2666D01*
X2660Y53985D01*
X2645Y53987D01*
X2628Y53991D01*
X2627D01*
X2624Y53992D01*
X2621Y53995D01*
X2615Y53997D01*
X2604Y54004D01*
X2590Y54014D01*
X2589Y54015D01*
X2587Y54017D01*
X2579Y54024D01*
X2568Y54036D01*
X2556Y54051D01*
X2554Y54052D01*
X2553Y54055D01*
X2551Y54058D01*
X2547Y54065D01*
X2537Y54079D01*
X2525Y54095D01*
X2168Y54645D01*
Y54093D01*
Y54090D01*
Y54084D01*
X2167Y54074D01*
X2166Y54062D01*
X2162Y54048D01*
X2158Y54034D01*
X2152Y54022D01*
X2143Y54010D01*
X2142Y54009D01*
X2138Y54006D01*
X2133Y54001D01*
X2125Y53997D01*
X2116Y53992D01*
X2105Y53987D01*
X2092Y53985D01*
X2078Y53983D01*
X2072D01*
X2064Y53985D01*
X2055Y53987D01*
X2045Y53990D01*
X2034Y53995D01*
X2024Y54003D01*
X2013Y54011D01*
X2012Y54013D01*
X2010Y54017D01*
X2006Y54023D01*
X2002Y54032D01*
X1997Y54043D01*
X1993Y54057D01*
X1991Y54074D01*
X1989Y54093D01*
Y54820D01*
Y54823D01*
Y54828D01*
Y54837D01*
X1991Y54847D01*
X1993Y54870D01*
X1996Y54883D01*
X1999Y54893D01*
Y54894D01*
X2002Y54898D01*
X2005Y54903D01*
X2008Y54909D01*
X2015Y54917D01*
X2021Y54925D01*
X2029Y54932D01*
X2039Y54940D01*
X2040Y54941D01*
X2044Y54942D01*
X2050Y54946D01*
X2058Y54950D01*
X2067Y54952D01*
X2077Y54956D01*
X2088Y54958D01*
X2101Y54959D01*
X2110D01*
X2116Y54958D01*
X2130Y54955D01*
X2144Y54950D01*
X2146D01*
X2148Y54949D01*
X2156Y54944D01*
X2166Y54936D01*
X2177Y54927D01*
X2179D01*
X2180Y54925D01*
X2186Y54917D01*
X2195Y54906D01*
X2205Y54890D01*
X2206Y54889D01*
X2208Y54886D01*
X2210Y54883D01*
X2214Y54876D01*
X2224Y54861D01*
X2236Y54843D01*
X2603Y54288D01*
Y54848D01*
Y54850D01*
Y54851D01*
Y54857D01*
X2604Y54867D01*
X2605Y54879D01*
X2608Y54893D01*
X2613Y54907D01*
X2618Y54919D01*
X2626Y54931D01*
X2627Y54932D01*
X2629Y54935D01*
X2634Y54940D01*
X2642Y54945D01*
X2651Y54950D01*
X2662Y54955D01*
X2675Y54958D01*
X2689Y54959D01*
X2695D01*
X2703Y54958D01*
D02*
G37*
G36*
X29269Y53335D02*
X29283Y53333D01*
X29298Y53330D01*
X29313Y53325D01*
X29326Y53318D01*
X29338Y53310D01*
X29339Y53308D01*
X29343Y53305D01*
X29348Y53300D01*
X29353Y53291D01*
X29358Y53281D01*
X29363Y53270D01*
X29366Y53255D01*
X29368Y53240D01*
Y53238D01*
Y53233D01*
X29366Y53225D01*
X29364Y53215D01*
X29361Y53203D01*
X29354Y53191D01*
X29348Y53178D01*
X29338Y53168D01*
X29336Y53166D01*
X29333Y53165D01*
X29326Y53160D01*
X29316Y53156D01*
X29304Y53151D01*
X29289Y53146D01*
X29271Y53145D01*
X29249Y53143D01*
X28686D01*
Y52840D01*
X29214D01*
X29224Y52838D01*
X29238Y52836D01*
X29251Y52833D01*
X29266Y52828D01*
X29279Y52821D01*
X29291Y52813D01*
X29293Y52811D01*
X29296Y52808D01*
X29299Y52803D01*
X29306Y52795D01*
X29311Y52786D01*
X29314Y52775D01*
X29318Y52762D01*
X29319Y52746D01*
Y52745D01*
Y52740D01*
X29318Y52731D01*
X29316Y52722D01*
X29313Y52710D01*
X29308Y52698D01*
X29301Y52687D01*
X29291Y52677D01*
X29289Y52675D01*
X29286Y52673D01*
X29279Y52668D01*
X29269Y52665D01*
X29258Y52660D01*
X29243Y52655D01*
X29224Y52653D01*
X29204Y52652D01*
X28686D01*
Y52298D01*
X29279D01*
X29289Y52297D01*
X29303Y52295D01*
X29316Y52292D01*
X29331Y52287D01*
X29346Y52280D01*
X29358Y52270D01*
X29359Y52268D01*
X29363Y52265D01*
X29368Y52260D01*
X29373Y52252D01*
X29378Y52242D01*
X29383Y52228D01*
X29386Y52215D01*
X29388Y52198D01*
Y52197D01*
Y52192D01*
X29386Y52183D01*
X29384Y52173D01*
X29381Y52162D01*
X29374Y52150D01*
X29368Y52137D01*
X29358Y52127D01*
X29356Y52125D01*
X29353Y52123D01*
X29344Y52118D01*
X29336Y52113D01*
X29323Y52108D01*
X29308Y52105D01*
X29289Y52102D01*
X29269Y52100D01*
X28575D01*
X28560Y52102D01*
X28543Y52105D01*
X28523Y52108D01*
X28505Y52115D01*
X28486Y52123D01*
X28471Y52135D01*
X28470Y52137D01*
X28466Y52142D01*
X28460Y52152D01*
X28455Y52163D01*
X28448Y52180D01*
X28441Y52200D01*
X28438Y52225D01*
X28436Y52253D01*
Y53181D01*
Y53183D01*
Y53191D01*
X28438Y53201D01*
Y53213D01*
X28443Y53241D01*
X28446Y53256D01*
X28451Y53270D01*
X28453Y53271D01*
X28455Y53275D01*
X28458Y53281D01*
X28465Y53290D01*
X28480Y53306D01*
X28490Y53313D01*
X28501Y53320D01*
X28503D01*
X28508Y53323D01*
X28515Y53325D01*
X28525Y53328D01*
X28538Y53331D01*
X28553Y53333D01*
X28570Y53336D01*
X29259D01*
X29269Y53335D01*
D02*
G37*
G36*
X30351Y53356D02*
X30361Y53355D01*
X30374Y53351D01*
X30386Y53346D01*
X30399Y53340D01*
X30411Y53330D01*
X30412Y53328D01*
X30416Y53325D01*
X30421Y53318D01*
X30426Y53311D01*
X30431Y53301D01*
X30436Y53290D01*
X30439Y53276D01*
X30441Y53261D01*
Y53258D01*
X30439Y53251D01*
X30437Y53238D01*
X30432Y53221D01*
X30426Y53200D01*
X30414Y53173D01*
X30397Y53143D01*
X30376Y53108D01*
X30131Y52743D01*
X30394Y52338D01*
X30396Y52337D01*
X30399Y52330D01*
X30406Y52320D01*
X30414Y52308D01*
X30431Y52280D01*
X30439Y52265D01*
X30446Y52252D01*
Y52250D01*
X30449Y52245D01*
X30451Y52238D01*
X30454Y52230D01*
X30459Y52208D01*
X30462Y52185D01*
Y52183D01*
Y52180D01*
Y52175D01*
X30461Y52167D01*
X30456Y52150D01*
X30447Y52130D01*
Y52128D01*
X30444Y52127D01*
X30437Y52117D01*
X30424Y52105D01*
X30406Y52093D01*
X30404D01*
X30401Y52092D01*
X30396Y52088D01*
X30389Y52087D01*
X30371Y52080D01*
X30347Y52078D01*
X30342D01*
X30336Y52080D01*
X30327D01*
X30307Y52085D01*
X30287Y52093D01*
X30286D01*
X30284Y52095D01*
X30272Y52103D01*
X30261Y52113D01*
X30247Y52128D01*
Y52130D01*
X30244Y52133D01*
X30241Y52138D01*
X30234Y52148D01*
X30227Y52160D01*
X30217Y52175D01*
X30206Y52193D01*
X30191Y52215D01*
X29974Y52558D01*
X29743Y52205D01*
X29741Y52203D01*
X29738Y52198D01*
X29734Y52190D01*
X29728Y52182D01*
X29716Y52162D01*
X29709Y52152D01*
X29704Y52145D01*
X29703Y52142D01*
X29696Y52135D01*
X29688Y52125D01*
X29676Y52113D01*
X29673Y52112D01*
X29666Y52105D01*
X29654Y52097D01*
X29639Y52088D01*
X29638D01*
X29636Y52087D01*
X29631Y52085D01*
X29624Y52083D01*
X29608Y52080D01*
X29588Y52078D01*
X29579D01*
X29571Y52080D01*
X29561Y52082D01*
X29548Y52085D01*
X29536Y52090D01*
X29523Y52097D01*
X29511Y52105D01*
X29509Y52107D01*
X29506Y52110D01*
X29503Y52117D01*
X29498Y52127D01*
X29491Y52137D01*
X29488Y52152D01*
X29484Y52168D01*
X29483Y52187D01*
Y52190D01*
X29484Y52198D01*
X29486Y52212D01*
X29491Y52228D01*
X29498Y52252D01*
X29508Y52277D01*
X29523Y52307D01*
X29543Y52338D01*
X29821Y52743D01*
X29588Y53103D01*
X29586Y53105D01*
X29583Y53111D01*
X29576Y53121D01*
X29569Y53133D01*
X29561Y53148D01*
X29553Y53161D01*
X29538Y53191D01*
Y53193D01*
X29534Y53198D01*
X29533Y53205D01*
X29529Y53215D01*
X29524Y53238D01*
X29521Y53265D01*
Y53266D01*
Y53271D01*
X29523Y53278D01*
X29524Y53286D01*
X29529Y53296D01*
X29534Y53308D01*
X29543Y53318D01*
X29553Y53330D01*
X29554Y53331D01*
X29558Y53335D01*
X29566Y53338D01*
X29574Y53345D01*
X29586Y53350D01*
X29599Y53353D01*
X29614Y53356D01*
X29631Y53358D01*
X29639D01*
X29649Y53356D01*
X29661Y53355D01*
X29673Y53350D01*
X29686Y53345D01*
X29699Y53336D01*
X29711Y53326D01*
X29713Y53325D01*
X29716Y53320D01*
X29723Y53311D01*
X29733Y53300D01*
X29744Y53285D01*
X29758Y53265D01*
X29774Y53240D01*
X29793Y53211D01*
X29978Y52911D01*
X30176Y53211D01*
X30177Y53213D01*
X30181Y53218D01*
X30184Y53225D01*
X30191Y53235D01*
X30204Y53255D01*
X30217Y53276D01*
X30219Y53278D01*
X30221Y53281D01*
X30224Y53286D01*
X30229Y53293D01*
X30239Y53308D01*
X30251Y53321D01*
Y53323D01*
X30254Y53325D01*
X30262Y53331D01*
X30274Y53340D01*
X30287Y53348D01*
X30289D01*
X30291Y53350D01*
X30301Y53353D01*
X30316Y53356D01*
X30334Y53358D01*
X30342D01*
X30351Y53356D01*
D02*
G37*
G36*
X15208Y3196D02*
X24246D01*
Y2623D01*
X26901D01*
Y1000D01*
X5300D01*
Y3246D01*
X11775D01*
Y4393D01*
X15208D01*
Y3196D01*
D02*
G37*
G36*
X43873Y55643D02*
X43885Y55640D01*
X43895Y55636D01*
X43908Y55630D01*
X43920Y55621D01*
X43930Y55610D01*
X43932Y55608D01*
X43935Y55603D01*
X43938Y55595D01*
X43945Y55585D01*
X43950Y55571D01*
X43953Y55555D01*
X43957Y55535D01*
X43958Y55513D01*
Y54547D01*
Y54545D01*
Y54540D01*
Y54532D01*
X43957Y54520D01*
X43955Y54508D01*
X43952Y54493D01*
X43943Y54463D01*
X43938Y54447D01*
X43930Y54432D01*
X43920Y54417D01*
X43910Y54405D01*
X43895Y54393D01*
X43880Y54385D01*
X43862Y54380D01*
X43842Y54378D01*
X43833D01*
X43823Y54380D01*
X43812Y54383D01*
X43798Y54387D01*
X43785Y54392D01*
X43772Y54400D01*
X43758Y54412D01*
X43757Y54413D01*
X43753Y54418D01*
X43748Y54427D01*
X43743Y54438D01*
X43738Y54452D01*
X43733Y54470D01*
X43730Y54492D01*
X43728Y54515D01*
Y55283D01*
X43727Y55281D01*
X43718Y55276D01*
X43708Y55268D01*
X43693Y55258D01*
X43677Y55245D01*
X43657Y55231D01*
X43635Y55216D01*
X43612Y55201D01*
X43563Y55170D01*
X43538Y55156D01*
X43515Y55145D01*
X43493Y55133D01*
X43472Y55125D01*
X43453Y55120D01*
X43438Y55118D01*
X43432D01*
X43425Y55120D01*
X43417Y55121D01*
X43408Y55125D01*
X43397Y55130D01*
X43387Y55136D01*
X43375Y55145D01*
X43373Y55146D01*
X43372Y55150D01*
X43367Y55156D01*
X43362Y55163D01*
X43357Y55173D01*
X43353Y55185D01*
X43350Y55198D01*
X43348Y55211D01*
Y55213D01*
Y55218D01*
X43350Y55226D01*
X43352Y55236D01*
X43355Y55246D01*
X43360Y55256D01*
X43367Y55266D01*
X43375Y55275D01*
X43377Y55276D01*
X43380Y55278D01*
X43388Y55283D01*
X43398Y55288D01*
X43412Y55296D01*
X43428Y55305D01*
X43448Y55315D01*
X43472Y55326D01*
X43473D01*
X43477Y55328D01*
X43482Y55331D01*
X43488Y55335D01*
X43507Y55345D01*
X43530Y55358D01*
X43557Y55373D01*
X43583Y55390D01*
X43610Y55408D01*
X43633Y55428D01*
X43637Y55430D01*
X43643Y55438D01*
X43655Y55448D01*
X43670Y55463D01*
X43687Y55480D01*
X43705Y55500D01*
X43723Y55523D01*
X43742Y55546D01*
X43743Y55550D01*
X43750Y55556D01*
X43758Y55568D01*
X43768Y55581D01*
X43778Y55596D01*
X43788Y55610D01*
X43797Y55620D01*
X43803Y55628D01*
X43807Y55631D01*
X43810Y55633D01*
X43817Y55636D01*
X43823Y55640D01*
X43833Y55641D01*
X43845Y55645D01*
X43867D01*
X43873Y55643D01*
D02*
G37*
G36*
X43783Y58118D02*
X43797D01*
X43827Y58115D01*
X43862Y58110D01*
X43898Y58101D01*
X43935Y58091D01*
X43970Y58078D01*
X43973Y58076D01*
X43980Y58073D01*
X43992Y58066D01*
X44005Y58058D01*
X44021Y58048D01*
X44040Y58035D01*
X44058Y58020D01*
X44075Y58003D01*
X44076Y58001D01*
X44081Y57995D01*
X44090Y57985D01*
X44100Y57971D01*
X44111Y57956D01*
X44123Y57938D01*
X44135Y57916D01*
X44145Y57895D01*
X44146Y57891D01*
X44148Y57885D01*
X44153Y57871D01*
X44158Y57856D01*
X44161Y57836D01*
X44166Y57815D01*
X44168Y57791D01*
X44170Y57766D01*
Y57765D01*
Y57761D01*
Y57756D01*
Y57748D01*
X44168Y57740D01*
X44166Y57728D01*
X44163Y57703D01*
X44156Y57673D01*
X44148Y57641D01*
X44135Y57608D01*
X44116Y57575D01*
Y57573D01*
X44115Y57571D01*
X44108Y57561D01*
X44096Y57545D01*
X44083Y57527D01*
X44068Y57505D01*
X44050Y57483D01*
X44030Y57462D01*
X44010Y57442D01*
X44008Y57440D01*
X44000Y57433D01*
X43986Y57422D01*
X43968Y57405D01*
X43943Y57383D01*
X43912Y57357D01*
X43873Y57325D01*
X43853Y57307D01*
X43830Y57288D01*
X43828Y57287D01*
X43825Y57283D01*
X43818Y57278D01*
X43810Y57272D01*
X43800Y57263D01*
X43788Y57253D01*
X43762Y57230D01*
X43732Y57203D01*
X43703Y57177D01*
X43678Y57150D01*
X43667Y57138D01*
X43657Y57127D01*
X43655Y57125D01*
X43653Y57123D01*
X43648Y57118D01*
X43643Y57112D01*
X43630Y57095D01*
X43615Y57073D01*
X44066D01*
X44078Y57072D01*
X44093Y57070D01*
X44108Y57067D01*
X44125Y57062D01*
X44141Y57055D01*
X44155Y57045D01*
X44156Y57043D01*
X44160Y57040D01*
X44166Y57035D01*
X44173Y57027D01*
X44178Y57017D01*
X44185Y57003D01*
X44188Y56990D01*
X44190Y56973D01*
Y56972D01*
Y56967D01*
X44188Y56958D01*
X44186Y56948D01*
X44183Y56938D01*
X44178Y56927D01*
X44171Y56915D01*
X44161Y56903D01*
X44160Y56902D01*
X44156Y56898D01*
X44150Y56895D01*
X44141Y56890D01*
X44130Y56883D01*
X44116Y56880D01*
X44100Y56877D01*
X44080Y56875D01*
X43448D01*
X43437Y56877D01*
X43422Y56880D01*
X43407Y56883D01*
X43390Y56888D01*
X43373Y56897D01*
X43358Y56908D01*
X43357Y56910D01*
X43353Y56915D01*
X43347Y56922D01*
X43342Y56932D01*
X43335Y56943D01*
X43328Y56958D01*
X43325Y56975D01*
X43323Y56992D01*
Y56993D01*
Y56997D01*
X43325Y57003D01*
X43327Y57013D01*
X43328Y57025D01*
X43333Y57038D01*
X43338Y57053D01*
X43347Y57072D01*
X43348Y57073D01*
X43350Y57080D01*
X43355Y57088D01*
X43362Y57100D01*
X43378Y57127D01*
X43387Y57138D01*
X43397Y57150D01*
X43398Y57152D01*
X43402Y57155D01*
X43408Y57162D01*
X43415Y57170D01*
X43425Y57180D01*
X43437Y57192D01*
X43463Y57218D01*
X43495Y57250D01*
X43528Y57283D01*
X43563Y57318D01*
X43598Y57350D01*
X43600Y57352D01*
X43602Y57353D01*
X43607Y57358D01*
X43613Y57363D01*
X43630Y57378D01*
X43648Y57395D01*
X43670Y57413D01*
X43692Y57432D01*
X43712Y57448D01*
X43728Y57460D01*
X43732Y57462D01*
X43740Y57468D01*
X43752Y57478D01*
X43768Y57490D01*
X43787Y57505D01*
X43805Y57521D01*
X43825Y57538D01*
X43843Y57556D01*
X43845Y57558D01*
X43852Y57565D01*
X43860Y57575D01*
X43870Y57588D01*
X43882Y57603D01*
X43893Y57620D01*
X43903Y57640D01*
X43913Y57658D01*
X43915Y57660D01*
X43917Y57668D01*
X43922Y57678D01*
X43927Y57691D01*
X43930Y57706D01*
X43935Y57725D01*
X43937Y57743D01*
X43938Y57761D01*
Y57763D01*
Y57770D01*
X43937Y57780D01*
X43935Y57793D01*
X43932Y57808D01*
X43927Y57825D01*
X43920Y57840D01*
X43912Y57856D01*
X43910Y57858D01*
X43907Y57863D01*
X43902Y57871D01*
X43893Y57881D01*
X43883Y57891D01*
X43872Y57903D01*
X43858Y57913D01*
X43842Y57923D01*
X43840Y57925D01*
X43833Y57926D01*
X43825Y57931D01*
X43813Y57936D01*
X43798Y57940D01*
X43782Y57945D01*
X43763Y57946D01*
X43745Y57948D01*
X43735D01*
X43727Y57946D01*
X43707Y57943D01*
X43682Y57936D01*
X43655Y57925D01*
X43640Y57916D01*
X43625Y57906D01*
X43612Y57895D01*
X43597Y57883D01*
X43583Y57866D01*
X43572Y57850D01*
X43570Y57846D01*
X43568Y57843D01*
X43565Y57836D01*
X43562Y57828D01*
X43557Y57816D01*
X43550Y57801D01*
X43543Y57781D01*
X43542Y57780D01*
X43540Y57771D01*
X43535Y57761D01*
X43530Y57750D01*
X43517Y57720D01*
X43507Y57706D01*
X43498Y57693D01*
X43497Y57691D01*
X43493Y57688D01*
X43488Y57683D01*
X43480Y57678D01*
X43470Y57673D01*
X43457Y57668D01*
X43442Y57665D01*
X43425Y57663D01*
X43418D01*
X43410Y57665D01*
X43400Y57666D01*
X43390Y57670D01*
X43378Y57675D01*
X43367Y57681D01*
X43355Y57691D01*
X43353Y57693D01*
X43350Y57696D01*
X43347Y57703D01*
X43342Y57711D01*
X43335Y57723D01*
X43332Y57736D01*
X43328Y57751D01*
X43327Y57768D01*
Y57771D01*
Y57778D01*
X43328Y57790D01*
X43330Y57805D01*
X43333Y57823D01*
X43338Y57845D01*
X43345Y57866D01*
X43353Y57890D01*
X43355Y57893D01*
X43358Y57900D01*
X43365Y57913D01*
X43373Y57928D01*
X43385Y57945D01*
X43398Y57965D01*
X43413Y57983D01*
X43432Y58003D01*
X43433Y58005D01*
X43442Y58011D01*
X43452Y58021D01*
X43468Y58033D01*
X43487Y58046D01*
X43508Y58060D01*
X43535Y58073D01*
X43563Y58086D01*
X43565D01*
X43567Y58088D01*
X43572Y58090D01*
X43578Y58091D01*
X43595Y58096D01*
X43617Y58103D01*
X43643Y58110D01*
X43677Y58115D01*
X43712Y58118D01*
X43750Y58120D01*
X43772D01*
X43783Y58118D01*
D02*
G37*
G36*
X31457Y53335D02*
X31472Y53333D01*
X31487Y53330D01*
X31504Y53323D01*
X31519Y53316D01*
X31532Y53306D01*
X31534Y53305D01*
X31537Y53301D01*
X31542Y53295D01*
X31549Y53286D01*
X31554Y53276D01*
X31559Y53263D01*
X31562Y53248D01*
X31564Y53231D01*
Y53230D01*
Y53223D01*
X31562Y53215D01*
X31560Y53205D01*
X31555Y53193D01*
X31550Y53180D01*
X31542Y53168D01*
X31530Y53156D01*
X31529Y53155D01*
X31524Y53153D01*
X31517Y53148D01*
X31507Y53143D01*
X31494Y53138D01*
X31477Y53135D01*
X31457Y53131D01*
X31435Y53130D01*
X31162D01*
Y52230D01*
Y52227D01*
Y52217D01*
X31161Y52203D01*
X31157Y52187D01*
X31154Y52168D01*
X31147Y52150D01*
X31139Y52132D01*
X31127Y52115D01*
X31126Y52113D01*
X31121Y52110D01*
X31114Y52103D01*
X31102Y52097D01*
X31091Y52090D01*
X31074Y52083D01*
X31057Y52080D01*
X31037Y52078D01*
X31029D01*
X31017Y52080D01*
X31006Y52083D01*
X30991Y52087D01*
X30976Y52093D01*
X30961Y52103D01*
X30947Y52115D01*
X30946Y52117D01*
X30942Y52122D01*
X30936Y52132D01*
X30931Y52143D01*
X30924Y52160D01*
X30917Y52180D01*
X30914Y52203D01*
X30912Y52230D01*
Y53130D01*
X30627D01*
X30616Y53131D01*
X30602Y53133D01*
X30586Y53136D01*
X30571Y53141D01*
X30556Y53148D01*
X30542Y53156D01*
X30541Y53158D01*
X30537Y53161D01*
X30532Y53168D01*
X30527Y53176D01*
X30521Y53186D01*
X30516Y53200D01*
X30512Y53215D01*
X30511Y53231D01*
Y53233D01*
Y53240D01*
X30512Y53248D01*
X30514Y53260D01*
X30519Y53271D01*
X30524Y53285D01*
X30532Y53296D01*
X30542Y53308D01*
X30544Y53310D01*
X30549Y53313D01*
X30556Y53316D01*
X30567Y53323D01*
X30581Y53328D01*
X30597Y53331D01*
X30616Y53335D01*
X30637Y53336D01*
X31445D01*
X31457Y53335D01*
D02*
G37*
G36*
X46748Y1200D02*
X46363D01*
Y3317D01*
X45546Y2361D01*
X46007D01*
Y1987D01*
X45231D01*
X44555Y1200D01*
X44100D01*
X46299Y3807D01*
X46748D01*
Y1200D01*
D02*
G37*
G36*
X58003Y5958D02*
X58012Y5955D01*
X58023Y5952D01*
X58034Y5947D01*
X58044Y5940D01*
X58054Y5931D01*
X58055Y5930D01*
X58058Y5926D01*
X58061Y5919D01*
X58067Y5911D01*
X58070Y5898D01*
X58074Y5884D01*
X58077Y5867D01*
X58078Y5848D01*
Y5107D01*
Y5105D01*
Y5102D01*
X58077Y5095D01*
Y5088D01*
X58075Y5079D01*
X58073Y5067D01*
X58065Y5046D01*
X58060Y5033D01*
X58053Y5023D01*
X58045Y5013D01*
X58035Y5003D01*
X58023Y4995D01*
X58009Y4989D01*
X57993Y4985D01*
X57975Y4983D01*
X57966D01*
X57960Y4985D01*
X57945Y4987D01*
X57928Y4991D01*
X57927D01*
X57924Y4992D01*
X57921Y4995D01*
X57915Y4997D01*
X57904Y5004D01*
X57890Y5014D01*
X57889Y5015D01*
X57887Y5017D01*
X57879Y5024D01*
X57868Y5036D01*
X57856Y5051D01*
X57854Y5052D01*
X57853Y5055D01*
X57851Y5058D01*
X57847Y5065D01*
X57837Y5079D01*
X57825Y5095D01*
X57468Y5645D01*
Y5093D01*
Y5090D01*
Y5084D01*
X57467Y5074D01*
X57466Y5062D01*
X57462Y5048D01*
X57458Y5034D01*
X57452Y5022D01*
X57443Y5010D01*
X57442Y5009D01*
X57438Y5006D01*
X57433Y5001D01*
X57425Y4997D01*
X57416Y4992D01*
X57405Y4987D01*
X57392Y4985D01*
X57378Y4983D01*
X57372D01*
X57364Y4985D01*
X57355Y4987D01*
X57345Y4990D01*
X57334Y4995D01*
X57324Y5003D01*
X57313Y5011D01*
X57312Y5013D01*
X57310Y5017D01*
X57306Y5023D01*
X57302Y5032D01*
X57297Y5043D01*
X57293Y5057D01*
X57291Y5074D01*
X57289Y5093D01*
Y5820D01*
Y5823D01*
Y5828D01*
Y5837D01*
X57291Y5847D01*
X57293Y5870D01*
X57296Y5883D01*
X57299Y5893D01*
Y5894D01*
X57302Y5898D01*
X57305Y5903D01*
X57308Y5909D01*
X57315Y5917D01*
X57321Y5925D01*
X57329Y5932D01*
X57339Y5940D01*
X57340Y5941D01*
X57344Y5942D01*
X57350Y5946D01*
X57358Y5950D01*
X57367Y5952D01*
X57377Y5956D01*
X57388Y5958D01*
X57401Y5959D01*
X57410D01*
X57416Y5958D01*
X57430Y5955D01*
X57444Y5950D01*
X57446D01*
X57448Y5949D01*
X57456Y5944D01*
X57466Y5936D01*
X57477Y5927D01*
X57479D01*
X57480Y5925D01*
X57486Y5917D01*
X57495Y5906D01*
X57505Y5890D01*
X57506Y5889D01*
X57508Y5886D01*
X57510Y5883D01*
X57514Y5876D01*
X57524Y5861D01*
X57536Y5843D01*
X57903Y5288D01*
Y5848D01*
Y5850D01*
Y5851D01*
Y5857D01*
X57904Y5867D01*
X57905Y5879D01*
X57908Y5893D01*
X57913Y5907D01*
X57918Y5919D01*
X57926Y5931D01*
X57927Y5932D01*
X57929Y5935D01*
X57934Y5940D01*
X57942Y5945D01*
X57951Y5950D01*
X57962Y5955D01*
X57975Y5958D01*
X57989Y5959D01*
X57995D01*
X58003Y5958D01*
D02*
G37*
G36*
X47622Y3090D02*
X48229D01*
Y2699D01*
X47622D01*
Y2005D01*
Y1999D01*
Y1987D01*
Y1970D01*
X47628Y1946D01*
X47634Y1894D01*
X47652Y1836D01*
Y1830D01*
X47657Y1824D01*
X47675Y1789D01*
X47704Y1748D01*
X47745Y1702D01*
X47757Y1690D01*
X47786Y1667D01*
X47827Y1637D01*
X47879Y1608D01*
X47885D01*
X47891Y1602D01*
X47932Y1597D01*
X47984Y1585D01*
X48048Y1579D01*
X48235D01*
Y1194D01*
X48019D01*
X47984Y1200D01*
X47943D01*
X47897Y1206D01*
X47844Y1217D01*
X47727Y1252D01*
X47722Y1258D01*
X47704Y1264D01*
X47675Y1282D01*
X47640Y1299D01*
X47558Y1352D01*
X47471Y1427D01*
X47465Y1433D01*
X47453Y1445D01*
X47430Y1468D01*
X47407Y1503D01*
X47377Y1538D01*
X47348Y1585D01*
X47296Y1684D01*
Y1690D01*
X47284Y1713D01*
X47278Y1742D01*
X47267Y1783D01*
X47255Y1830D01*
X47243Y1882D01*
X47238Y1941D01*
X47232Y2005D01*
Y2699D01*
X47033D01*
Y3090D01*
X47232D01*
Y3807D01*
X47622D01*
Y3090D01*
D02*
G37*
G36*
X58688Y5941D02*
X58710Y5940D01*
X58737Y5937D01*
X58765Y5935D01*
X58793Y5930D01*
X58820Y5923D01*
X58821D01*
X58822Y5922D01*
X58826Y5921D01*
X58831Y5919D01*
X58845Y5916D01*
X58862Y5908D01*
X58882Y5899D01*
X58902Y5888D01*
X58925Y5874D01*
X58947Y5856D01*
X58948Y5855D01*
X58953Y5850D01*
X58961Y5843D01*
X58970Y5832D01*
X58981Y5819D01*
X58994Y5803D01*
X59006Y5784D01*
X59020Y5761D01*
X59034Y5735D01*
X59047Y5707D01*
X59060Y5676D01*
X59071Y5641D01*
X59080Y5603D01*
X59088Y5563D01*
X59093Y5519D01*
X59094Y5472D01*
Y5471D01*
Y5469D01*
Y5465D01*
Y5458D01*
Y5451D01*
X59093Y5442D01*
Y5422D01*
X59090Y5398D01*
X59088Y5372D01*
X59084Y5344D01*
X59079Y5318D01*
Y5316D01*
X59077Y5315D01*
Y5311D01*
X59076Y5306D01*
X59072Y5292D01*
X59067Y5276D01*
X59061Y5257D01*
X59053Y5235D01*
X59043Y5213D01*
X59033Y5192D01*
X59032Y5189D01*
X59028Y5183D01*
X59020Y5171D01*
X59011Y5159D01*
X59000Y5142D01*
X58987Y5126D01*
X58972Y5108D01*
X58954Y5091D01*
X58953Y5090D01*
X58948Y5086D01*
X58940Y5080D01*
X58930Y5072D01*
X58917Y5063D01*
X58903Y5055D01*
X58887Y5044D01*
X58870Y5037D01*
X58868Y5036D01*
X58863Y5033D01*
X58854Y5030D01*
X58841Y5025D01*
X58827Y5020D01*
X58811Y5017D01*
X58793Y5011D01*
X58774Y5008D01*
X58771D01*
X58765Y5006D01*
X58755Y5005D01*
X58741Y5004D01*
X58723Y5003D01*
X58704Y5001D01*
X58683Y5000D01*
X58401D01*
X58392Y5001D01*
X58380Y5003D01*
X58355Y5006D01*
X58342Y5010D01*
X58331Y5015D01*
X58329Y5017D01*
X58327Y5018D01*
X58322Y5022D01*
X58317Y5027D01*
X58310Y5033D01*
X58305Y5039D01*
X58300Y5048D01*
X58296Y5058D01*
Y5060D01*
X58295Y5063D01*
X58294Y5070D01*
X58293Y5079D01*
X58291Y5090D01*
X58290Y5103D01*
X58289Y5117D01*
Y5133D01*
Y5824D01*
Y5826D01*
Y5827D01*
Y5834D01*
X58290Y5846D01*
X58293Y5859D01*
X58295Y5874D01*
X58300Y5889D01*
X58307Y5903D01*
X58315Y5914D01*
X58317Y5916D01*
X58321Y5918D01*
X58328Y5923D01*
X58337Y5928D01*
X58350Y5933D01*
X58365Y5939D01*
X58383Y5941D01*
X58404Y5942D01*
X58679D01*
X58688Y5941D01*
D02*
G37*
G36*
X52638Y3125D02*
X52673Y3119D01*
X52714Y3113D01*
X52819Y3095D01*
X52929Y3060D01*
X53046Y3008D01*
X53104Y2973D01*
X53163Y2932D01*
X53215Y2885D01*
X53268Y2833D01*
Y2827D01*
X53279Y2821D01*
X53291Y2804D01*
X53303Y2786D01*
X53343Y2728D01*
X53390Y2646D01*
X53431Y2547D01*
X53472Y2436D01*
X53495Y2302D01*
X53507Y2156D01*
Y1999D01*
X52025D01*
Y1987D01*
Y1964D01*
X52031Y1923D01*
X52037Y1876D01*
X52055Y1818D01*
X52078Y1760D01*
X52113Y1696D01*
X52165Y1637D01*
X52171Y1632D01*
X52195Y1614D01*
X52230Y1591D01*
X52276Y1562D01*
X52335Y1532D01*
X52405Y1509D01*
X52480Y1492D01*
X52568Y1480D01*
X52614D01*
X52667Y1492D01*
X52731Y1503D01*
X52807Y1527D01*
X52883Y1567D01*
X52953Y1620D01*
X53017Y1690D01*
X53448D01*
X53443Y1678D01*
X53437Y1655D01*
X53413Y1614D01*
X53384Y1567D01*
X53343Y1509D01*
X53291Y1445D01*
X53227Y1381D01*
X53151Y1317D01*
X53139Y1311D01*
X53110Y1293D01*
X53064Y1264D01*
X52994Y1235D01*
X52912Y1206D01*
X52807Y1183D01*
X52690Y1165D01*
X52562Y1153D01*
X52515D01*
X52486Y1159D01*
X52445D01*
X52405Y1171D01*
X52300Y1188D01*
X52183Y1223D01*
X52060Y1270D01*
X51944Y1340D01*
X51891Y1387D01*
X51839Y1433D01*
Y1439D01*
X51827Y1445D01*
X51816Y1462D01*
X51798Y1486D01*
X51781Y1509D01*
X51757Y1544D01*
X51711Y1632D01*
X51664Y1731D01*
X51623Y1859D01*
X51594Y1999D01*
X51588Y2075D01*
X51582Y2156D01*
Y2162D01*
Y2174D01*
Y2197D01*
X51588Y2226D01*
Y2256D01*
X51594Y2296D01*
X51617Y2396D01*
X51646Y2500D01*
X51693Y2617D01*
X51757Y2728D01*
X51792Y2786D01*
X51839Y2839D01*
X51845Y2845D01*
X51851Y2850D01*
X51868Y2868D01*
X51891Y2885D01*
X51915Y2909D01*
X51950Y2932D01*
X52031Y2985D01*
X52136Y3037D01*
X52259Y3084D01*
X52405Y3119D01*
X52480Y3125D01*
X52562Y3130D01*
X52603D01*
X52638Y3125D01*
D02*
G37*
G36*
X59800Y300D02*
X55600D01*
Y4500D01*
X59800D01*
Y300D01*
D02*
G37*
G36*
X56720Y5958D02*
X56731D01*
X56753Y5956D01*
X56779Y5952D01*
X56807Y5949D01*
X56836Y5942D01*
X56864Y5933D01*
X56865D01*
X56868Y5932D01*
X56871Y5931D01*
X56877Y5928D01*
X56889Y5923D01*
X56907Y5916D01*
X56925Y5907D01*
X56945Y5895D01*
X56965Y5883D01*
X56983Y5869D01*
X56986Y5867D01*
X56991Y5862D01*
X56998Y5855D01*
X57009Y5845D01*
X57020Y5832D01*
X57032Y5818D01*
X57043Y5804D01*
X57052Y5787D01*
X57053Y5786D01*
X57056Y5780D01*
X57059Y5772D01*
X57065Y5762D01*
X57068Y5749D01*
X57072Y5737D01*
X57075Y5724D01*
X57076Y5711D01*
Y5710D01*
Y5705D01*
X57075Y5699D01*
X57072Y5690D01*
X57070Y5679D01*
X57065Y5669D01*
X57058Y5659D01*
X57049Y5649D01*
X57048Y5648D01*
X57044Y5645D01*
X57039Y5641D01*
X57032Y5636D01*
X57021Y5631D01*
X57011Y5627D01*
X56998Y5625D01*
X56985Y5624D01*
X56977D01*
X56972Y5625D01*
X56959Y5627D01*
X56945Y5632D01*
X56944D01*
X56943Y5635D01*
X56934Y5640D01*
X56924Y5649D01*
X56913Y5660D01*
Y5662D01*
X56912Y5663D01*
X56907Y5669D01*
X56901Y5679D01*
X56893Y5692D01*
X56883Y5705D01*
X56873Y5719D01*
X56864Y5733D01*
X56854Y5744D01*
X56852Y5745D01*
X56850Y5749D01*
X56844Y5754D01*
X56836Y5761D01*
X56827Y5768D01*
X56816Y5776D01*
X56803Y5784D01*
X56788Y5791D01*
X56786Y5792D01*
X56780Y5795D01*
X56771Y5798D01*
X56758Y5801D01*
X56743Y5805D01*
X56725Y5809D01*
X56705Y5810D01*
X56682Y5812D01*
X56671D01*
X56658Y5810D01*
X56643Y5809D01*
X56624Y5806D01*
X56605Y5801D01*
X56584Y5796D01*
X56564Y5789D01*
X56562Y5787D01*
X56555Y5785D01*
X56545Y5779D01*
X56534Y5772D01*
X56520Y5762D01*
X56504Y5751D01*
X56489Y5737D01*
X56474Y5721D01*
X56473Y5719D01*
X56468Y5714D01*
X56461Y5705D01*
X56454Y5692D01*
X56445Y5677D01*
X56435Y5658D01*
X56426Y5638D01*
X56418Y5615D01*
Y5613D01*
X56417Y5612D01*
Y5608D01*
X56416Y5603D01*
X56412Y5591D01*
X56409Y5574D01*
X56405Y5554D01*
X56402Y5530D01*
X56400Y5503D01*
X56399Y5475D01*
Y5474D01*
Y5467D01*
Y5458D01*
X56400Y5447D01*
X56402Y5434D01*
X56403Y5418D01*
X56405Y5400D01*
X56408Y5381D01*
X56417Y5339D01*
X56423Y5319D01*
X56431Y5297D01*
X56440Y5277D01*
X56450Y5257D01*
X56461Y5237D01*
X56474Y5220D01*
X56475Y5218D01*
X56478Y5216D01*
X56482Y5212D01*
X56488Y5206D01*
X56496Y5199D01*
X56506Y5192D01*
X56516Y5184D01*
X56530Y5175D01*
X56544Y5168D01*
X56559Y5159D01*
X56577Y5151D01*
X56596Y5145D01*
X56616Y5138D01*
X56639Y5135D01*
X56662Y5132D01*
X56687Y5131D01*
X56699D01*
X56711Y5132D01*
X56728Y5133D01*
X56747Y5135D01*
X56767Y5138D01*
X56789Y5142D01*
X56811Y5147D01*
X56812D01*
X56813Y5149D01*
X56821Y5151D01*
X56832Y5155D01*
X56847Y5160D01*
X56865Y5168D01*
X56885Y5175D01*
X56907Y5185D01*
X56930Y5197D01*
Y5352D01*
X56772D01*
X56764Y5353D01*
X56751Y5354D01*
X56738Y5356D01*
X56724Y5358D01*
X56711Y5362D01*
X56700Y5367D01*
X56699Y5368D01*
X56696Y5371D01*
X56691Y5375D01*
X56687Y5380D01*
X56682Y5387D01*
X56677Y5398D01*
X56675Y5409D01*
X56673Y5422D01*
Y5423D01*
Y5427D01*
X56675Y5433D01*
X56676Y5441D01*
X56678Y5448D01*
X56684Y5457D01*
X56689Y5466D01*
X56696Y5474D01*
X56697Y5475D01*
X56700Y5478D01*
X56705Y5480D01*
X56713Y5485D01*
X56722Y5489D01*
X56732Y5491D01*
X56744Y5494D01*
X56758Y5495D01*
X56990D01*
X56998Y5494D01*
X57010D01*
X57020Y5493D01*
X57043Y5488D01*
X57044D01*
X57048Y5486D01*
X57053Y5484D01*
X57059Y5481D01*
X57066Y5476D01*
X57073Y5471D01*
X57081Y5465D01*
X57087Y5456D01*
X57089Y5455D01*
X57090Y5451D01*
X57092Y5446D01*
X57096Y5438D01*
X57100Y5428D01*
X57103Y5415D01*
X57104Y5400D01*
X57105Y5382D01*
Y5202D01*
Y5201D01*
Y5196D01*
Y5189D01*
X57104Y5180D01*
X57103Y5161D01*
X57100Y5152D01*
X57098Y5144D01*
Y5142D01*
X57096Y5140D01*
X57094Y5136D01*
X57091Y5131D01*
X57084Y5118D01*
X57071Y5104D01*
X57070Y5103D01*
X57067Y5102D01*
X57063Y5098D01*
X57058Y5094D01*
X57051Y5089D01*
X57043Y5084D01*
X57023Y5071D01*
X57021D01*
X57019Y5069D01*
X57014Y5067D01*
X57009Y5063D01*
X57001Y5060D01*
X56992Y5056D01*
X56971Y5046D01*
X56945Y5034D01*
X56917Y5023D01*
X56888Y5013D01*
X56858Y5004D01*
X56856D01*
X56854Y5003D01*
X56850D01*
X56844Y5001D01*
X56836Y4999D01*
X56828Y4997D01*
X56818Y4996D01*
X56807Y4994D01*
X56781Y4990D01*
X56752Y4987D01*
X56720Y4985D01*
X56686Y4983D01*
X56668D01*
X56658Y4985D01*
X56647D01*
X56634Y4986D01*
X56620Y4987D01*
X56590Y4991D01*
X56557Y4997D01*
X56522Y5005D01*
X56488Y5017D01*
X56487D01*
X56484Y5018D01*
X56479Y5020D01*
X56473Y5023D01*
X56465Y5027D01*
X56456Y5030D01*
X56436Y5041D01*
X56412Y5055D01*
X56386Y5071D01*
X56361Y5090D01*
X56336Y5113D01*
X56334Y5114D01*
X56333Y5116D01*
X56329Y5119D01*
X56325Y5124D01*
X56320Y5131D01*
X56314Y5138D01*
X56300Y5156D01*
X56285Y5179D01*
X56268Y5204D01*
X56253Y5234D01*
X56239Y5267D01*
Y5268D01*
X56238Y5271D01*
X56236Y5276D01*
X56234Y5283D01*
X56231Y5291D01*
X56229Y5302D01*
X56225Y5314D01*
X56223Y5326D01*
X56220Y5342D01*
X56216Y5357D01*
X56211Y5391D01*
X56207Y5431D01*
X56206Y5471D01*
Y5472D01*
Y5476D01*
Y5481D01*
Y5490D01*
X56207Y5499D01*
Y5511D01*
X56209Y5523D01*
X56210Y5537D01*
X56214Y5568D01*
X56220Y5602D01*
X56228Y5638D01*
X56238Y5672D01*
Y5673D01*
X56239Y5676D01*
X56242Y5681D01*
X56244Y5687D01*
X56248Y5695D01*
X56252Y5704D01*
X56262Y5725D01*
X56276Y5749D01*
X56292Y5776D01*
X56311Y5801D01*
X56334Y5827D01*
X56336Y5828D01*
X56337Y5829D01*
X56341Y5833D01*
X56346Y5837D01*
X56352Y5842D01*
X56360Y5848D01*
X56377Y5862D01*
X56400Y5879D01*
X56427Y5895D01*
X56456Y5911D01*
X56489Y5925D01*
X56490D01*
X56493Y5926D01*
X56498Y5928D01*
X56506Y5930D01*
X56515Y5932D01*
X56525Y5936D01*
X56536Y5939D01*
X56549Y5942D01*
X56564Y5945D01*
X56579Y5947D01*
X56615Y5954D01*
X56654Y5958D01*
X56696Y5959D01*
X56713D01*
X56720Y5958D01*
D02*
G37*
G36*
Y54958D02*
X56731D01*
X56753Y54956D01*
X56779Y54952D01*
X56807Y54949D01*
X56836Y54942D01*
X56864Y54933D01*
X56865D01*
X56868Y54932D01*
X56871Y54931D01*
X56877Y54928D01*
X56889Y54923D01*
X56907Y54916D01*
X56925Y54907D01*
X56945Y54895D01*
X56965Y54883D01*
X56983Y54869D01*
X56986Y54867D01*
X56991Y54862D01*
X56998Y54855D01*
X57009Y54845D01*
X57020Y54832D01*
X57032Y54818D01*
X57043Y54804D01*
X57052Y54787D01*
X57053Y54786D01*
X57056Y54780D01*
X57059Y54772D01*
X57065Y54762D01*
X57068Y54749D01*
X57072Y54737D01*
X57075Y54724D01*
X57076Y54711D01*
Y54710D01*
Y54705D01*
X57075Y54699D01*
X57072Y54690D01*
X57070Y54679D01*
X57065Y54669D01*
X57058Y54659D01*
X57049Y54649D01*
X57048Y54648D01*
X57044Y54645D01*
X57039Y54641D01*
X57032Y54636D01*
X57021Y54631D01*
X57011Y54627D01*
X56998Y54625D01*
X56985Y54624D01*
X56977D01*
X56972Y54625D01*
X56959Y54627D01*
X56945Y54632D01*
X56944D01*
X56943Y54635D01*
X56934Y54640D01*
X56924Y54649D01*
X56913Y54660D01*
Y54662D01*
X56912Y54663D01*
X56907Y54669D01*
X56901Y54679D01*
X56893Y54692D01*
X56883Y54705D01*
X56873Y54719D01*
X56864Y54733D01*
X56854Y54744D01*
X56852Y54745D01*
X56850Y54749D01*
X56844Y54754D01*
X56836Y54761D01*
X56827Y54768D01*
X56816Y54776D01*
X56803Y54784D01*
X56788Y54791D01*
X56786Y54792D01*
X56780Y54795D01*
X56771Y54798D01*
X56758Y54801D01*
X56743Y54805D01*
X56725Y54809D01*
X56705Y54810D01*
X56682Y54812D01*
X56671D01*
X56658Y54810D01*
X56643Y54809D01*
X56624Y54806D01*
X56605Y54801D01*
X56584Y54796D01*
X56564Y54789D01*
X56562Y54787D01*
X56555Y54785D01*
X56545Y54779D01*
X56534Y54772D01*
X56520Y54762D01*
X56504Y54751D01*
X56489Y54737D01*
X56474Y54721D01*
X56473Y54719D01*
X56468Y54714D01*
X56461Y54705D01*
X56454Y54692D01*
X56445Y54677D01*
X56435Y54658D01*
X56426Y54638D01*
X56418Y54615D01*
Y54613D01*
X56417Y54612D01*
Y54608D01*
X56416Y54603D01*
X56412Y54591D01*
X56409Y54574D01*
X56405Y54554D01*
X56402Y54530D01*
X56400Y54503D01*
X56399Y54475D01*
Y54474D01*
Y54467D01*
Y54458D01*
X56400Y54447D01*
X56402Y54434D01*
X56403Y54418D01*
X56405Y54400D01*
X56408Y54381D01*
X56417Y54339D01*
X56423Y54319D01*
X56431Y54297D01*
X56440Y54277D01*
X56450Y54257D01*
X56461Y54237D01*
X56474Y54220D01*
X56475Y54218D01*
X56478Y54216D01*
X56482Y54212D01*
X56488Y54206D01*
X56496Y54199D01*
X56506Y54192D01*
X56516Y54184D01*
X56530Y54175D01*
X56544Y54168D01*
X56559Y54159D01*
X56577Y54151D01*
X56596Y54145D01*
X56616Y54138D01*
X56639Y54135D01*
X56662Y54132D01*
X56687Y54131D01*
X56699D01*
X56711Y54132D01*
X56728Y54133D01*
X56747Y54135D01*
X56767Y54138D01*
X56789Y54142D01*
X56811Y54147D01*
X56812D01*
X56813Y54149D01*
X56821Y54151D01*
X56832Y54155D01*
X56847Y54160D01*
X56865Y54168D01*
X56885Y54175D01*
X56907Y54185D01*
X56930Y54197D01*
Y54352D01*
X56772D01*
X56764Y54353D01*
X56751Y54354D01*
X56738Y54356D01*
X56724Y54358D01*
X56711Y54362D01*
X56700Y54367D01*
X56699Y54368D01*
X56696Y54371D01*
X56691Y54375D01*
X56687Y54380D01*
X56682Y54387D01*
X56677Y54398D01*
X56675Y54409D01*
X56673Y54422D01*
Y54423D01*
Y54427D01*
X56675Y54433D01*
X56676Y54441D01*
X56678Y54448D01*
X56684Y54457D01*
X56689Y54466D01*
X56696Y54474D01*
X56697Y54475D01*
X56700Y54478D01*
X56705Y54480D01*
X56713Y54485D01*
X56722Y54489D01*
X56732Y54491D01*
X56744Y54494D01*
X56758Y54495D01*
X56990D01*
X56998Y54494D01*
X57010D01*
X57020Y54493D01*
X57043Y54488D01*
X57044D01*
X57048Y54486D01*
X57053Y54484D01*
X57059Y54481D01*
X57066Y54476D01*
X57073Y54471D01*
X57081Y54465D01*
X57087Y54456D01*
X57089Y54455D01*
X57090Y54451D01*
X57092Y54446D01*
X57096Y54438D01*
X57100Y54428D01*
X57103Y54415D01*
X57104Y54400D01*
X57105Y54382D01*
Y54202D01*
Y54201D01*
Y54196D01*
Y54189D01*
X57104Y54180D01*
X57103Y54161D01*
X57100Y54152D01*
X57098Y54144D01*
Y54142D01*
X57096Y54140D01*
X57094Y54136D01*
X57091Y54131D01*
X57084Y54118D01*
X57071Y54104D01*
X57070Y54103D01*
X57067Y54102D01*
X57063Y54098D01*
X57058Y54094D01*
X57051Y54089D01*
X57043Y54084D01*
X57023Y54071D01*
X57021D01*
X57019Y54069D01*
X57014Y54067D01*
X57009Y54063D01*
X57001Y54060D01*
X56992Y54056D01*
X56971Y54046D01*
X56945Y54034D01*
X56917Y54023D01*
X56888Y54013D01*
X56858Y54004D01*
X56856D01*
X56854Y54003D01*
X56850D01*
X56844Y54001D01*
X56836Y53999D01*
X56828Y53997D01*
X56818Y53996D01*
X56807Y53994D01*
X56781Y53990D01*
X56752Y53987D01*
X56720Y53985D01*
X56686Y53983D01*
X56668D01*
X56658Y53985D01*
X56647D01*
X56634Y53986D01*
X56620Y53987D01*
X56590Y53991D01*
X56557Y53997D01*
X56522Y54005D01*
X56488Y54017D01*
X56487D01*
X56484Y54018D01*
X56479Y54020D01*
X56473Y54023D01*
X56465Y54027D01*
X56456Y54030D01*
X56436Y54041D01*
X56412Y54055D01*
X56386Y54071D01*
X56361Y54090D01*
X56336Y54113D01*
X56334Y54114D01*
X56333Y54116D01*
X56329Y54119D01*
X56325Y54124D01*
X56320Y54131D01*
X56314Y54138D01*
X56300Y54156D01*
X56285Y54179D01*
X56268Y54204D01*
X56253Y54234D01*
X56239Y54267D01*
Y54268D01*
X56238Y54271D01*
X56236Y54276D01*
X56234Y54283D01*
X56231Y54291D01*
X56229Y54302D01*
X56225Y54314D01*
X56223Y54326D01*
X56220Y54342D01*
X56216Y54357D01*
X56211Y54391D01*
X56207Y54431D01*
X56206Y54471D01*
Y54472D01*
Y54476D01*
Y54481D01*
Y54490D01*
X56207Y54499D01*
Y54511D01*
X56209Y54523D01*
X56210Y54537D01*
X56214Y54568D01*
X56220Y54602D01*
X56228Y54638D01*
X56238Y54672D01*
Y54673D01*
X56239Y54676D01*
X56242Y54681D01*
X56244Y54687D01*
X56248Y54695D01*
X56252Y54704D01*
X56262Y54725D01*
X56276Y54749D01*
X56292Y54776D01*
X56311Y54801D01*
X56334Y54827D01*
X56336Y54828D01*
X56337Y54829D01*
X56341Y54833D01*
X56346Y54837D01*
X56352Y54842D01*
X56360Y54848D01*
X56377Y54862D01*
X56400Y54879D01*
X56427Y54895D01*
X56456Y54911D01*
X56489Y54925D01*
X56490D01*
X56493Y54926D01*
X56498Y54928D01*
X56506Y54930D01*
X56515Y54932D01*
X56525Y54936D01*
X56536Y54939D01*
X56549Y54942D01*
X56564Y54945D01*
X56579Y54947D01*
X56615Y54954D01*
X56654Y54958D01*
X56696Y54959D01*
X56713D01*
X56720Y54958D01*
D02*
G37*
G36*
X1420Y5958D02*
X1431D01*
X1453Y5956D01*
X1479Y5952D01*
X1507Y5949D01*
X1536Y5942D01*
X1564Y5933D01*
X1565D01*
X1568Y5932D01*
X1571Y5931D01*
X1577Y5928D01*
X1589Y5923D01*
X1607Y5916D01*
X1625Y5907D01*
X1645Y5895D01*
X1665Y5883D01*
X1683Y5869D01*
X1686Y5867D01*
X1691Y5862D01*
X1698Y5855D01*
X1709Y5845D01*
X1720Y5832D01*
X1732Y5818D01*
X1743Y5804D01*
X1752Y5787D01*
X1753Y5786D01*
X1756Y5780D01*
X1759Y5772D01*
X1765Y5762D01*
X1768Y5749D01*
X1772Y5737D01*
X1775Y5724D01*
X1776Y5711D01*
Y5710D01*
Y5705D01*
X1775Y5699D01*
X1772Y5690D01*
X1770Y5679D01*
X1765Y5669D01*
X1758Y5659D01*
X1749Y5649D01*
X1748Y5648D01*
X1744Y5645D01*
X1739Y5641D01*
X1732Y5636D01*
X1721Y5631D01*
X1711Y5627D01*
X1698Y5625D01*
X1685Y5624D01*
X1677D01*
X1672Y5625D01*
X1659Y5627D01*
X1645Y5632D01*
X1644D01*
X1643Y5635D01*
X1634Y5640D01*
X1624Y5649D01*
X1613Y5660D01*
Y5662D01*
X1612Y5663D01*
X1607Y5669D01*
X1601Y5679D01*
X1593Y5692D01*
X1583Y5705D01*
X1573Y5719D01*
X1564Y5733D01*
X1554Y5744D01*
X1552Y5745D01*
X1550Y5749D01*
X1544Y5754D01*
X1536Y5761D01*
X1527Y5768D01*
X1516Y5776D01*
X1503Y5784D01*
X1488Y5791D01*
X1486Y5792D01*
X1480Y5795D01*
X1471Y5798D01*
X1458Y5801D01*
X1443Y5805D01*
X1425Y5809D01*
X1405Y5810D01*
X1382Y5812D01*
X1371D01*
X1358Y5810D01*
X1343Y5809D01*
X1324Y5806D01*
X1305Y5801D01*
X1284Y5796D01*
X1264Y5789D01*
X1262Y5787D01*
X1255Y5785D01*
X1245Y5779D01*
X1234Y5772D01*
X1220Y5762D01*
X1204Y5751D01*
X1189Y5737D01*
X1174Y5721D01*
X1173Y5719D01*
X1168Y5714D01*
X1161Y5705D01*
X1154Y5692D01*
X1145Y5677D01*
X1135Y5658D01*
X1126Y5638D01*
X1118Y5615D01*
Y5613D01*
X1117Y5612D01*
Y5608D01*
X1116Y5603D01*
X1112Y5591D01*
X1109Y5574D01*
X1105Y5554D01*
X1102Y5530D01*
X1100Y5503D01*
X1099Y5475D01*
Y5474D01*
Y5467D01*
Y5458D01*
X1100Y5447D01*
X1102Y5434D01*
X1103Y5418D01*
X1105Y5400D01*
X1108Y5381D01*
X1117Y5339D01*
X1123Y5319D01*
X1131Y5297D01*
X1140Y5277D01*
X1150Y5257D01*
X1161Y5237D01*
X1174Y5220D01*
X1175Y5218D01*
X1178Y5216D01*
X1182Y5212D01*
X1188Y5206D01*
X1196Y5199D01*
X1206Y5192D01*
X1216Y5184D01*
X1230Y5175D01*
X1244Y5168D01*
X1259Y5159D01*
X1277Y5151D01*
X1296Y5145D01*
X1316Y5138D01*
X1339Y5135D01*
X1362Y5132D01*
X1387Y5131D01*
X1399D01*
X1411Y5132D01*
X1428Y5133D01*
X1447Y5135D01*
X1467Y5138D01*
X1489Y5142D01*
X1511Y5147D01*
X1512D01*
X1513Y5149D01*
X1521Y5151D01*
X1532Y5155D01*
X1547Y5160D01*
X1565Y5168D01*
X1585Y5175D01*
X1607Y5185D01*
X1630Y5197D01*
Y5352D01*
X1472D01*
X1464Y5353D01*
X1451Y5354D01*
X1438Y5356D01*
X1424Y5358D01*
X1411Y5362D01*
X1400Y5367D01*
X1399Y5368D01*
X1396Y5371D01*
X1391Y5375D01*
X1387Y5380D01*
X1382Y5387D01*
X1377Y5398D01*
X1375Y5409D01*
X1373Y5422D01*
Y5423D01*
Y5427D01*
X1375Y5433D01*
X1376Y5441D01*
X1378Y5448D01*
X1384Y5457D01*
X1389Y5466D01*
X1396Y5474D01*
X1398Y5475D01*
X1400Y5478D01*
X1405Y5480D01*
X1413Y5485D01*
X1422Y5489D01*
X1432Y5491D01*
X1444Y5494D01*
X1458Y5495D01*
X1690D01*
X1698Y5494D01*
X1710D01*
X1720Y5493D01*
X1743Y5488D01*
X1744D01*
X1748Y5486D01*
X1753Y5484D01*
X1759Y5481D01*
X1766Y5476D01*
X1773Y5471D01*
X1781Y5465D01*
X1787Y5456D01*
X1789Y5455D01*
X1790Y5451D01*
X1792Y5446D01*
X1796Y5438D01*
X1800Y5428D01*
X1803Y5415D01*
X1804Y5400D01*
X1805Y5382D01*
Y5202D01*
Y5201D01*
Y5196D01*
Y5189D01*
X1804Y5180D01*
X1803Y5161D01*
X1800Y5152D01*
X1798Y5144D01*
Y5142D01*
X1796Y5140D01*
X1794Y5136D01*
X1791Y5131D01*
X1784Y5118D01*
X1771Y5104D01*
X1770Y5103D01*
X1767Y5102D01*
X1763Y5098D01*
X1758Y5094D01*
X1751Y5089D01*
X1743Y5084D01*
X1723Y5071D01*
X1721D01*
X1719Y5069D01*
X1714Y5067D01*
X1709Y5063D01*
X1701Y5060D01*
X1692Y5056D01*
X1671Y5046D01*
X1645Y5034D01*
X1617Y5023D01*
X1588Y5013D01*
X1558Y5004D01*
X1556D01*
X1554Y5003D01*
X1550D01*
X1544Y5001D01*
X1536Y4999D01*
X1528Y4997D01*
X1518Y4996D01*
X1507Y4994D01*
X1481Y4990D01*
X1452Y4987D01*
X1420Y4985D01*
X1386Y4983D01*
X1368D01*
X1358Y4985D01*
X1347D01*
X1334Y4986D01*
X1320Y4987D01*
X1290Y4991D01*
X1257Y4997D01*
X1222Y5005D01*
X1188Y5017D01*
X1187D01*
X1184Y5018D01*
X1179Y5020D01*
X1173Y5023D01*
X1165Y5027D01*
X1156Y5030D01*
X1136Y5041D01*
X1112Y5055D01*
X1086Y5071D01*
X1061Y5090D01*
X1036Y5113D01*
X1034Y5114D01*
X1033Y5116D01*
X1029Y5119D01*
X1025Y5124D01*
X1020Y5131D01*
X1014Y5138D01*
X1000Y5156D01*
X985Y5179D01*
X968Y5204D01*
X953Y5234D01*
X939Y5267D01*
Y5268D01*
X938Y5271D01*
X936Y5276D01*
X934Y5283D01*
X931Y5291D01*
X929Y5302D01*
X925Y5314D01*
X923Y5326D01*
X920Y5342D01*
X916Y5357D01*
X911Y5391D01*
X907Y5431D01*
X906Y5471D01*
Y5472D01*
Y5476D01*
Y5481D01*
Y5490D01*
X907Y5499D01*
Y5511D01*
X909Y5523D01*
X910Y5537D01*
X914Y5568D01*
X920Y5602D01*
X928Y5638D01*
X938Y5672D01*
Y5673D01*
X939Y5676D01*
X942Y5681D01*
X944Y5687D01*
X948Y5695D01*
X952Y5704D01*
X962Y5725D01*
X976Y5749D01*
X992Y5776D01*
X1011Y5801D01*
X1034Y5827D01*
X1036Y5828D01*
X1037Y5829D01*
X1041Y5833D01*
X1046Y5837D01*
X1052Y5842D01*
X1060Y5848D01*
X1077Y5862D01*
X1100Y5879D01*
X1127Y5895D01*
X1156Y5911D01*
X1189Y5925D01*
X1190D01*
X1193Y5926D01*
X1198Y5928D01*
X1206Y5930D01*
X1215Y5932D01*
X1225Y5936D01*
X1236Y5939D01*
X1249Y5942D01*
X1264Y5945D01*
X1279Y5947D01*
X1315Y5954D01*
X1354Y5958D01*
X1396Y5959D01*
X1413D01*
X1420Y5958D01*
D02*
G37*
G36*
X58688Y54941D02*
X58710Y54940D01*
X58737Y54937D01*
X58765Y54935D01*
X58793Y54930D01*
X58820Y54923D01*
X58821D01*
X58822Y54922D01*
X58826Y54921D01*
X58831Y54919D01*
X58845Y54916D01*
X58862Y54908D01*
X58882Y54899D01*
X58902Y54888D01*
X58925Y54874D01*
X58947Y54856D01*
X58948Y54855D01*
X58953Y54850D01*
X58961Y54843D01*
X58970Y54832D01*
X58981Y54819D01*
X58994Y54803D01*
X59006Y54784D01*
X59020Y54761D01*
X59034Y54735D01*
X59047Y54707D01*
X59060Y54676D01*
X59071Y54641D01*
X59080Y54603D01*
X59088Y54563D01*
X59093Y54519D01*
X59094Y54472D01*
Y54471D01*
Y54469D01*
Y54465D01*
Y54458D01*
Y54451D01*
X59093Y54442D01*
Y54422D01*
X59090Y54398D01*
X59088Y54372D01*
X59084Y54344D01*
X59079Y54318D01*
Y54316D01*
X59077Y54315D01*
Y54311D01*
X59076Y54306D01*
X59072Y54292D01*
X59067Y54276D01*
X59061Y54257D01*
X59053Y54235D01*
X59043Y54213D01*
X59033Y54192D01*
X59032Y54189D01*
X59028Y54183D01*
X59020Y54171D01*
X59011Y54159D01*
X59000Y54142D01*
X58987Y54126D01*
X58972Y54108D01*
X58954Y54091D01*
X58953Y54090D01*
X58948Y54086D01*
X58940Y54080D01*
X58930Y54072D01*
X58917Y54063D01*
X58903Y54055D01*
X58887Y54044D01*
X58870Y54037D01*
X58868Y54036D01*
X58863Y54033D01*
X58854Y54030D01*
X58841Y54025D01*
X58827Y54020D01*
X58811Y54017D01*
X58793Y54011D01*
X58774Y54008D01*
X58771D01*
X58765Y54006D01*
X58755Y54005D01*
X58741Y54004D01*
X58723Y54003D01*
X58704Y54001D01*
X58683Y54000D01*
X58401D01*
X58392Y54001D01*
X58380Y54003D01*
X58355Y54006D01*
X58342Y54010D01*
X58331Y54015D01*
X58329Y54017D01*
X58327Y54018D01*
X58322Y54022D01*
X58317Y54027D01*
X58310Y54033D01*
X58305Y54039D01*
X58300Y54048D01*
X58296Y54058D01*
Y54060D01*
X58295Y54063D01*
X58294Y54070D01*
X58293Y54079D01*
X58291Y54090D01*
X58290Y54103D01*
X58289Y54117D01*
Y54133D01*
Y54824D01*
Y54826D01*
Y54827D01*
Y54834D01*
X58290Y54846D01*
X58293Y54859D01*
X58295Y54874D01*
X58300Y54889D01*
X58307Y54903D01*
X58315Y54914D01*
X58317Y54916D01*
X58321Y54918D01*
X58328Y54923D01*
X58337Y54928D01*
X58350Y54933D01*
X58365Y54939D01*
X58383Y54941D01*
X58404Y54942D01*
X58679D01*
X58688Y54941D01*
D02*
G37*
G36*
X54137Y2005D02*
Y1999D01*
Y1987D01*
Y1970D01*
X54142Y1946D01*
X54148Y1894D01*
X54166Y1836D01*
Y1830D01*
X54172Y1824D01*
X54189Y1789D01*
X54218Y1748D01*
X54259Y1702D01*
X54271Y1690D01*
X54300Y1667D01*
X54341Y1637D01*
X54393Y1608D01*
X54399D01*
X54405Y1602D01*
X54422Y1597D01*
X54446D01*
X54498Y1585D01*
X54562Y1579D01*
X54766D01*
Y1194D01*
X54533D01*
X54498Y1200D01*
X54457D01*
X54411Y1206D01*
X54358Y1217D01*
X54242Y1252D01*
X54236Y1258D01*
X54218Y1264D01*
X54189Y1282D01*
X54154Y1299D01*
X54072Y1352D01*
X53985Y1427D01*
X53979Y1433D01*
X53967Y1445D01*
X53944Y1468D01*
X53921Y1503D01*
X53892Y1538D01*
X53862Y1585D01*
X53810Y1690D01*
Y1696D01*
X53798Y1713D01*
X53793Y1742D01*
X53781Y1783D01*
X53769Y1830D01*
X53763Y1882D01*
X53752Y2005D01*
Y3807D01*
X54137D01*
Y2005D01*
D02*
G37*
G36*
X2703Y5958D02*
X2712Y5955D01*
X2723Y5952D01*
X2734Y5947D01*
X2744Y5940D01*
X2754Y5931D01*
X2755Y5930D01*
X2758Y5926D01*
X2761Y5919D01*
X2767Y5911D01*
X2770Y5898D01*
X2774Y5884D01*
X2777Y5867D01*
X2778Y5848D01*
Y5107D01*
Y5105D01*
Y5102D01*
X2777Y5095D01*
Y5088D01*
X2775Y5079D01*
X2773Y5067D01*
X2765Y5046D01*
X2760Y5033D01*
X2753Y5023D01*
X2745Y5013D01*
X2735Y5003D01*
X2723Y4995D01*
X2709Y4989D01*
X2693Y4985D01*
X2675Y4983D01*
X2666D01*
X2660Y4985D01*
X2645Y4987D01*
X2628Y4991D01*
X2627D01*
X2624Y4992D01*
X2621Y4995D01*
X2615Y4997D01*
X2604Y5004D01*
X2590Y5014D01*
X2589Y5015D01*
X2587Y5017D01*
X2579Y5024D01*
X2568Y5036D01*
X2556Y5051D01*
X2554Y5052D01*
X2553Y5055D01*
X2551Y5058D01*
X2547Y5065D01*
X2537Y5079D01*
X2525Y5095D01*
X2168Y5645D01*
Y5093D01*
Y5090D01*
Y5084D01*
X2167Y5074D01*
X2166Y5062D01*
X2162Y5048D01*
X2158Y5034D01*
X2152Y5022D01*
X2143Y5010D01*
X2142Y5009D01*
X2138Y5006D01*
X2133Y5001D01*
X2125Y4997D01*
X2116Y4992D01*
X2105Y4987D01*
X2092Y4985D01*
X2078Y4983D01*
X2072D01*
X2064Y4985D01*
X2055Y4987D01*
X2045Y4990D01*
X2034Y4995D01*
X2024Y5003D01*
X2013Y5011D01*
X2012Y5013D01*
X2010Y5017D01*
X2006Y5023D01*
X2002Y5032D01*
X1997Y5043D01*
X1993Y5057D01*
X1991Y5074D01*
X1989Y5093D01*
Y5820D01*
Y5823D01*
Y5828D01*
Y5837D01*
X1991Y5847D01*
X1993Y5870D01*
X1996Y5883D01*
X1999Y5893D01*
Y5894D01*
X2002Y5898D01*
X2005Y5903D01*
X2008Y5909D01*
X2015Y5917D01*
X2021Y5925D01*
X2029Y5932D01*
X2039Y5940D01*
X2040Y5941D01*
X2044Y5942D01*
X2050Y5946D01*
X2058Y5950D01*
X2067Y5952D01*
X2077Y5956D01*
X2088Y5958D01*
X2101Y5959D01*
X2110D01*
X2116Y5958D01*
X2130Y5955D01*
X2144Y5950D01*
X2146D01*
X2148Y5949D01*
X2156Y5944D01*
X2166Y5936D01*
X2177Y5927D01*
X2179D01*
X2180Y5925D01*
X2186Y5917D01*
X2195Y5906D01*
X2205Y5890D01*
X2206Y5889D01*
X2208Y5886D01*
X2210Y5883D01*
X2214Y5876D01*
X2224Y5861D01*
X2236Y5843D01*
X2603Y5288D01*
Y5848D01*
Y5850D01*
Y5851D01*
Y5857D01*
X2604Y5867D01*
X2605Y5879D01*
X2608Y5893D01*
X2613Y5907D01*
X2618Y5919D01*
X2626Y5931D01*
X2627Y5932D01*
X2629Y5935D01*
X2634Y5940D01*
X2642Y5945D01*
X2651Y5950D01*
X2662Y5955D01*
X2675Y5958D01*
X2689Y5959D01*
X2695D01*
X2703Y5958D01*
D02*
G37*
G36*
X58003Y54958D02*
X58012Y54955D01*
X58023Y54952D01*
X58034Y54947D01*
X58044Y54940D01*
X58054Y54931D01*
X58055Y54930D01*
X58058Y54926D01*
X58061Y54919D01*
X58067Y54911D01*
X58070Y54898D01*
X58074Y54884D01*
X58077Y54867D01*
X58078Y54848D01*
Y54107D01*
Y54105D01*
Y54102D01*
X58077Y54095D01*
Y54088D01*
X58075Y54079D01*
X58073Y54067D01*
X58065Y54046D01*
X58060Y54033D01*
X58053Y54023D01*
X58045Y54013D01*
X58035Y54003D01*
X58023Y53995D01*
X58009Y53989D01*
X57993Y53985D01*
X57975Y53983D01*
X57966D01*
X57960Y53985D01*
X57945Y53987D01*
X57928Y53991D01*
X57927D01*
X57924Y53992D01*
X57921Y53995D01*
X57915Y53997D01*
X57904Y54004D01*
X57890Y54014D01*
X57889Y54015D01*
X57887Y54017D01*
X57879Y54024D01*
X57868Y54036D01*
X57856Y54051D01*
X57854Y54052D01*
X57853Y54055D01*
X57851Y54058D01*
X57847Y54065D01*
X57837Y54079D01*
X57825Y54095D01*
X57468Y54645D01*
Y54093D01*
Y54090D01*
Y54084D01*
X57467Y54074D01*
X57466Y54062D01*
X57462Y54048D01*
X57458Y54034D01*
X57452Y54022D01*
X57443Y54010D01*
X57442Y54009D01*
X57438Y54006D01*
X57433Y54001D01*
X57425Y53997D01*
X57416Y53992D01*
X57405Y53987D01*
X57392Y53985D01*
X57378Y53983D01*
X57372D01*
X57364Y53985D01*
X57355Y53987D01*
X57345Y53990D01*
X57334Y53995D01*
X57324Y54003D01*
X57313Y54011D01*
X57312Y54013D01*
X57310Y54017D01*
X57306Y54023D01*
X57302Y54032D01*
X57297Y54043D01*
X57293Y54057D01*
X57291Y54074D01*
X57289Y54093D01*
Y54820D01*
Y54823D01*
Y54828D01*
Y54837D01*
X57291Y54847D01*
X57293Y54870D01*
X57296Y54883D01*
X57299Y54893D01*
Y54894D01*
X57302Y54898D01*
X57305Y54903D01*
X57308Y54909D01*
X57315Y54917D01*
X57321Y54925D01*
X57329Y54932D01*
X57339Y54940D01*
X57340Y54941D01*
X57344Y54942D01*
X57350Y54946D01*
X57358Y54950D01*
X57367Y54952D01*
X57377Y54956D01*
X57388Y54958D01*
X57401Y54959D01*
X57410D01*
X57416Y54958D01*
X57430Y54955D01*
X57444Y54950D01*
X57446D01*
X57448Y54949D01*
X57456Y54944D01*
X57466Y54936D01*
X57477Y54927D01*
X57479D01*
X57480Y54925D01*
X57486Y54917D01*
X57495Y54906D01*
X57505Y54890D01*
X57506Y54889D01*
X57508Y54886D01*
X57510Y54883D01*
X57514Y54876D01*
X57524Y54861D01*
X57536Y54843D01*
X57903Y54288D01*
Y54848D01*
Y54850D01*
Y54851D01*
Y54857D01*
X57904Y54867D01*
X57905Y54879D01*
X57908Y54893D01*
X57913Y54907D01*
X57918Y54919D01*
X57926Y54931D01*
X57927Y54932D01*
X57929Y54935D01*
X57934Y54940D01*
X57942Y54945D01*
X57951Y54950D01*
X57962Y54955D01*
X57975Y54958D01*
X57989Y54959D01*
X57995D01*
X58003Y54958D01*
D02*
G37*
%LPC*%
G36*
X19851Y2696D02*
X19149D01*
Y2485D01*
X19346D01*
Y1712D01*
X19149D01*
Y1500D01*
X19851D01*
Y1712D01*
X19654D01*
Y2485D01*
X19851D01*
Y2696D01*
D02*
G37*
G36*
X18589D02*
X18234D01*
X17794Y1500D01*
X18106D01*
X18189Y1742D01*
X18626D01*
X18709Y1500D01*
X19031D01*
X18589Y2696D01*
D02*
G37*
G36*
X23086D02*
X22618D01*
Y1500D01*
X23038D01*
X23090Y1502D01*
X23136Y1503D01*
X23180Y1507D01*
X23198Y1508D01*
X23215Y1510D01*
X23231Y1512D01*
X23245Y1513D01*
X23256Y1515D01*
X23266Y1517D01*
X23275Y1518D01*
X23280Y1520D01*
X23285D01*
X23323Y1530D01*
X23360Y1540D01*
X23391Y1553D01*
X23420Y1565D01*
X23443Y1577D01*
X23461Y1585D01*
X23468Y1588D01*
X23473Y1592D01*
X23475Y1593D01*
X23476D01*
X23518Y1623D01*
X23556Y1655D01*
X23588Y1690D01*
X23616Y1722D01*
X23640Y1752D01*
X23648Y1763D01*
X23656Y1775D01*
X23661Y1783D01*
X23666Y1792D01*
X23668Y1795D01*
X23670Y1797D01*
X23683Y1822D01*
X23695Y1847D01*
X23715Y1898D01*
X23728Y1950D01*
X23736Y1997D01*
X23740Y2017D01*
X23743Y2037D01*
X23745Y2053D01*
Y2068D01*
X23746Y2080D01*
Y2090D01*
Y2095D01*
Y2097D01*
Y2128D01*
X23743Y2160D01*
X23735Y2216D01*
X23730Y2243D01*
X23723Y2268D01*
X23718Y2291D01*
X23711Y2313D01*
X23705Y2331D01*
X23698Y2348D01*
X23691Y2363D01*
X23686Y2375D01*
X23681Y2385D01*
X23678Y2393D01*
X23676Y2396D01*
X23675Y2398D01*
X23646Y2443D01*
X23615Y2485D01*
X23581Y2518D01*
X23550Y2548D01*
X23523Y2571D01*
X23511Y2580D01*
X23500Y2588D01*
X23491Y2593D01*
X23485Y2598D01*
X23481Y2601D01*
X23480D01*
X23451Y2618D01*
X23421Y2631D01*
X23391Y2643D01*
X23363Y2653D01*
X23340Y2661D01*
X23328Y2665D01*
X23320Y2666D01*
X23311Y2668D01*
X23306Y2670D01*
X23303Y2671D01*
X23301D01*
X23260Y2680D01*
X23218Y2686D01*
X23176Y2690D01*
X23136Y2693D01*
X23118Y2695D01*
X23101D01*
X23086Y2696D01*
D02*
G37*
G36*
X22358D02*
X21495D01*
Y1500D01*
X22358D01*
Y1732D01*
X21803D01*
Y2027D01*
X22318D01*
Y2258D01*
X21803D01*
Y2465D01*
X22358D01*
Y2696D01*
D02*
G37*
G36*
X17188D02*
X16880D01*
Y1500D01*
X17741D01*
Y1732D01*
X17188D01*
Y2696D01*
D02*
G37*
G36*
X54586Y3760D02*
X54574D01*
X54539Y3754D01*
X54510Y3743D01*
X54487Y3725D01*
X54481Y3719D01*
X54463Y3690D01*
X54452Y3661D01*
X54446Y3638D01*
Y3626D01*
X54452Y3591D01*
X54463Y3562D01*
X54475Y3539D01*
X54481Y3533D01*
X54510Y3509D01*
X54545Y3498D01*
X54568Y3492D01*
X54574D01*
X54615Y3498D01*
X54644Y3515D01*
X54667Y3527D01*
X54673Y3533D01*
X54696Y3562D01*
X54708Y3597D01*
X54714Y3620D01*
Y3626D01*
X54708Y3667D01*
X54696Y3696D01*
X54679Y3714D01*
X54673Y3719D01*
X54638Y3743D01*
X54609Y3754D01*
X54586Y3760D01*
D02*
G37*
G36*
X52562Y2769D02*
X52521D01*
X52492Y2763D01*
X52422Y2745D01*
X52335Y2716D01*
X52288Y2693D01*
X52241Y2664D01*
X52195Y2629D01*
X52154Y2588D01*
X52113Y2541D01*
X52078Y2483D01*
X52049Y2419D01*
X52025Y2343D01*
X53075D01*
Y2349D01*
X53069Y2361D01*
X53064Y2384D01*
X53058Y2407D01*
X53029Y2477D01*
X52982Y2559D01*
X52953Y2594D01*
X52912Y2635D01*
X52871Y2670D01*
X52824Y2705D01*
X52772Y2728D01*
X52708Y2751D01*
X52638Y2763D01*
X52562Y2769D01*
D02*
G37*
G36*
X16208Y2696D02*
X15675D01*
Y1500D01*
X15983D01*
Y1890D01*
X16173D01*
X16220Y1892D01*
X16263Y1895D01*
X16300Y1902D01*
X16331Y1908D01*
X16356Y1913D01*
X16368Y1917D01*
X16376Y1920D01*
X16383Y1922D01*
X16388Y1923D01*
X16390Y1925D01*
X16391D01*
X16423Y1940D01*
X16453Y1957D01*
X16481Y1975D01*
X16505Y1992D01*
X16525Y2008D01*
X16538Y2020D01*
X16548Y2028D01*
X16551Y2032D01*
X16570Y2053D01*
X16586Y2075D01*
X16600Y2097D01*
X16611Y2117D01*
X16620Y2135D01*
X16626Y2148D01*
X16630Y2158D01*
X16631Y2161D01*
X16641Y2190D01*
X16648Y2218D01*
X16653Y2245D01*
X16656Y2268D01*
X16658Y2288D01*
X16660Y2305D01*
Y2315D01*
Y2316D01*
Y2318D01*
X16658Y2355D01*
X16653Y2390D01*
X16648Y2420D01*
X16641Y2445D01*
X16633Y2466D01*
X16628Y2481D01*
X16623Y2491D01*
X16621Y2495D01*
X16606Y2521D01*
X16588Y2545D01*
X16570Y2566D01*
X16551Y2583D01*
X16536Y2598D01*
X16523Y2608D01*
X16515Y2615D01*
X16513Y2616D01*
X16511D01*
X16488Y2630D01*
X16463Y2643D01*
X16440Y2653D01*
X16418Y2661D01*
X16400Y2668D01*
X16385Y2673D01*
X16375Y2675D01*
X16373Y2676D01*
X16371D01*
X16341Y2683D01*
X16310Y2688D01*
X16277Y2691D01*
X16247Y2695D01*
X16220D01*
X16208Y2696D01*
D02*
G37*
G36*
X6428Y2746D02*
X6415D01*
X6362Y2745D01*
X6313Y2740D01*
X6267Y2731D01*
X6223Y2720D01*
X6183Y2708D01*
X6145Y2693D01*
X6112Y2678D01*
X6082Y2663D01*
X6053Y2646D01*
X6030Y2631D01*
X6010Y2616D01*
X5993Y2605D01*
X5980Y2593D01*
X5972Y2585D01*
X5965Y2580D01*
X5963Y2578D01*
X5935Y2545D01*
X5910Y2510D01*
X5888Y2473D01*
X5868Y2436D01*
X5853Y2398D01*
X5840Y2360D01*
X5828Y2323D01*
X5820Y2286D01*
X5813Y2253D01*
X5808Y2221D01*
X5805Y2193D01*
X5803Y2170D01*
X5802Y2150D01*
X5800Y2135D01*
Y2125D01*
Y2123D01*
Y2122D01*
X5802Y2070D01*
X5807Y2020D01*
X5815Y1973D01*
X5825Y1930D01*
X5838Y1890D01*
X5852Y1853D01*
X5867Y1818D01*
X5882Y1788D01*
X5897Y1760D01*
X5912Y1737D01*
X5925Y1717D01*
X5938Y1698D01*
X5948Y1685D01*
X5957Y1677D01*
X5962Y1670D01*
X5963Y1668D01*
X5995Y1638D01*
X6030Y1613D01*
X6065Y1590D01*
X6103Y1572D01*
X6140Y1555D01*
X6178Y1542D01*
X6215Y1530D01*
X6250Y1522D01*
X6283Y1513D01*
X6315Y1508D01*
X6343Y1505D01*
X6367Y1503D01*
X6387Y1502D01*
X6402Y1500D01*
X6415D01*
X6468Y1502D01*
X6516Y1507D01*
X6563Y1515D01*
X6606Y1527D01*
X6648Y1538D01*
X6685Y1553D01*
X6718Y1568D01*
X6748Y1585D01*
X6776Y1600D01*
X6800Y1615D01*
X6820Y1630D01*
X6836Y1642D01*
X6850Y1653D01*
X6858Y1662D01*
X6865Y1667D01*
X6866Y1668D01*
X6895Y1702D01*
X6921Y1737D01*
X6943Y1773D01*
X6961Y1810D01*
X6978Y1848D01*
X6991Y1885D01*
X7001Y1923D01*
X7011Y1958D01*
X7018Y1992D01*
X7023Y2023D01*
X7026Y2050D01*
X7028Y2075D01*
X7030Y2095D01*
X7031Y2108D01*
Y2118D01*
Y2122D01*
X7030Y2175D01*
X7025Y2223D01*
X7016Y2271D01*
X7006Y2315D01*
X6993Y2355D01*
X6980Y2393D01*
X6965Y2426D01*
X6950Y2458D01*
X6933Y2485D01*
X6918Y2510D01*
X6905Y2530D01*
X6893Y2548D01*
X6881Y2561D01*
X6873Y2570D01*
X6868Y2576D01*
X6866Y2578D01*
X6835Y2608D01*
X6800Y2633D01*
X6763Y2656D01*
X6726Y2675D01*
X6688Y2691D01*
X6651Y2705D01*
X6615Y2716D01*
X6578Y2725D01*
X6545Y2733D01*
X6515Y2738D01*
X6486Y2741D01*
X6462Y2743D01*
X6443Y2745D01*
X6428Y2746D01*
D02*
G37*
G36*
X26100Y2123D02*
X26093D01*
X26066Y2122D01*
X26042Y2120D01*
X26019Y2116D01*
X25997Y2110D01*
X25977Y2104D01*
X25958Y2097D01*
X25941Y2089D01*
X25926Y2082D01*
X25912Y2073D01*
X25900Y2066D01*
X25890Y2058D01*
X25882Y2052D01*
X25875Y2047D01*
X25871Y2042D01*
X25868Y2040D01*
X25867Y2039D01*
X25853Y2022D01*
X25841Y2005D01*
X25830Y1987D01*
X25820Y1968D01*
X25812Y1949D01*
X25806Y1930D01*
X25800Y1912D01*
X25796Y1893D01*
X25792Y1877D01*
X25790Y1861D01*
X25788Y1847D01*
X25787Y1835D01*
X25786Y1825D01*
X25786Y1817D01*
Y1812D01*
Y1812D01*
Y1811D01*
X25786Y1785D01*
X25789Y1760D01*
X25793Y1737D01*
X25798Y1715D01*
X25805Y1695D01*
X25811Y1677D01*
X25819Y1659D01*
X25826Y1644D01*
X25834Y1630D01*
X25841Y1618D01*
X25848Y1608D01*
X25855Y1599D01*
X25860Y1592D01*
X25864Y1588D01*
X25866Y1585D01*
X25867Y1584D01*
X25883Y1569D01*
X25900Y1557D01*
X25918Y1545D01*
X25937Y1536D01*
X25955Y1527D01*
X25975Y1521D01*
X25993Y1515D01*
X26010Y1511D01*
X26027Y1507D01*
X26043Y1504D01*
X26057Y1503D01*
X26069Y1502D01*
X26079Y1501D01*
X26086Y1500D01*
X26093D01*
X26120Y1501D01*
X26144Y1503D01*
X26167Y1508D01*
X26189Y1513D01*
X26210Y1519D01*
X26228Y1527D01*
X26245Y1534D01*
X26260Y1542D01*
X26274Y1550D01*
X26285Y1557D01*
X26295Y1565D01*
X26304Y1571D01*
X26310Y1577D01*
X26315Y1581D01*
X26318Y1583D01*
X26319Y1584D01*
X26333Y1601D01*
X26346Y1618D01*
X26357Y1637D01*
X26366Y1655D01*
X26375Y1674D01*
X26381Y1692D01*
X26386Y1712D01*
X26391Y1729D01*
X26395Y1746D01*
X26397Y1762D01*
X26399Y1775D01*
X26400Y1787D01*
X26400Y1797D01*
X26401Y1804D01*
Y1809D01*
Y1811D01*
X26400Y1837D01*
X26398Y1862D01*
X26394Y1886D01*
X26389Y1907D01*
X26382Y1927D01*
X26375Y1947D01*
X26368Y1963D01*
X26360Y1979D01*
X26352Y1992D01*
X26345Y2005D01*
X26338Y2015D01*
X26332Y2024D01*
X26326Y2031D01*
X26322Y2035D01*
X26320Y2038D01*
X26319Y2039D01*
X26303Y2054D01*
X26285Y2067D01*
X26267Y2078D01*
X26249Y2087D01*
X26230Y2096D01*
X26211Y2102D01*
X26193Y2108D01*
X26175Y2112D01*
X26158Y2117D01*
X26143Y2119D01*
X26129Y2121D01*
X26116Y2122D01*
X26107Y2122D01*
X26100Y2123D01*
D02*
G37*
G36*
X3305Y5791D02*
X3179D01*
Y5151D01*
X3351D01*
X3375Y5152D01*
X3388D01*
X3398Y5154D01*
X3403D01*
X3408Y5155D01*
X3416Y5156D01*
X3423Y5157D01*
X3433Y5160D01*
X3454Y5166D01*
X3455D01*
X3459Y5169D01*
X3464Y5170D01*
X3471Y5174D01*
X3488Y5183D01*
X3504Y5194D01*
X3506Y5196D01*
X3508Y5198D01*
X3513Y5203D01*
X3520Y5210D01*
X3527Y5220D01*
X3535Y5231D01*
X3544Y5244D01*
X3553Y5260D01*
X3562Y5278D01*
X3570Y5298D01*
X3578Y5321D01*
X3586Y5347D01*
X3592Y5375D01*
X3597Y5405D01*
X3600Y5438D01*
X3601Y5474D01*
Y5475D01*
Y5480D01*
Y5488D01*
Y5497D01*
X3600Y5508D01*
X3598Y5522D01*
X3597Y5536D01*
X3596Y5552D01*
X3591Y5587D01*
X3583Y5621D01*
X3572Y5654D01*
X3565Y5669D01*
X3558Y5683D01*
Y5685D01*
X3556Y5686D01*
X3554Y5690D01*
X3550Y5695D01*
X3541Y5706D01*
X3529Y5720D01*
X3515Y5735D01*
X3497Y5751D01*
X3476Y5763D01*
X3454Y5772D01*
X3452D01*
X3451Y5773D01*
X3447D01*
X3442Y5775D01*
X3430Y5779D01*
X3412Y5782D01*
X3390Y5785D01*
X3365Y5789D01*
X3337Y5790D01*
X3305Y5791D01*
D02*
G37*
G36*
X58605Y54791D02*
X58479D01*
Y54151D01*
X58651D01*
X58675Y54152D01*
X58688D01*
X58698Y54154D01*
X58703D01*
X58708Y54155D01*
X58716Y54156D01*
X58723Y54157D01*
X58733Y54160D01*
X58754Y54166D01*
X58755D01*
X58759Y54169D01*
X58764Y54170D01*
X58771Y54174D01*
X58788Y54183D01*
X58804Y54194D01*
X58806Y54196D01*
X58808Y54198D01*
X58813Y54203D01*
X58820Y54210D01*
X58827Y54220D01*
X58835Y54231D01*
X58844Y54244D01*
X58853Y54260D01*
X58862Y54278D01*
X58870Y54298D01*
X58878Y54321D01*
X58886Y54347D01*
X58892Y54375D01*
X58897Y54405D01*
X58900Y54438D01*
X58901Y54474D01*
Y54475D01*
Y54480D01*
Y54488D01*
Y54497D01*
X58900Y54508D01*
X58898Y54522D01*
X58897Y54536D01*
X58896Y54552D01*
X58891Y54587D01*
X58883Y54621D01*
X58872Y54654D01*
X58865Y54669D01*
X58858Y54683D01*
Y54685D01*
X58856Y54686D01*
X58854Y54690D01*
X58850Y54695D01*
X58841Y54706D01*
X58829Y54720D01*
X58815Y54735D01*
X58797Y54751D01*
X58776Y54763D01*
X58754Y54772D01*
X58752D01*
X58751Y54773D01*
X58747D01*
X58742Y54775D01*
X58729Y54779D01*
X58712Y54782D01*
X58690Y54785D01*
X58665Y54789D01*
X58637Y54790D01*
X58605Y54791D01*
D02*
G37*
G36*
Y5791D02*
X58479D01*
Y5151D01*
X58651D01*
X58675Y5152D01*
X58688D01*
X58698Y5154D01*
X58703D01*
X58708Y5155D01*
X58716Y5156D01*
X58723Y5157D01*
X58733Y5160D01*
X58754Y5166D01*
X58755D01*
X58759Y5169D01*
X58764Y5170D01*
X58771Y5174D01*
X58788Y5183D01*
X58804Y5194D01*
X58806Y5196D01*
X58808Y5198D01*
X58813Y5203D01*
X58820Y5210D01*
X58827Y5220D01*
X58835Y5231D01*
X58844Y5244D01*
X58853Y5260D01*
X58862Y5278D01*
X58870Y5298D01*
X58878Y5321D01*
X58886Y5347D01*
X58892Y5375D01*
X58897Y5405D01*
X58900Y5438D01*
X58901Y5474D01*
Y5475D01*
Y5480D01*
Y5488D01*
Y5497D01*
X58900Y5508D01*
X58898Y5522D01*
X58897Y5536D01*
X58896Y5552D01*
X58891Y5587D01*
X58883Y5621D01*
X58872Y5654D01*
X58865Y5669D01*
X58858Y5683D01*
Y5685D01*
X58856Y5686D01*
X58854Y5690D01*
X58850Y5695D01*
X58841Y5706D01*
X58829Y5720D01*
X58815Y5735D01*
X58797Y5751D01*
X58776Y5763D01*
X58754Y5772D01*
X58752D01*
X58751Y5773D01*
X58747D01*
X58742Y5775D01*
X58729Y5779D01*
X58712Y5782D01*
X58690Y5785D01*
X58665Y5789D01*
X58637Y5790D01*
X58605Y5791D01*
D02*
G37*
G36*
X21189Y2696D02*
X20905D01*
Y2010D01*
X20470Y2696D01*
X20102D01*
Y1500D01*
X20385D01*
Y2320D01*
X20890Y1500D01*
X21189D01*
Y2696D01*
D02*
G37*
G36*
X14694Y3893D02*
X14008D01*
X13498Y3146D01*
X13001Y3893D01*
X12292D01*
X13121Y2703D01*
X12275Y1500D01*
X12955D01*
X13478Y2283D01*
X13991Y1500D01*
X14708D01*
X13858Y2730D01*
X14694Y3893D01*
D02*
G37*
G36*
X3305Y54791D02*
X3179D01*
Y54151D01*
X3351D01*
X3375Y54152D01*
X3388D01*
X3398Y54154D01*
X3403D01*
X3408Y54155D01*
X3416Y54156D01*
X3423Y54157D01*
X3433Y54160D01*
X3454Y54166D01*
X3455D01*
X3459Y54169D01*
X3464Y54170D01*
X3471Y54174D01*
X3488Y54183D01*
X3504Y54194D01*
X3506Y54196D01*
X3508Y54198D01*
X3513Y54203D01*
X3520Y54210D01*
X3527Y54220D01*
X3535Y54231D01*
X3544Y54244D01*
X3553Y54260D01*
X3562Y54278D01*
X3570Y54298D01*
X3578Y54321D01*
X3586Y54347D01*
X3592Y54375D01*
X3597Y54405D01*
X3600Y54438D01*
X3601Y54474D01*
Y54475D01*
Y54480D01*
Y54488D01*
Y54497D01*
X3600Y54508D01*
X3598Y54522D01*
X3597Y54536D01*
X3596Y54552D01*
X3591Y54587D01*
X3583Y54621D01*
X3572Y54654D01*
X3565Y54669D01*
X3558Y54683D01*
Y54685D01*
X3556Y54686D01*
X3554Y54690D01*
X3550Y54695D01*
X3541Y54706D01*
X3529Y54720D01*
X3515Y54735D01*
X3497Y54751D01*
X3476Y54763D01*
X3454Y54772D01*
X3452D01*
X3451Y54773D01*
X3447D01*
X3442Y54775D01*
X3430Y54779D01*
X3412Y54782D01*
X3390Y54785D01*
X3365Y54789D01*
X3337Y54790D01*
X3305Y54791D01*
D02*
G37*
G36*
X57626Y4150D02*
X57495Y4144D01*
X57418Y4135D01*
X57342Y4123D01*
X57288Y4112D01*
X57240Y4104D01*
X57163Y4082D01*
X57096Y4063D01*
X57028Y4039D01*
X56914Y3995D01*
X56805Y3943D01*
X56742Y3905D01*
X56695Y3877D01*
X56691Y3874D01*
X56667Y3859D01*
X56618Y3825D01*
X56563Y3786D01*
X56540Y3766D01*
X56516Y3749D01*
X56489Y3726D01*
X56478Y3716D01*
X56472Y3711D01*
X56466Y3705D01*
X56454Y3696D01*
X56443Y3685D01*
X56360Y3606D01*
X56340Y3584D01*
X56293Y3532D01*
X56260Y3494D01*
X56234Y3462D01*
X56204Y3422D01*
X56161Y3361D01*
X56126Y3307D01*
X56081Y3234D01*
X56039Y3153D01*
X56003Y3078D01*
X55983Y3031D01*
X55986Y3011D01*
X55976Y2990D01*
X55971Y2969D01*
X55944Y2894D01*
X55919Y2819D01*
X55900Y2744D01*
X55869Y2594D01*
X55860Y2519D01*
X55858Y2481D01*
X55854Y2444D01*
X55849Y2419D01*
X55850Y2281D01*
X55872Y2069D01*
X55887Y1987D01*
X55899Y1934D01*
X55911Y1885D01*
X55921Y1851D01*
X55930Y1820D01*
X55943Y1781D01*
X55955Y1744D01*
X55974Y1694D01*
X55993Y1646D01*
X56010Y1609D01*
X56027Y1572D01*
X56045Y1534D01*
X56066Y1496D01*
X56085Y1461D01*
X56105Y1427D01*
X56129Y1388D01*
X56156Y1346D01*
X56175Y1319D01*
X56202Y1282D01*
X56242Y1228D01*
X56286Y1175D01*
X56338Y1118D01*
X56389Y1065D01*
X56442Y1016D01*
X56487Y976D01*
X56518Y951D01*
X56561Y917D01*
X56621Y873D01*
X56665Y844D01*
X56761Y783D01*
X56827Y750D01*
X56879Y723D01*
X56942Y695D01*
X57028Y662D01*
X57153Y621D01*
X57212Y604D01*
X57271Y591D01*
X57376Y571D01*
X57464Y559D01*
X57547Y553D01*
X57559D01*
X57565Y552D01*
X57579Y551D01*
X57626Y552D01*
X57653Y550D01*
X57747Y553D01*
X57826Y558D01*
X57956Y575D01*
X58023Y589D01*
X58062Y597D01*
X58102Y609D01*
X58103Y608D01*
Y608D01*
X58123Y613D01*
X58131Y615D01*
X58139Y618D01*
X58148Y621D01*
X58153Y622D01*
X58167Y626D01*
X58188Y632D01*
X58195Y635D01*
X58196Y635D01*
X58198Y636D01*
X58207Y639D01*
X58234Y648D01*
X58266Y659D01*
X58299Y672D01*
X58347Y691D01*
X58399Y714D01*
X58460Y743D01*
X58506Y767D01*
X58546Y789D01*
X58595Y818D01*
X58638Y846D01*
X58689Y880D01*
X58714Y898D01*
X58738Y916D01*
X58795Y961D01*
X58829Y990D01*
X58842Y1001D01*
X58852Y1010D01*
X58874Y1030D01*
X58911Y1066D01*
X58955Y1110D01*
X58993Y1151D01*
X59015Y1176D01*
X59037Y1202D01*
X59060Y1231D01*
X59083Y1260D01*
X59107Y1293D01*
X59122Y1315D01*
X59144Y1346D01*
X59163Y1375D01*
X59183Y1406D01*
X59203Y1440D01*
X59222Y1473D01*
X59237Y1501D01*
X59258Y1541D01*
X59276Y1580D01*
X59296Y1623D01*
X59318Y1673D01*
X59333Y1710D01*
X59346Y1749D01*
X59359Y1785D01*
X59373Y1828D01*
X59385Y1869D01*
X59393Y1900D01*
X59400Y1928D01*
X59414Y1992D01*
X59421Y2028D01*
X59427Y2065D01*
X59439Y2151D01*
X59447Y2230D01*
X59448Y2269D01*
X59450Y2356D01*
X59448Y2444D01*
X59441Y2530D01*
X59436Y2575D01*
X59433Y2599D01*
X59429Y2624D01*
X59423Y2659D01*
X59419Y2684D01*
X59409Y2733D01*
X59398Y2780D01*
X59384Y2833D01*
X59368Y2886D01*
X59346Y2953D01*
X59323Y3016D01*
X59303Y3063D01*
X59282Y3109D01*
X59256Y3163D01*
X59229Y3215D01*
X59192Y3279D01*
X59154Y3339D01*
X59136Y3365D01*
X59119Y3391D01*
X59081Y3442D01*
X59042Y3491D01*
X59000Y3540D01*
X58950Y3595D01*
X58945Y3600D01*
X58894Y3651D01*
X58840Y3701D01*
X58782Y3749D01*
X58724Y3794D01*
X58681Y3825D01*
X58620Y3867D01*
X58535Y3918D01*
X58446Y3964D01*
X58402Y3985D01*
X58358Y4005D01*
X58273Y4039D01*
X58182Y4070D01*
X58089Y4094D01*
X58020Y4111D01*
X57951Y4125D01*
X57872Y4135D01*
X57773Y4149D01*
X57626Y4150D01*
D02*
G37*
G36*
X7576Y2721D02*
X7268D01*
Y1525D01*
X8129D01*
Y1757D01*
X7576D01*
Y2721D01*
D02*
G37*
G36*
X25455Y2111D02*
X25177D01*
Y1513D01*
X25331D01*
Y1732D01*
X25402D01*
X25565Y1513D01*
X25753D01*
X25553Y1768D01*
X25573Y1779D01*
X25591Y1791D01*
X25606Y1802D01*
X25619Y1813D01*
X25629Y1822D01*
X25636Y1831D01*
X25640Y1836D01*
X25641Y1837D01*
Y1837D01*
X25651Y1854D01*
X25659Y1872D01*
X25665Y1891D01*
X25668Y1907D01*
X25671Y1922D01*
X25671Y1929D01*
Y1935D01*
X25672Y1939D01*
Y1943D01*
Y1945D01*
Y1946D01*
X25671Y1963D01*
X25669Y1979D01*
X25666Y1992D01*
X25662Y2004D01*
X25659Y2013D01*
X25656Y2020D01*
X25653Y2024D01*
X25652Y2026D01*
X25644Y2037D01*
X25636Y2047D01*
X25626Y2057D01*
X25618Y2064D01*
X25610Y2070D01*
X25604Y2075D01*
X25600Y2077D01*
X25598Y2078D01*
X25586Y2085D01*
X25573Y2091D01*
X25561Y2095D01*
X25550Y2099D01*
X25541Y2102D01*
X25533Y2103D01*
X25528Y2104D01*
X25526D01*
X25511Y2107D01*
X25496Y2108D01*
X25481Y2109D01*
X25467Y2110D01*
X25455Y2111D01*
D02*
G37*
G36*
X24842D02*
X24575D01*
Y1513D01*
X24729D01*
Y1707D01*
X24824D01*
X24847Y1708D01*
X24869Y1710D01*
X24887Y1713D01*
X24903Y1717D01*
X24916Y1719D01*
X24922Y1721D01*
X24926Y1722D01*
X24929Y1723D01*
X24932Y1724D01*
X24932Y1725D01*
X24933D01*
X24949Y1732D01*
X24964Y1741D01*
X24978Y1750D01*
X24990Y1758D01*
X25000Y1767D01*
X25007Y1772D01*
X25012Y1777D01*
X25013Y1778D01*
X25022Y1789D01*
X25031Y1800D01*
X25037Y1811D01*
X25043Y1821D01*
X25047Y1830D01*
X25051Y1837D01*
X25052Y1842D01*
X25053Y1843D01*
X25058Y1857D01*
X25062Y1872D01*
X25064Y1885D01*
X25066Y1897D01*
X25067Y1907D01*
X25067Y1915D01*
Y1920D01*
Y1921D01*
Y1922D01*
X25067Y1940D01*
X25064Y1957D01*
X25062Y1972D01*
X25058Y1985D01*
X25054Y1996D01*
X25052Y2003D01*
X25049Y2008D01*
X25048Y2010D01*
X25041Y2023D01*
X25032Y2035D01*
X25022Y2046D01*
X25013Y2054D01*
X25006Y2062D01*
X24999Y2067D01*
X24995Y2070D01*
X24994Y2071D01*
X24993D01*
X24982Y2077D01*
X24969Y2084D01*
X24957Y2089D01*
X24947Y2093D01*
X24937Y2097D01*
X24930Y2099D01*
X24925Y2100D01*
X24924Y2101D01*
X24923D01*
X24908Y2104D01*
X24892Y2107D01*
X24876Y2108D01*
X24861Y2110D01*
X24847D01*
X24842Y2111D01*
D02*
G37*
G36*
X11417Y2725D02*
X11150D01*
X11149Y2708D01*
X11145Y2691D01*
X11140Y2678D01*
X11137Y2666D01*
X11132Y2656D01*
X11129Y2650D01*
X11127Y2645D01*
X11125Y2643D01*
X11117Y2631D01*
X11107Y2621D01*
X11087Y2605D01*
X11079Y2600D01*
X11070Y2595D01*
X11065Y2593D01*
X11064Y2591D01*
X11050Y2586D01*
X11035Y2581D01*
X11007Y2573D01*
X10994Y2571D01*
X10984Y2570D01*
X10977Y2568D01*
X10975D01*
X10935Y2565D01*
X10917Y2563D01*
X10900D01*
X10885Y2561D01*
X10865D01*
Y2366D01*
X11117D01*
Y1733D01*
X10865D01*
Y1525D01*
X11663D01*
Y1733D01*
X11417D01*
Y2725D01*
D02*
G37*
G36*
X9907Y2721D02*
X9439D01*
Y1525D01*
X9859D01*
X9911Y1527D01*
X9957Y1528D01*
X10001Y1532D01*
X10019Y1533D01*
X10036Y1535D01*
X10052Y1537D01*
X10066Y1538D01*
X10077Y1540D01*
X10087Y1542D01*
X10096Y1543D01*
X10101Y1545D01*
X10106D01*
X10144Y1555D01*
X10181Y1565D01*
X10212Y1578D01*
X10241Y1590D01*
X10264Y1602D01*
X10282Y1610D01*
X10289Y1613D01*
X10294Y1617D01*
X10296Y1618D01*
X10297D01*
X10339Y1648D01*
X10377Y1680D01*
X10409Y1715D01*
X10437Y1747D01*
X10460Y1777D01*
X10469Y1788D01*
X10477Y1800D01*
X10482Y1808D01*
X10487Y1817D01*
X10489Y1820D01*
X10490Y1822D01*
X10504Y1847D01*
X10515Y1872D01*
X10535Y1923D01*
X10549Y1975D01*
X10557Y2022D01*
X10560Y2042D01*
X10564Y2062D01*
X10565Y2078D01*
Y2093D01*
X10567Y2105D01*
Y2115D01*
Y2120D01*
Y2122D01*
Y2153D01*
X10564Y2185D01*
X10555Y2241D01*
X10550Y2268D01*
X10544Y2293D01*
X10539Y2316D01*
X10532Y2338D01*
X10525Y2356D01*
X10519Y2373D01*
X10512Y2388D01*
X10507Y2400D01*
X10502Y2410D01*
X10499Y2418D01*
X10497Y2421D01*
X10495Y2423D01*
X10467Y2468D01*
X10435Y2510D01*
X10402Y2543D01*
X10370Y2573D01*
X10344Y2596D01*
X10332Y2605D01*
X10321Y2613D01*
X10312Y2618D01*
X10306Y2623D01*
X10302Y2626D01*
X10301D01*
X10272Y2643D01*
X10242Y2656D01*
X10212Y2668D01*
X10184Y2678D01*
X10161Y2686D01*
X10149Y2690D01*
X10141Y2691D01*
X10132Y2693D01*
X10127Y2695D01*
X10124Y2696D01*
X10122D01*
X10081Y2705D01*
X10039Y2711D01*
X9997Y2715D01*
X9957Y2718D01*
X9939Y2720D01*
X9922D01*
X9907Y2721D01*
D02*
G37*
G36*
X9179D02*
X8316D01*
Y1525D01*
X9179D01*
Y1757D01*
X8624D01*
Y2052D01*
X9139D01*
Y2283D01*
X8624D01*
Y2490D01*
X9179D01*
Y2721D01*
D02*
G37*
%LPD*%
G36*
X16107Y2471D02*
X16137D01*
X16147Y2470D01*
X16155D01*
X16190Y2466D01*
X16205Y2463D01*
X16220Y2460D01*
X16232Y2456D01*
X16242Y2453D01*
X16248Y2451D01*
X16250Y2450D01*
X16263Y2443D01*
X16275Y2435D01*
X16293Y2418D01*
X16302Y2410D01*
X16307Y2405D01*
X16310Y2400D01*
X16312Y2398D01*
X16322Y2383D01*
X16328Y2370D01*
X16333Y2355D01*
X16337Y2341D01*
X16338Y2330D01*
X16340Y2320D01*
Y2313D01*
Y2311D01*
Y2293D01*
X16338Y2276D01*
X16337Y2261D01*
X16333Y2248D01*
X16331Y2238D01*
X16328Y2230D01*
X16326Y2225D01*
Y2223D01*
X16315Y2198D01*
X16300Y2180D01*
X16293Y2171D01*
X16288Y2167D01*
X16285Y2163D01*
X16283Y2161D01*
X16270Y2151D01*
X16257Y2143D01*
X16228Y2132D01*
X16217Y2128D01*
X16207Y2125D01*
X16200Y2123D01*
X16198D01*
X16178Y2120D01*
X16157Y2118D01*
X16135Y2117D01*
X16115D01*
X16097Y2115D01*
X15983D01*
Y2473D01*
X16085D01*
X16107Y2471D01*
D02*
G37*
G36*
X54626Y3702D02*
X54638Y3684D01*
X54644Y3667D01*
Y3661D01*
X54638Y3644D01*
X54632Y3626D01*
X54626Y3620D01*
X54621Y3614D01*
X54667Y3556D01*
X54626D01*
X54586Y3609D01*
X54551D01*
Y3556D01*
X54516D01*
Y3708D01*
X54597D01*
X54626Y3702D01*
D02*
G37*
G36*
X23068Y2471D02*
X23093Y2470D01*
X23113Y2468D01*
X23130Y2466D01*
X23141Y2465D01*
X23148Y2463D01*
X23150D01*
X23186Y2455D01*
X23203Y2450D01*
X23218Y2445D01*
X23230Y2440D01*
X23240Y2435D01*
X23246Y2433D01*
X23248Y2431D01*
X23280Y2413D01*
X23308Y2391D01*
X23331Y2370D01*
X23350Y2348D01*
X23365Y2330D01*
X23375Y2313D01*
X23381Y2303D01*
X23383Y2301D01*
Y2300D01*
X23398Y2266D01*
X23408Y2233D01*
X23416Y2200D01*
X23421Y2168D01*
X23425Y2140D01*
Y2128D01*
X23426Y2118D01*
Y2110D01*
Y2103D01*
Y2100D01*
Y2098D01*
X23425Y2055D01*
X23420Y2017D01*
X23413Y1983D01*
X23406Y1953D01*
X23400Y1930D01*
X23393Y1913D01*
X23390Y1907D01*
X23388Y1902D01*
X23386Y1900D01*
Y1898D01*
X23370Y1870D01*
X23351Y1845D01*
X23331Y1823D01*
X23310Y1805D01*
X23291Y1790D01*
X23276Y1778D01*
X23266Y1772D01*
X23265Y1770D01*
X23263D01*
X23226Y1753D01*
X23210Y1748D01*
X23195Y1743D01*
X23181Y1740D01*
X23171Y1737D01*
X23165Y1735D01*
X23163D01*
X23141Y1732D01*
X23116Y1730D01*
X23090Y1727D01*
X23065D01*
X23040Y1725D01*
X22926D01*
Y2473D01*
X23038D01*
X23068Y2471D01*
D02*
G37*
G36*
X9889Y2496D02*
X9914Y2495D01*
X9934Y2493D01*
X9951Y2491D01*
X9962Y2490D01*
X9969Y2488D01*
X9971D01*
X10007Y2480D01*
X10024Y2475D01*
X10039Y2470D01*
X10051Y2465D01*
X10061Y2460D01*
X10067Y2458D01*
X10069Y2456D01*
X10101Y2438D01*
X10129Y2416D01*
X10152Y2395D01*
X10171Y2373D01*
X10186Y2355D01*
X10196Y2338D01*
X10202Y2328D01*
X10204Y2326D01*
Y2325D01*
X10219Y2291D01*
X10229Y2258D01*
X10237Y2225D01*
X10242Y2193D01*
X10246Y2165D01*
Y2153D01*
X10247Y2143D01*
Y2135D01*
Y2128D01*
Y2125D01*
Y2123D01*
X10246Y2080D01*
X10241Y2042D01*
X10234Y2008D01*
X10227Y1978D01*
X10221Y1955D01*
X10214Y1938D01*
X10211Y1932D01*
X10209Y1927D01*
X10207Y1925D01*
Y1923D01*
X10191Y1895D01*
X10172Y1870D01*
X10152Y1848D01*
X10131Y1830D01*
X10112Y1815D01*
X10097Y1803D01*
X10087Y1797D01*
X10086Y1795D01*
X10084D01*
X10047Y1778D01*
X10031Y1773D01*
X10016Y1768D01*
X10002Y1765D01*
X9992Y1762D01*
X9986Y1760D01*
X9984D01*
X9962Y1757D01*
X9937Y1755D01*
X9911Y1752D01*
X9886D01*
X9861Y1750D01*
X9747D01*
Y2498D01*
X9859D01*
X9889Y2496D01*
D02*
G37*
G36*
X26104Y2010D02*
X26114Y2009D01*
X26124Y2007D01*
X26132Y2005D01*
X26139Y2002D01*
X26144Y2001D01*
X26148Y2000D01*
X26149Y1999D01*
X26159Y1994D01*
X26167Y1989D01*
X26175Y1983D01*
X26183Y1977D01*
X26188Y1972D01*
X26193Y1968D01*
X26195Y1965D01*
X26196Y1964D01*
X26204Y1955D01*
X26210Y1945D01*
X26215Y1935D01*
X26220Y1925D01*
X26224Y1917D01*
X26226Y1910D01*
X26228Y1905D01*
X26229Y1904D01*
Y1903D01*
X26233Y1888D01*
X26236Y1873D01*
X26238Y1857D01*
X26240Y1843D01*
X26240Y1831D01*
X26241Y1825D01*
Y1821D01*
Y1817D01*
Y1814D01*
Y1812D01*
Y1812D01*
X26240Y1793D01*
X26240Y1777D01*
X26238Y1762D01*
X26235Y1748D01*
X26233Y1737D01*
X26231Y1730D01*
X26230Y1725D01*
X26230Y1724D01*
Y1723D01*
X26225Y1710D01*
X26220Y1697D01*
X26215Y1687D01*
X26210Y1677D01*
X26205Y1670D01*
X26200Y1664D01*
X26198Y1661D01*
X26197Y1659D01*
X26189Y1651D01*
X26181Y1643D01*
X26173Y1637D01*
X26165Y1632D01*
X26159Y1628D01*
X26154Y1626D01*
X26150Y1624D01*
X26150Y1623D01*
X26140Y1620D01*
X26130Y1617D01*
X26120Y1615D01*
X26111Y1614D01*
X26104Y1613D01*
X26098Y1612D01*
X26093D01*
X26082Y1613D01*
X26072Y1614D01*
X26062Y1616D01*
X26054Y1618D01*
X26046Y1620D01*
X26041Y1622D01*
X26038Y1622D01*
X26036Y1623D01*
X26026Y1628D01*
X26018Y1634D01*
X26010Y1639D01*
X26003Y1645D01*
X25997Y1650D01*
X25993Y1654D01*
X25990Y1657D01*
X25990Y1658D01*
X25982Y1668D01*
X25976Y1678D01*
X25970Y1688D01*
X25966Y1698D01*
X25962Y1707D01*
X25960Y1714D01*
X25958Y1718D01*
X25957Y1720D01*
X25953Y1735D01*
X25950Y1750D01*
X25948Y1765D01*
X25947Y1779D01*
X25946Y1792D01*
X25945Y1797D01*
Y1802D01*
Y1806D01*
Y1808D01*
Y1810D01*
Y1811D01*
X25946Y1830D01*
X25947Y1847D01*
X25950Y1863D01*
X25952Y1877D01*
X25954Y1887D01*
X25956Y1896D01*
X25957Y1898D01*
Y1901D01*
X25958Y1902D01*
Y1902D01*
X25963Y1917D01*
X25968Y1929D01*
X25974Y1940D01*
X25979Y1949D01*
X25984Y1956D01*
X25987Y1961D01*
X25990Y1964D01*
X25990Y1965D01*
X25999Y1973D01*
X26007Y1981D01*
X26015Y1987D01*
X26022Y1992D01*
X26029Y1995D01*
X26034Y1998D01*
X26037Y1999D01*
X26038Y2000D01*
X26048Y2003D01*
X26057Y2007D01*
X26067Y2008D01*
X26075Y2009D01*
X26082Y2010D01*
X26088Y2011D01*
X26093D01*
X26104Y2010D01*
D02*
G37*
G36*
X6437Y2520D02*
X6457Y2518D01*
X6476Y2515D01*
X6493Y2510D01*
X6506Y2505D01*
X6516Y2501D01*
X6525Y2500D01*
X6526Y2498D01*
X6546Y2488D01*
X6563Y2478D01*
X6580Y2466D01*
X6595Y2455D01*
X6605Y2445D01*
X6615Y2436D01*
X6620Y2430D01*
X6621Y2428D01*
X6636Y2410D01*
X6648Y2390D01*
X6660Y2370D01*
X6670Y2350D01*
X6676Y2333D01*
X6681Y2320D01*
X6685Y2310D01*
X6686Y2308D01*
Y2306D01*
X6695Y2276D01*
X6701Y2246D01*
X6705Y2215D01*
X6708Y2186D01*
X6710Y2161D01*
X6711Y2150D01*
Y2141D01*
Y2133D01*
Y2128D01*
Y2125D01*
Y2123D01*
X6710Y2087D01*
X6708Y2053D01*
X6705Y2023D01*
X6700Y1997D01*
X6695Y1975D01*
X6691Y1960D01*
X6690Y1950D01*
X6688Y1948D01*
Y1947D01*
X6680Y1920D01*
X6668Y1895D01*
X6658Y1873D01*
X6648Y1855D01*
X6638Y1840D01*
X6630Y1828D01*
X6625Y1822D01*
X6623Y1818D01*
X6606Y1802D01*
X6591Y1787D01*
X6575Y1775D01*
X6560Y1765D01*
X6546Y1757D01*
X6536Y1752D01*
X6530Y1748D01*
X6528Y1747D01*
X6508Y1740D01*
X6488Y1735D01*
X6468Y1730D01*
X6451Y1728D01*
X6437Y1727D01*
X6425Y1725D01*
X6415D01*
X6393Y1727D01*
X6373Y1728D01*
X6353Y1732D01*
X6337Y1737D01*
X6322Y1740D01*
X6312Y1743D01*
X6305Y1745D01*
X6302Y1747D01*
X6282Y1757D01*
X6265Y1768D01*
X6248Y1778D01*
X6235Y1790D01*
X6223Y1800D01*
X6215Y1808D01*
X6210Y1815D01*
X6208Y1817D01*
X6193Y1837D01*
X6182Y1857D01*
X6170Y1877D01*
X6162Y1897D01*
X6153Y1913D01*
X6148Y1928D01*
X6145Y1937D01*
X6143Y1940D01*
X6135Y1970D01*
X6130Y2000D01*
X6125Y2030D01*
X6123Y2058D01*
X6122Y2083D01*
X6120Y2095D01*
Y2103D01*
Y2112D01*
Y2117D01*
Y2120D01*
Y2122D01*
X6122Y2160D01*
X6123Y2195D01*
X6128Y2226D01*
X6133Y2253D01*
X6137Y2275D01*
X6142Y2291D01*
X6143Y2296D01*
Y2301D01*
X6145Y2303D01*
Y2305D01*
X6155Y2333D01*
X6165Y2358D01*
X6177Y2380D01*
X6187Y2398D01*
X6197Y2411D01*
X6203Y2421D01*
X6208Y2428D01*
X6210Y2430D01*
X6227Y2446D01*
X6243Y2461D01*
X6258Y2473D01*
X6273Y2483D01*
X6287Y2490D01*
X6297Y2496D01*
X6303Y2498D01*
X6305Y2500D01*
X6325Y2506D01*
X6343Y2513D01*
X6363Y2516D01*
X6380Y2518D01*
X6393Y2520D01*
X6405Y2521D01*
X6415D01*
X6437Y2520D01*
D02*
G37*
G36*
X18551Y1962D02*
X18263D01*
X18408Y2381D01*
X18551Y1962D01*
D02*
G37*
G36*
X25414Y2000D02*
X25426D01*
X25431Y1999D01*
X25435D01*
X25449Y1997D01*
X25456Y1996D01*
X25461Y1994D01*
X25466Y1993D01*
X25469Y1992D01*
X25471Y1991D01*
X25471D01*
X25479Y1987D01*
X25486Y1983D01*
X25491Y1979D01*
X25495Y1975D01*
X25498Y1972D01*
X25501Y1968D01*
X25502Y1967D01*
Y1966D01*
X25506Y1960D01*
X25508Y1953D01*
X25511Y1941D01*
Y1936D01*
X25512Y1932D01*
Y1928D01*
Y1927D01*
Y1918D01*
X25511Y1911D01*
X25510Y1903D01*
X25509Y1897D01*
X25507Y1893D01*
X25506Y1889D01*
X25505Y1887D01*
Y1887D01*
X25498Y1876D01*
X25491Y1867D01*
X25487Y1864D01*
X25484Y1862D01*
X25482Y1861D01*
X25481Y1860D01*
X25475Y1856D01*
X25468Y1852D01*
X25455Y1847D01*
X25449Y1845D01*
X25444Y1844D01*
X25441Y1843D01*
X25440D01*
X25430Y1842D01*
X25420Y1842D01*
X25409Y1841D01*
X25400D01*
X25391Y1840D01*
X25331D01*
Y2001D01*
X25406D01*
X25414Y2000D01*
D02*
G37*
G36*
X24791Y1998D02*
X24806D01*
X24811Y1997D01*
X24815D01*
X24832Y1996D01*
X24840Y1994D01*
X24847Y1992D01*
X24853Y1991D01*
X24858Y1989D01*
X24862Y1988D01*
X24862Y1987D01*
X24869Y1984D01*
X24875Y1980D01*
X24884Y1972D01*
X24888Y1967D01*
X24891Y1965D01*
X24892Y1962D01*
X24893Y1962D01*
X24898Y1954D01*
X24902Y1947D01*
X24904Y1940D01*
X24906Y1933D01*
X24907Y1927D01*
X24907Y1922D01*
Y1919D01*
Y1918D01*
Y1909D01*
X24907Y1901D01*
X24906Y1893D01*
X24904Y1887D01*
X24903Y1882D01*
X24902Y1877D01*
X24901Y1875D01*
Y1874D01*
X24895Y1862D01*
X24887Y1852D01*
X24884Y1848D01*
X24882Y1846D01*
X24880Y1844D01*
X24879Y1843D01*
X24872Y1838D01*
X24866Y1834D01*
X24852Y1828D01*
X24846Y1827D01*
X24841Y1825D01*
X24837Y1824D01*
X24837D01*
X24827Y1822D01*
X24816Y1822D01*
X24805Y1821D01*
X24795D01*
X24786Y1820D01*
X24729D01*
Y1999D01*
X24780D01*
X24791Y1998D01*
D02*
G37*
%LPC*%
G36*
X54609Y3684D02*
X54551D01*
Y3638D01*
X54591D01*
X54609Y3644D01*
X54615Y3649D01*
X54621Y3655D01*
Y3661D01*
X54615Y3673D01*
X54609Y3684D01*
D02*
G37*
%LPD*%
D20*
X33540Y52700D02*
X35540D01*
Y49150D02*
Y52700D01*
X33540Y49150D02*
X35540D01*
X33540D02*
Y52700D01*
X39700D02*
X41700D01*
Y49150D02*
Y52700D01*
X39700Y49150D02*
X41700D01*
X39700D02*
Y52700D01*
X37583Y34004D02*
Y36614D01*
X38799Y34004D02*
Y36614D01*
X37583D02*
X38799D01*
X37583Y34004D02*
X38799D01*
X35784D02*
Y36614D01*
X37000Y34004D02*
Y36614D01*
X35784D02*
X37000D01*
X35784Y34004D02*
X37000D01*
X33984D02*
Y36614D01*
X35200Y34004D02*
Y36614D01*
X33984D02*
X35200D01*
X33984Y34004D02*
X35200D01*
X32184D02*
Y36614D01*
X33400Y34004D02*
Y36614D01*
X32184D02*
X33400D01*
X32184Y34004D02*
X33400D01*
X44725Y58550D02*
X48475D01*
X44725Y54250D02*
X48475D01*
X44725D02*
Y58550D01*
X48475Y54250D02*
Y58550D01*
X25750Y11750D02*
Y18250D01*
X34250D01*
Y11750D02*
Y18250D01*
X25750Y11750D02*
X34250D01*
X10750D02*
Y18250D01*
X19250D01*
Y11750D02*
Y18250D01*
X10750Y11750D02*
X19250D01*
X40750D02*
Y18250D01*
X49250D01*
Y11750D02*
Y18250D01*
X40750Y11750D02*
X49250D01*
D29*
X49975Y56625D02*
G03*
X49975Y56625I-50J0D01*
G01*
X34425Y11700D02*
X35575D01*
Y14200D01*
X34425D02*
X35575D01*
X34425Y11700D02*
Y14200D01*
X19425Y11700D02*
X20575D01*
Y14200D01*
X19425D02*
X20575D01*
X19425Y11700D02*
Y14200D01*
X49425Y11700D02*
X50575D01*
Y14200D01*
X49425D02*
X50575D01*
X49425Y11700D02*
Y14200D01*
X31965Y49250D02*
X33115D01*
Y51750D01*
X31965D02*
X33115D01*
X31965Y49250D02*
Y51750D01*
X30065Y49250D02*
X31215D01*
Y51750D01*
X30065D02*
X31215D01*
X30065Y49250D02*
Y51750D01*
X42150Y49350D02*
Y51850D01*
X43250D01*
Y49350D02*
Y51850D01*
X42150Y49350D02*
X43250D01*
X31643Y34164D02*
Y36664D01*
X30543Y34164D02*
X31643D01*
X30543D02*
Y36664D01*
X31643D01*
X14000Y23150D02*
Y26794D01*
X16000Y23150D02*
Y26825D01*
X14000Y23150D02*
X16000D01*
X14031Y26825D02*
X16000D01*
X14000Y26794D02*
X14031Y26825D01*
X14000Y26794D02*
Y27159D01*
X16000D01*
Y26762D02*
Y27159D01*
X16175Y23904D02*
X17325D01*
Y26404D01*
X16175D02*
X17325D01*
X16175Y23904D02*
Y26404D01*
X48725Y57050D02*
X50125D01*
X48725Y54200D02*
Y57050D01*
Y54200D02*
X50125D01*
Y57050D01*
X48650Y57175D02*
Y58275D01*
Y57175D02*
X51150D01*
Y58275D01*
X48650D02*
X51150D01*
X51475Y54475D02*
Y56975D01*
X50325Y54475D02*
X51475D01*
X50325D02*
Y56975D01*
X51475D01*
X17046Y53652D02*
Y59692D01*
Y53652D02*
X42364D01*
X42954Y54242D01*
Y59692D01*
X42954Y58986D02*
X42954Y58986D01*
X31000Y26762D02*
Y27159D01*
X29000D02*
X31000D01*
X29000Y26794D02*
Y27159D01*
Y26794D02*
X29031Y26825D01*
X31000D01*
X29000Y23150D02*
X31000D01*
Y26825D01*
X29000Y23150D02*
Y26794D01*
X46000Y26762D02*
Y27159D01*
X44000D02*
X46000D01*
X44000Y26794D02*
Y27159D01*
Y26794D02*
X44031Y26825D01*
X46000D01*
X44000Y23150D02*
X46000D01*
Y26825D01*
X44000Y23150D02*
Y26794D01*
X31225Y23904D02*
Y26404D01*
X32375D01*
Y23904D02*
Y26404D01*
X31225Y23904D02*
X32375D01*
X46225D02*
Y26404D01*
X47375D01*
Y23904D02*
Y26404D01*
X46225Y23904D02*
X47375D01*
X15625Y54950D02*
X16725D01*
Y57450D01*
X15625D02*
X16725D01*
X15625Y54950D02*
Y57450D01*
X48650Y58525D02*
X51150D01*
X48650D02*
Y59675D01*
X51150D01*
Y58525D02*
Y59675D01*
X28165Y49250D02*
X29315D01*
Y51750D01*
X28165D02*
X29315D01*
X28165Y49250D02*
Y51750D01*
D30*
X26300Y17875D02*
G03*
X26300Y17875I-100J0D01*
G01*
X11300D02*
G03*
X11300Y17875I-100J0D01*
G01*
X41300D02*
G03*
X41300Y17875I-100J0D01*
G01*
X15000Y37250D02*
X45000D01*
Y48750D01*
X15000D02*
X45000D01*
X15000Y37250D02*
Y48750D01*
X45000Y37500D02*
X47750D01*
X45000Y47500D02*
X47750D01*
X11168Y11000D02*
Y10000D01*
X11668D01*
X11834Y10167D01*
Y10333D01*
X11668Y10500D01*
X11168D01*
X11668D01*
X11834Y10666D01*
Y10833D01*
X11668Y11000D01*
X11168D01*
X12168D02*
Y10167D01*
X12334Y10000D01*
X12667D01*
X12834Y10167D01*
Y11000D01*
X13167D02*
X13834D01*
X13500D01*
Y10000D01*
X14167Y11000D02*
X14833D01*
X14500D01*
Y10000D01*
X15666Y11000D02*
X15333D01*
X15167Y10833D01*
Y10167D01*
X15333Y10000D01*
X15666D01*
X15833Y10167D01*
Y10833D01*
X15666Y11000D01*
X16166Y10000D02*
Y11000D01*
X16833Y10000D01*
Y11000D01*
X18166Y10000D02*
X18499D01*
X18332D01*
Y11000D01*
X18166Y10833D01*
X26335Y11000D02*
Y10000D01*
X26834D01*
X27001Y10167D01*
Y10333D01*
X26834Y10500D01*
X26335D01*
X26834D01*
X27001Y10666D01*
Y10833D01*
X26834Y11000D01*
X26335D01*
X27334D02*
Y10167D01*
X27501Y10000D01*
X27834D01*
X28001Y10167D01*
Y11000D01*
X28334D02*
X29000D01*
X28667D01*
Y10000D01*
X29334Y11000D02*
X30000D01*
X29667D01*
Y10000D01*
X30833Y11000D02*
X30500D01*
X30333Y10833D01*
Y10167D01*
X30500Y10000D01*
X30833D01*
X31000Y10167D01*
Y10833D01*
X30833Y11000D01*
X31333Y10000D02*
Y11000D01*
X31999Y10000D01*
Y11000D01*
X33999Y10000D02*
X33332D01*
X33999Y10666D01*
Y10833D01*
X33832Y11000D01*
X33499D01*
X33332Y10833D01*
X41168Y11000D02*
Y10000D01*
X41668D01*
X41834Y10167D01*
Y10333D01*
X41668Y10500D01*
X41168D01*
X41668D01*
X41834Y10666D01*
Y10833D01*
X41668Y11000D01*
X41168D01*
X42168D02*
Y10167D01*
X42334Y10000D01*
X42667D01*
X42834Y10167D01*
Y11000D01*
X43167D02*
X43834D01*
X43500D01*
Y10000D01*
X44167Y11000D02*
X44833D01*
X44500D01*
Y10000D01*
X45666Y11000D02*
X45333D01*
X45167Y10833D01*
Y10167D01*
X45333Y10000D01*
X45666D01*
X45833Y10167D01*
Y10833D01*
X45666Y11000D01*
X46166Y10000D02*
Y11000D01*
X46833Y10000D01*
Y11000D01*
X48166Y10833D02*
X48332Y11000D01*
X48665D01*
X48832Y10833D01*
Y10666D01*
X48665Y10500D01*
X48499D01*
X48665D01*
X48832Y10333D01*
Y10167D01*
X48665Y10000D01*
X48332D01*
X48166Y10167D01*
X13334Y29400D02*
Y28400D01*
X14000D01*
X15000Y29400D02*
X14334D01*
Y28400D01*
X15000D01*
X14334Y28900D02*
X14667D01*
X15333Y29400D02*
Y28400D01*
X15833D01*
X16000Y28567D01*
Y29233D01*
X15833Y29400D01*
X15333D01*
X16333Y28400D02*
X16666D01*
X16500D01*
Y29400D01*
X16333Y29233D01*
X28334Y29400D02*
Y28400D01*
X29000D01*
X30000Y29400D02*
X29334D01*
Y28400D01*
X30000D01*
X29334Y28900D02*
X29667D01*
X30333Y29400D02*
Y28400D01*
X30833D01*
X31000Y28567D01*
Y29233D01*
X30833Y29400D01*
X30333D01*
X31999Y28400D02*
X31333D01*
X31999Y29066D01*
Y29233D01*
X31833Y29400D01*
X31500D01*
X31333Y29233D01*
X43167Y29400D02*
Y28400D01*
X43834D01*
X44833Y29400D02*
X44167D01*
Y28400D01*
X44833D01*
X44167Y28900D02*
X44500D01*
X45167Y29400D02*
Y28400D01*
X45666D01*
X45833Y28567D01*
Y29233D01*
X45666Y29400D01*
X45167D01*
X46166Y29233D02*
X46333Y29400D01*
X46666D01*
X46833Y29233D01*
Y29066D01*
X46666Y28900D01*
X46500D01*
X46666D01*
X46833Y28733D01*
Y28567D01*
X46666Y28400D01*
X46333D01*
X46166Y28567D01*
M02*
